<svg width="24" height="24" viewBox="0 0 24 24" fill="none" xmlns="http://www.w3.org/2000/svg">
<path fill-rule="evenodd" clip-rule="evenodd" d="M7.8912 4.04976C5.81762 4.23349 3.84321 5.36289 2.51756 7.1236C1.39897 8.60922 0.161353 12.8056 0.00695183 15.6362C-0.0905054 17.4225 0.835258 18.667 2.87667 19.4938C3.78761 19.8628 4.9222 20.1051 5.71503 20.0999L6.01077 20.098L6.57271 19.3981C6.88178 19.0131 7.16548 18.6561 7.20311 18.6047C7.26503 18.5202 7.23185 18.4972 6.85524 18.3637C5.89447 18.023 4.94077 17.4417 4.29748 16.8046C4.07249 16.5818 3.89855 16.3894 3.91092 16.3771C3.92328 16.3648 4.1479 16.4541 4.41014 16.5757C5.40553 17.0371 7.00413 17.5979 8.2114 17.9092C10.8607 18.5923 13.2361 18.6175 15.5375 17.9867C16.6547 17.6805 17.8707 17.1578 18.9533 16.5184C19.2046 16.3699 19.429 16.2485 19.4521 16.2485C19.5375 16.2485 18.8419 16.9136 18.4454 17.2112C17.9672 17.57 17.0622 18.0428 16.4337 18.262C16.1909 18.3467 15.9922 18.4336 15.9921 18.455C15.992 18.4765 16.2389 18.7983 16.5405 19.1703C16.8422 19.5423 17.1185 19.8837 17.1545 19.9289C17.2088 19.9972 17.3132 20.0058 17.77 19.9799C19.485 19.8828 21.492 19.1017 22.4019 18.1774C23.2387 17.3273 23.539 16.3413 23.3809 14.9633C23.0354 11.9513 21.9694 8.57754 20.9118 7.1487C19.6896 5.49749 17.9696 4.45281 15.9385 4.12801C15.1801 4.00673 15.0232 4.01701 14.8487 4.19913L14.7022 4.35198L14.9591 4.42124C15.866 4.66571 17.5644 5.39832 18.4147 5.91194C18.8569 6.17911 19.6313 6.72221 19.5699 6.72221C19.5521 6.72221 19.3479 6.63535 19.1161 6.52917C17.415 5.74994 15.5833 5.2276 13.6639 4.9744C12.7808 4.85784 10.3498 4.84162 9.51623 4.94663C7.60022 5.18805 5.77946 5.67025 4.30974 6.32553C3.53837 6.66939 3.58863 6.65216 3.67838 6.54191C3.81447 6.37472 4.86413 5.70424 5.44422 5.41395C5.75581 5.25805 6.28773 5.02048 6.62623 4.8861C7.22644 4.64783 8.47797 4.26036 8.64741 4.26036C8.71372 4.26036 8.70489 4.23135 8.60642 4.12656C8.53727 4.05297 8.4548 3.99614 8.42317 4.00021C8.39149 4.00433 8.1521 4.02659 7.8912 4.04976ZM8.42124 11.1403C9.25822 11.3582 9.83756 11.9923 9.99549 12.8635C10.2454 14.242 8.95343 15.5628 7.62483 15.2869C6.33306 15.0188 5.60579 13.644 6.0881 12.382C6.35372 11.687 7.1954 11.0872 7.93958 11.0626C8.02906 11.0596 8.24581 11.0946 8.42124 11.1403ZM16.1336 11.2671C16.6051 11.4878 16.919 11.7983 17.1568 12.2796C17.3463 12.6628 17.3566 12.7107 17.3546 13.1952C17.352 13.8372 17.222 14.1971 16.8429 14.6119C16.5205 14.9647 16.2147 15.1507 15.7699 15.2647C14.4177 15.6111 13.0594 14.2864 13.3097 12.8653C13.4216 12.2301 13.7723 11.7018 14.2867 11.3937C14.9043 11.0238 15.5229 10.9813 16.1336 11.2671Z" fill="#E2DD96"/>
</svg>
