<svg width="24" height="24" viewBox="0 0 24 24" fill="none" xmlns="http://www.w3.org/2000/svg">
<g clip-path="url(#clip0_1080_1795)">
<path fill-rule="evenodd" clip-rule="evenodd" d="M5.71316 0.0478282C4.92693 0.137969 4.0063 0.442469 3.30243 0.845219C1.48302 1.88617 0.282504 3.7067 0.0519258 5.77427C-0.0173086 6.39531 -0.0173086 17.5936 0.0519258 18.2146C0.38802 21.2283 2.76777 23.6081 5.7815 23.9442C6.40255 24.0134 17.6008 24.0134 18.2218 23.9442C21.2356 23.6081 23.6153 21.2283 23.9514 18.2146C24.0207 17.5936 24.0207 6.39531 23.9514 5.77427C23.6153 2.76053 21.2356 0.380781 18.2218 0.0446875C17.6702 -0.0168125 6.25204 -0.0139531 5.71316 0.0478282ZM18.7083 1.54858C19.6823 1.81722 20.4327 2.24359 21.0926 2.90355C21.7522 3.56317 22.1781 4.31247 22.4479 5.28784L22.572 5.73662V11.9944V18.2523L22.4479 18.701C22.1781 19.6764 21.7522 20.4257 21.0926 21.0853C20.4329 21.745 19.6836 22.1709 18.7083 22.4406L18.2595 22.5648H12.0017H5.74386L5.29508 22.4406C4.31971 22.1709 3.57041 21.745 2.91079 21.0853C2.25116 20.4257 1.82521 19.6764 1.55549 18.701L1.43136 18.2523V11.9944V5.73662L1.55549 5.28784C1.82488 4.31369 2.25116 3.56313 2.90821 2.90608C3.68652 2.12777 4.71332 1.6098 5.79074 1.45197C5.94543 1.42933 8.81418 1.41395 12.1657 1.4178L18.2595 1.42483L18.7083 1.54858ZM18.4939 3.1217C17.3524 3.27906 16.571 4.3915 16.8466 5.46709C17.0428 6.23312 17.5263 6.71833 18.2878 6.91342C19.5751 7.24323 20.8419 6.0745 20.6271 4.75516C20.5076 4.0203 19.9708 3.40337 19.2673 3.19239C19.0628 3.13108 18.6798 3.09606 18.4939 3.1217ZM19.0196 4.6172C19.2712 4.77414 19.3129 5.1662 19.1014 5.38694C18.9319 5.56389 18.7178 5.60537 18.502 5.503C18.1743 5.34747 18.1038 4.91777 18.3655 4.67125C18.5604 4.48783 18.7826 4.46945 19.0196 4.6172ZM11.0983 5.50403C8.50513 5.85747 6.31757 7.80977 5.65522 10.3617C5.07388 12.6014 5.72446 14.9605 7.38004 16.6161C9.9598 19.1958 14.0436 19.1958 16.6233 16.6161C19.203 14.0364 19.203 9.95045 16.6233 7.37331C15.1427 5.89412 13.1593 5.22311 11.0983 5.50403ZM12.7517 6.90625C13.8763 7.07678 14.8342 7.56002 15.6351 8.36097C17.6526 10.3784 17.6526 13.6105 15.6351 15.6279C13.6177 17.6453 10.3856 17.6453 8.36821 15.6279C6.3508 13.6105 6.3508 10.3784 8.36821 8.36097C9.53469 7.19444 11.1396 6.66184 12.7517 6.90625Z" fill="#9A9AA9"/>
<path fill-rule="evenodd" clip-rule="evenodd" d="M8.91162 5.04359C7.09545 5.20451 5.36614 6.19371 4.20504 7.73585C3.22531 9.03705 2.14132 12.7125 2.00609 15.1917C1.92073 16.7563 2.73157 17.8463 4.51957 18.5705C5.31743 18.8936 6.31118 19.1059 7.00559 19.1014L7.26462 19.0997L7.75681 18.4866C8.02751 18.1495 8.276 17.8368 8.30895 17.7918C8.36318 17.7177 8.33412 17.6976 8.00426 17.5806C7.16276 17.2822 6.32745 16.7731 5.76401 16.2151C5.56695 16.02 5.4146 15.8515 5.42543 15.8407C5.43626 15.8299 5.633 15.9081 5.86268 16.0146C6.73451 16.4187 8.13467 16.9099 9.19207 17.1826C11.5125 17.7809 13.5931 17.8029 15.6087 17.2505C16.5873 16.9823 17.6523 16.5244 18.6005 15.9644C18.8206 15.8344 19.0172 15.728 19.0374 15.728C19.1122 15.728 18.503 16.3106 18.1557 16.5712C17.7369 16.8855 16.9442 17.2996 16.3937 17.4916C16.181 17.5658 16.007 17.6419 16.0069 17.6606C16.0069 17.6794 16.223 17.9614 16.4873 18.2871C16.7515 18.613 16.9935 18.9119 17.025 18.9515C17.0726 19.0114 17.1641 19.0189 17.5641 18.9963C19.0662 18.9112 20.8241 18.2271 21.6211 17.4175C22.3539 16.6729 22.617 15.8093 22.4785 14.6023C22.1759 11.9643 21.2422 9.0093 20.3159 7.75784C19.2454 6.3116 17.739 5.3966 15.9599 5.11212C15.2957 5.0059 15.1583 5.0149 15.0055 5.17441L14.8772 5.30829L15.1022 5.36895C15.8965 5.58307 17.384 6.22474 18.1287 6.6746C18.5161 6.9086 19.1944 7.38429 19.1405 7.38429C19.125 7.38429 18.9462 7.30821 18.7431 7.21521C17.2532 6.53271 15.6489 6.07521 13.9677 5.85345C13.1943 5.75135 11.065 5.73715 10.3349 5.82912C8.65676 6.04057 7.06203 6.46291 5.77475 7.03685C5.09914 7.33802 5.14315 7.32293 5.22176 7.22637C5.34096 7.07993 6.26032 6.49268 6.7684 6.23843C7.04131 6.10188 7.5072 5.8938 7.80368 5.7761C8.32939 5.56741 9.42556 5.22804 9.57396 5.22804C9.63204 5.22804 9.62431 5.20263 9.53806 5.11085C9.47749 5.0464 9.40526 4.99662 9.37756 5.00018C9.34981 5.00379 9.14014 5.02329 8.91162 5.04359ZM9.37587 11.2539C10.1089 11.4448 10.6164 12.0002 10.7547 12.7632C10.9736 13.9706 9.84199 15.1274 8.67832 14.8858C7.5469 14.6509 6.90992 13.4468 7.33235 12.3415C7.565 11.7328 8.3022 11.2074 8.95399 11.1859C9.03237 11.1833 9.22221 11.2139 9.37587 11.2539ZM16.1309 11.365C16.5439 11.5583 16.8187 11.8302 17.027 12.2518C17.193 12.5875 17.202 12.6294 17.2003 13.0537C17.198 13.6161 17.0841 13.9313 16.7521 14.2946C16.4697 14.6036 16.2019 14.7665 15.8123 14.8663C14.628 15.1697 13.4382 14.0095 13.6575 12.7648C13.7555 12.2085 14.0627 11.7458 14.5132 11.4759C15.0542 11.1519 15.596 11.1147 16.1309 11.365Z" fill="#9A9AA9"/>
</g>
<defs>
<clipPath id="clip0_1080_1795">
<rect width="24" height="24" fill="white"/>
</clipPath>
</defs>
</svg>
