<svg width="24" height="24" viewBox="0 0 24 24" fill="none" xmlns="http://www.w3.org/2000/svg">
<g clip-path="url(#clip0_1080_1792)">
<path fill-rule="evenodd" clip-rule="evenodd" d="M5.71316 0.0478282C4.92693 0.137969 4.0063 0.442469 3.30243 0.845219C1.48302 1.88617 0.282504 3.7067 0.0519258 5.77427C-0.0173086 6.39531 -0.0173086 17.5936 0.0519258 18.2146C0.38802 21.2283 2.76777 23.6081 5.7815 23.9442C6.40255 24.0134 17.6008 24.0134 18.2218 23.9442C21.2356 23.6081 23.6153 21.2283 23.9514 18.2146C24.0207 17.5936 24.0207 6.39531 23.9514 5.77427C23.6153 2.76053 21.2356 0.380781 18.2218 0.0446875C17.6702 -0.0168125 6.25204 -0.0139531 5.71316 0.0478282ZM18.7083 1.54858C19.6823 1.81722 20.4327 2.24359 21.0926 2.90355C21.7522 3.56317 22.1781 4.31247 22.4479 5.28784L22.572 5.73662V11.9944V18.2523L22.4479 18.701C22.1781 19.6764 21.7522 20.4257 21.0926 21.0853C20.4329 21.745 19.6836 22.1709 18.7083 22.4406L18.2595 22.5648H12.0017H5.74386L5.29508 22.4406C4.31971 22.1709 3.57041 21.745 2.91079 21.0853C2.25116 20.4257 1.82521 19.6764 1.55549 18.701L1.43136 18.2523V11.9944V5.73662L1.55549 5.28784C1.82488 4.31369 2.25116 3.56313 2.90821 2.90608C3.68652 2.12777 4.71332 1.6098 5.79074 1.45197C5.94543 1.42933 8.81418 1.41395 12.1657 1.4178L18.2595 1.42483L18.7083 1.54858ZM18.4939 3.1217C17.3524 3.27906 16.571 4.3915 16.8466 5.46709C17.0428 6.23312 17.5263 6.71833 18.2878 6.91342C19.5751 7.24323 20.8419 6.0745 20.6271 4.75516C20.5076 4.0203 19.9708 3.40337 19.2673 3.19239C19.0628 3.13108 18.6798 3.09606 18.4939 3.1217ZM19.0196 4.6172C19.2712 4.77414 19.3129 5.1662 19.1014 5.38694C18.9319 5.56389 18.7178 5.60537 18.502 5.503C18.1743 5.34747 18.1038 4.91777 18.3655 4.67125C18.5604 4.48783 18.7826 4.46945 19.0196 4.6172ZM11.0983 5.50403C8.50513 5.85747 6.31757 7.80977 5.65522 10.3617C5.07388 12.6014 5.72446 14.9605 7.38004 16.6161C9.9598 19.1958 14.0436 19.1958 16.6233 16.6161C19.203 14.0364 19.203 9.95045 16.6233 7.37331C15.1427 5.89412 13.1593 5.22311 11.0983 5.50403ZM12.7517 6.90625C13.8763 7.07678 14.8342 7.56002 15.6351 8.36097C17.6526 10.3784 17.6526 13.6105 15.6351 15.6279C13.6177 17.6453 10.3856 17.6453 8.36821 15.6279C6.3508 13.6105 6.3508 10.3784 8.36821 8.36097C9.53469 7.19444 11.1396 6.66184 12.7517 6.90625Z" fill="#9A9AA9"/>
</g>
<defs>
<clipPath id="clip0_1080_1792">
<rect width="24" height="24" fill="white"/>
</clipPath>
</defs>
</svg>
