<svg width="23" height="20" viewBox="0 0 23 20" fill="none" xmlns="http://www.w3.org/2000/svg">
<path d="M17.6613 6.45916C17.4441 5.97793 17.1309 5.54185 16.7392 5.17532C16.3472 4.80769 15.8851 4.51555 15.3779 4.31477C14.852 4.10575 14.288 3.99876 13.7185 4.00001C12.9195 4.00001 12.1401 4.20933 11.4627 4.60472C11.3006 4.6993 11.1467 4.80319 11.0008 4.91638C10.855 4.80319 10.701 4.6993 10.5389 4.60472C9.86155 4.20933 9.08206 4.00001 8.28313 4.00001C7.70783 4.00001 7.15036 4.10545 6.62368 4.31477C6.11483 4.51634 5.65621 4.80629 5.26241 5.17532C4.87023 5.54143 4.55695 5.97762 4.34032 6.45916C4.11506 6.95998 4 7.49182 4 8.03916C4 8.55549 4.1102 9.09352 4.32897 9.64086C4.5121 10.0983 4.77463 10.5727 5.11008 11.0519C5.64162 11.8101 6.37249 12.6008 7.28 13.4025C8.78388 14.7313 10.2732 15.6492 10.3364 15.6864L10.7204 15.9221C10.8906 16.026 11.1094 16.026 11.2795 15.9221L11.6636 15.6864C11.7268 15.6476 13.2145 14.7313 14.72 13.4025C15.6275 12.6008 16.3584 11.8101 16.8899 11.0519C17.2254 10.5727 17.4895 10.0983 17.671 9.64086C17.8898 9.09352 18 8.55549 18 8.03916C18.0016 7.49182 17.8865 6.95998 17.6613 6.45916V6.45916Z" fill="#505356"/>
</svg>
