<svg width="54" height="52" viewBox="0 0 54 52" fill="none" xmlns="http://www.w3.org/2000/svg">
<path d="M13.2516 14.9993C12.92 14.9993 12.6019 14.8588 12.3675 14.6088C12.133 14.3588 12.0012 14.0197 12.0012 13.6661C12.0012 13.3125 12.133 12.9734 12.3675 12.7233C12.6019 12.4733 12.92 12.3329 13.2516 12.3329H40.7584C41.09 12.3329 41.4081 12.4733 41.6425 12.7233C41.877 12.9734 42.0087 13.3125 42.0087 13.6661C42.0087 14.0197 41.877 14.3588 41.6425 14.6088C41.4081 14.8588 41.09 14.9993 40.7584 14.9993H13.2516ZM18.2528 9.66643C17.9212 9.66643 17.6032 9.52597 17.3687 9.27594C17.1342 9.02591 17.0025 8.6868 17.0025 8.33321C17.0025 7.97962 17.1342 7.64052 17.3687 7.39049C17.6032 7.14046 17.9212 7 18.2528 7H35.7572C36.0888 7 36.4068 7.14046 36.6413 7.39049C36.8758 7.64052 37.0075 7.97962 37.0075 8.33321C37.0075 8.6868 36.8758 9.02591 36.6413 9.27594C36.4068 9.52597 36.0888 9.66643 35.7572 9.66643H18.2528ZM7 40.3304C7 41.3911 7.39519 42.4085 8.09862 43.1585C8.80206 43.9086 9.75613 44.33 10.7509 44.33H43.2591C44.2539 44.33 45.2079 43.9086 45.9114 43.1585C46.6148 42.4085 47.01 41.3911 47.01 40.3304V21.6654C47.01 20.6046 46.6148 19.5873 45.9114 18.8372C45.2079 18.0871 44.2539 17.6657 43.2591 17.6657H10.7509C9.75613 17.6657 8.80206 18.0871 8.09862 18.8372C7.39519 19.5873 7 20.6046 7 21.6654L7 40.3304ZM10.7509 41.6636C10.4193 41.6636 10.1013 41.5231 9.86683 41.2731C9.63235 41.0231 9.50062 40.684 9.50062 40.3304V21.6654C9.50062 21.3118 9.63235 20.9727 9.86683 20.7226C10.1013 20.4726 10.4193 20.3321 10.7509 20.3321H43.2591C43.5907 20.3321 43.9087 20.4726 44.1432 20.7226C44.3776 20.9727 44.5094 21.3118 44.5094 21.6654V40.3304C44.5094 40.684 44.3776 41.0231 44.1432 41.2731C43.9087 41.5231 43.5907 41.6636 43.2591 41.6636H10.7509Z" fill="#252026"/>
</svg>
