<svg width="73" height="64" viewBox="0 0 73 64" fill="none" xmlns="http://www.w3.org/2000/svg">
<path fill-rule="evenodd" clip-rule="evenodd" d="M7 32C7 24.3087 10.0553 16.9325 15.4939 11.4939C20.9325 6.05535 28.3087 3 36 3C43.6913 3 51.0675 6.05535 56.5061 11.4939C61.9447 16.9325 65 24.3087 65 32C65 39.6913 61.9447 47.0675 56.5061 52.5061C51.0675 57.9447 43.6913 61 36 61C28.3087 61 20.9325 57.9447 15.4939 52.5061C10.0553 47.0675 7 39.6913 7 32H7ZM34.3451 44.412L51.0413 23.5397L48.0253 21.1269L33.7883 38.9175L23.704 30.5152L21.2293 33.4848L34.3451 44.4159V44.412Z" fill="#6D6A6A"/>
</svg>
