<svg width="54" height="52" viewBox="0 0 54 52" fill="none" xmlns="http://www.w3.org/2000/svg">
<path d="M31.5646 10.027C31.6275 9.95543 31.7056 9.8958 31.7943 9.8515C31.883 9.80719 31.9806 9.77909 32.0814 9.76881C32.1823 9.75853 32.2844 9.76628 32.3819 9.7916C32.4794 9.81692 32.5703 9.85932 32.6495 9.91635L34.3114 11.1136L28.2345 18.0622H32.1494L36.7167 12.8418L40.5699 15.6151C40.6507 15.6732 40.7175 15.7453 40.7666 15.8271C40.8156 15.9089 40.8457 15.9988 40.8552 16.0913C40.8647 16.1839 40.8533 16.2772 40.8217 16.3657C40.7902 16.4541 40.7391 16.536 40.6715 16.6064L39.2742 18.0622H43.2968C43.8266 17.3429 44.0379 16.4717 43.8893 15.6196C43.7407 14.7675 43.2428 13.9961 42.4935 13.457L34.573 7.75824C34.1774 7.47363 33.723 7.26207 33.2361 7.13572C32.7491 7.00937 32.2392 6.97071 31.7355 7.02197C31.2319 7.07323 30.7445 7.21339 30.3013 7.43441C29.8582 7.65543 29.468 7.95295 29.1532 8.30987L20.5557 18.0622H24.4813L31.5646 10.027ZM34.6992 30.5048C34.2911 30.5048 33.8997 30.6505 33.6111 30.9097C33.3225 31.169 33.1604 31.5207 33.1604 31.8873C33.1604 32.254 33.3225 32.6057 33.6111 32.8649C33.8997 33.1242 34.2911 33.2699 34.6992 33.2699H39.3158C39.7239 33.2699 40.1153 33.1242 40.4039 32.8649C40.6925 32.6057 40.8546 32.254 40.8546 31.8873C40.8546 31.5207 40.6925 31.169 40.4039 30.9097C40.1153 30.6505 39.7239 30.5048 39.3158 30.5048H34.6992ZM11.6165 13.9146C10.3922 13.9146 9.21792 14.3516 8.35215 15.1294C7.48638 15.9072 7 16.9622 7 18.0622V38.1087C7 39.7587 7.72958 41.3411 9.02823 42.5078C10.3269 43.6745 12.0882 44.33 13.9248 44.33H40.0852C41.9218 44.33 43.6831 43.6745 44.9818 42.5078C46.2804 41.3411 47.01 39.7587 47.01 38.1087V25.666C47.01 24.016 46.2804 22.4336 44.9818 21.2669C43.6831 20.1001 41.9218 19.4447 40.0852 19.4447H11.6165C11.2084 19.4447 10.817 19.299 10.5284 19.0397C10.2398 18.7805 10.0777 18.4288 10.0777 18.0622C10.0777 17.6955 10.2398 17.3438 10.5284 17.0846C10.817 16.8253 11.2084 16.6796 11.6165 16.6796H18.6645L21.1205 13.9146H11.6165ZM10.0777 38.1087V21.9747C10.5594 22.1268 11.0779 22.2097 11.6165 22.2097H40.0852C41.1055 22.2097 42.084 22.5739 42.8055 23.222C43.527 23.8702 43.9323 24.7493 43.9323 25.666V38.1087C43.9323 39.0253 43.527 39.9045 42.8055 40.5526C42.084 41.2008 41.1055 41.565 40.0852 41.565H13.9248C12.9045 41.565 11.926 41.2008 11.2045 40.5526C10.483 39.9045 10.0777 39.0253 10.0777 38.1087Z" fill="#373737"/>
</svg>
