<svg width="24" height="24" viewBox="0 0 24 24" fill="none" xmlns="http://www.w3.org/2000/svg">
<g clip-path="url(#clip0_1075_1781)">
<path fill-rule="evenodd" clip-rule="evenodd" d="M11.1393 0.0876562C10.1214 0.380766 9.07814 1.28761 8.27039 2.5815C8.00334 3.00933 7.54223 3.93975 7.31663 4.506C7.21266 4.76695 7.13377 4.98516 7.14127 4.99083C7.14881 4.99655 7.38698 5.04638 7.67058 5.10155C8.73961 5.30948 9.92114 5.44655 11.1276 5.50252L11.5846 5.52375V2.76187C11.5846 0.161484 11.5799 0.000187499 11.5026 0.00332812C11.4575 0.00515625 11.294 0.043125 11.1393 0.0876562ZM12.4284 2.76187V5.52375L12.8854 5.50252C14.0919 5.44655 15.2734 5.30948 16.3425 5.10155C16.626 5.04638 16.8642 4.99655 16.8718 4.99083C16.9025 4.96753 16.4885 3.99384 16.2211 3.46055C15.43 1.88227 14.5235 0.857812 13.4362 0.313266C13.149 0.169406 12.632 0 12.4802 0C12.443 0 12.4284 0.775922 12.4284 2.76187ZM8.52675 0.471516C7.22456 0.865453 5.88216 1.54945 4.77511 2.38313C4.29389 2.74552 3.41227 3.53775 3.39173 3.62625C3.38442 3.65761 3.47934 3.72792 3.60267 3.78253C3.72595 3.83719 4.02722 3.9705 4.27214 4.07883C4.87739 4.34658 6.22875 4.81209 6.26991 4.76705C6.27455 4.76198 6.35714 4.54688 6.45338 4.28906C6.9412 2.9827 7.69092 1.76152 8.631 0.742172C8.84105 0.514453 9.00614 0.329344 8.99798 0.330797C8.98978 0.33225 8.77772 0.395578 8.52675 0.471516ZM15.3375 0.692438C15.7527 1.13709 16.43 2.03222 16.6969 2.48934C16.9674 2.95247 17.4474 3.97088 17.6059 4.41769C17.7563 4.84209 17.6487 4.83206 18.6159 4.51181C19.2681 4.29591 20.6315 3.71658 20.6315 3.65536C20.6315 3.58369 19.6962 2.72695 19.26 2.39906C18.1005 1.52756 16.6377 0.791953 15.3447 0.429984L15.0031 0.334359L15.3375 0.692438ZM2.39203 4.79297C1.74234 5.67661 1.33303 6.39773 0.908813 7.40625C0.444281 8.51058 0.130125 9.85195 0.0332812 11.1445L0.0043125 11.5312H2.58356H5.16277V11.1422C5.16277 9.85912 5.43394 7.88738 5.82436 6.33169C5.92416 5.934 6.0007 5.60475 5.99442 5.59997C5.98819 5.59519 5.72995 5.51231 5.42058 5.41584C4.674 5.18302 4.14483 4.97391 3.38667 4.61203C3.04148 4.44731 2.75592 4.3125 2.75217 4.3125C2.74842 4.3125 2.58633 4.52869 2.39203 4.79297ZM20.9362 4.46395C20.3679 4.76081 19.5109 5.11341 18.78 5.35102C18.3675 5.48512 18.0248 5.59795 18.0186 5.60175C18.0123 5.60555 18.0889 5.934 18.1887 6.33169C18.5791 7.88738 18.8503 9.85912 18.8503 11.1422V11.5312H21.4295H24.0087L23.9797 11.1445C23.804 8.7983 23.0263 6.70425 21.621 4.79297C21.4267 4.52869 21.2564 4.31353 21.2426 4.31475C21.2288 4.31602 21.0909 4.38314 20.9362 4.46395ZM6.78436 6.06216C6.40453 7.3687 6.1028 9.27272 6.02723 10.8398L5.99391 11.5312H8.7893H11.5846V8.95875V6.3863L10.987 6.35545C9.67294 6.28772 8.55075 6.15178 7.44145 5.92594C7.13498 5.86355 6.87811 5.8125 6.87056 5.8125C6.86306 5.8125 6.82425 5.92486 6.78436 6.06216ZM16.7643 5.88539C15.7775 6.10744 14.3414 6.28861 13.0495 6.354L12.4284 6.38545V8.95837V11.5312H15.2237H18.0191L17.9858 10.8398C17.9229 9.53597 17.7104 8.02355 17.418 6.80044C17.2401 6.05588 17.1615 5.81203 17.1008 5.81728C17.0705 5.81995 16.919 5.85056 16.7643 5.88539ZM0.0292031 12.7613C0.180891 14.772 0.800766 16.6738 1.85128 18.3516C2.13989 18.8124 2.72386 19.5938 2.77978 19.5938C2.80237 19.5938 3.00502 19.5014 3.23011 19.3885C3.87478 19.0652 4.51945 18.8026 5.27742 18.5546C5.66278 18.4285 5.98458 18.3188 5.99259 18.3108C6.00061 18.3028 5.94394 18.0555 5.86673 17.7614C5.48433 16.3049 5.24939 14.7279 5.17256 13.1016L5.13933 12.3984L2.56969 12.3863L0 12.3742L0.0292031 12.7613ZM6.0067 12.6445C6.00727 13.4142 6.19683 15.1752 6.38559 16.1636C6.51009 16.8158 6.80461 18.0116 6.85402 18.0657C6.8767 18.0905 7.14994 18.0577 7.51598 17.9862C8.75269 17.7446 10.1733 17.5786 11.0066 17.5783C11.243 17.5782 11.4697 17.5653 11.5105 17.5497C11.5769 17.5242 11.5846 17.2512 11.5846 14.9481V12.375H8.79558H6.00652L6.0067 12.6445ZM12.4284 14.9481C12.4284 17.2512 12.4362 17.5242 12.5025 17.5497C12.5433 17.5653 12.7701 17.5782 13.0065 17.5783C13.8397 17.5786 15.2603 17.7446 16.497 17.9862C16.8631 18.0577 17.1363 18.0905 17.159 18.0657C17.2084 18.0116 17.5029 16.8158 17.6274 16.1636C17.8162 15.1752 18.0058 13.4142 18.0063 12.6445L18.0065 12.375H15.2175H12.4284V14.9481ZM18.8761 12.4336C18.8663 12.4658 18.8459 12.8006 18.8309 13.1776C18.771 14.681 18.5283 16.3064 18.1463 17.7614C18.0691 18.0555 18.0124 18.3028 18.0204 18.3108C18.0285 18.3188 18.3502 18.4285 18.7356 18.5546C19.4936 18.8026 20.1383 19.0652 20.7829 19.3885C21.008 19.5014 21.2107 19.5938 21.2333 19.5938C21.2892 19.5938 21.8731 18.8124 22.1617 18.3516C23.2122 16.6739 23.8322 14.7719 23.9838 12.7617L24.0129 12.375H21.4536C19.4469 12.375 18.8903 12.3877 18.8761 12.4336ZM10.2253 18.4734C9.27595 18.5477 7.23867 18.8616 7.15355 18.9467C7.11825 18.982 7.5472 20.0093 7.82198 20.5474C8.75752 22.3795 10.0107 23.5822 11.2917 23.8773L11.5846 23.9448V21.1833V18.4219L11.151 18.4284C10.9125 18.432 10.496 18.4523 10.2253 18.4734ZM12.4284 21.1833V23.9448L12.7214 23.8773C14.0024 23.5822 15.2555 22.3795 16.191 20.5474C16.4654 20.0102 16.8948 18.982 16.8596 18.9468C16.8155 18.9027 15.978 18.7484 15.1706 18.6356C14.2733 18.5102 13.2712 18.4219 12.7471 18.4219H12.4284V21.1833ZM5.51433 19.3788C4.52977 19.7041 3.38152 20.1964 3.38152 20.2932C3.38152 20.346 4.00509 20.9289 4.45472 21.2963C5.29087 21.9796 6.50667 22.6928 7.52995 23.1C7.97531 23.2772 8.8845 23.5781 8.97459 23.5781C8.99775 23.5781 8.84508 23.3968 8.63527 23.1751C7.64677 22.1309 6.79828 20.7119 6.36056 19.3711C6.31636 19.2358 6.27666 19.1264 6.2723 19.128C6.26789 19.1297 5.92683 19.2426 5.51433 19.3788ZM17.7017 19.2305C17.4811 19.8578 17.3982 20.0664 17.2095 20.4682C16.7445 21.4585 16.0827 22.4409 15.3972 23.1584C15.2004 23.3643 15.0494 23.5428 15.0615 23.555C15.0934 23.5869 15.9344 23.3182 16.4831 23.1008C17.4751 22.7078 18.6901 21.9967 19.5306 21.317C20.0023 20.9355 20.6315 20.3486 20.6315 20.2901C20.6315 20.1965 19.2675 19.6201 18.3855 19.3411C17.7967 19.1549 17.732 19.1444 17.7017 19.2305Z" fill="#E2DD96"/>
</g>
<defs>
<clipPath id="clip0_1075_1781">
<rect width="24" height="24" fill="white"/>
</clipPath>
</defs>
</svg>
