<svg width="24" height="24" viewBox="0 0 24 24" fill="none" xmlns="http://www.w3.org/2000/svg">
<path fill-rule="evenodd" clip-rule="evenodd" d="M10.9701 0.0508453C7.96048 0.343205 4.87798 1.8711 2.93834 4.03199C1.39151 5.75525 0.481995 7.70436 0.113229 10.0864C-0.0369112 11.0561 -0.0378956 12.9423 0.111214 13.8999C0.469854 16.2031 1.32598 18.0946 2.77053 19.7754C5.11695 22.5057 8.84707 24.1208 12.4951 23.9861C15.6257 23.8705 18.157 22.849 20.1762 20.8864C21.8949 19.2157 23.1364 16.9262 23.6974 14.3921C24.4683 10.9109 23.549 7.18677 21.1982 4.26711C20.503 3.40367 19.3801 2.41175 18.3964 1.79202C16.279 0.458049 13.4958 -0.194499 10.9701 0.0508453ZM11.6044 4.27264V7.74697L11.1943 7.71524C10.1941 7.63785 8.88982 7.35458 8.07134 7.037C7.50415 6.81688 6.91695 6.55442 6.91695 6.52105C6.91695 6.46269 7.27864 5.42047 7.4307 5.04055C7.67506 4.43014 8.20901 3.43222 8.54684 2.95461C9.15073 2.10078 10.0005 1.35439 10.7043 1.05955C10.9864 0.941423 11.4214 0.808017 11.5459 0.801455C11.5922 0.799017 11.6044 1.52281 11.6044 4.27264ZM13.0341 0.97447C14.6239 1.5388 16.0068 3.35924 16.8997 6.06303C16.9833 6.31602 17.0431 6.5316 17.0326 6.5421C17.0221 6.5526 16.8037 6.65394 16.5473 6.76728C15.3668 7.28914 14.1102 7.60236 12.7412 7.71589L12.3544 7.74795V4.27105V0.794095L12.5302 0.826064C12.6269 0.843595 12.8537 0.910392 13.0341 0.97447ZM8.73678 1.58661C7.76951 2.59438 6.98121 3.9628 6.4189 5.61031C6.32346 5.88992 6.2396 6.12613 6.23257 6.13527C6.20693 6.16831 5.39262 5.61116 4.97623 5.27572C4.74167 5.08677 4.39156 4.7825 4.1982 4.5996L3.84664 4.26702L4.26851 3.86417C5.43378 2.75141 6.89459 1.87761 8.45979 1.35725C8.83587 1.23219 9.15139 1.12916 9.16099 1.12822C9.1706 1.12724 8.97968 1.33353 8.73678 1.58661ZM15.6357 1.39456C17.133 1.90302 18.8797 2.99272 19.9013 4.05561L20.1123 4.27508L19.7607 4.60114C19.5673 4.78049 19.2404 5.06502 19.0341 5.23344C18.6484 5.54839 17.7521 6.16803 17.7279 6.13644C17.7204 6.12664 17.6234 5.855 17.5123 5.53274C16.958 3.92492 16.1684 2.56452 15.2203 1.58413L14.779 1.12766L15.0315 1.20144C15.1705 1.24199 15.4423 1.32889 15.6357 1.39456ZM3.7691 5.25711C4.36596 5.81722 5.06248 6.34728 5.77662 6.78505L6.0191 6.93369L5.95367 7.20585C5.66487 8.40725 5.41695 10.3127 5.41695 11.3312V11.6265H3.09664H0.776323V11.3945C0.776323 11.1114 0.892995 10.2018 0.988573 9.73949C1.27029 8.37706 1.86153 6.96106 2.62695 5.81539C2.95779 5.32016 3.29534 4.87649 3.34118 4.87649C3.35346 4.87649 3.54603 5.04777 3.7691 5.25711ZM20.815 5.09C21.5976 6.04503 22.3838 7.5846 22.7611 8.90071C22.9854 9.6831 23.1811 10.8574 23.1822 11.4273L23.1826 11.6265H20.8696H18.5566L18.5258 10.9351C18.4735 9.75997 18.3094 8.52889 18.0568 7.41514L17.9469 6.93036L18.2269 6.75889C18.9073 6.34236 19.9437 5.53306 20.3913 5.06867C20.4932 4.96297 20.5909 4.87649 20.6083 4.87649C20.6258 4.87649 20.7188 4.97258 20.815 5.09ZM7.13112 7.481C8.25926 7.99513 9.81631 8.38428 11.1123 8.47611L11.581 8.5093L11.5933 10.0679L11.6057 11.6265H8.88382H6.16193L6.19104 11.0991C6.22718 10.4452 6.34081 9.25981 6.40339 8.8843C6.52231 8.17081 6.70123 7.31399 6.73132 7.31399C6.74965 7.31399 6.92956 7.38913 7.13112 7.481ZM17.3859 7.95852C17.5968 9.04522 17.6962 9.86633 17.769 11.1226L17.7982 11.6265H15.0757H12.3532L12.3656 10.0679L12.3779 8.5093L12.8466 8.47611C13.5124 8.42891 14.1988 8.31481 14.9502 8.12633C15.5934 7.96494 16.6087 7.60874 16.9716 7.41711C17.0748 7.36269 17.182 7.31722 17.21 7.31605C17.2384 7.31488 17.316 7.59819 17.3859 7.95852ZM5.41695 12.6718C5.41695 13.6891 5.66496 15.5965 5.95301 16.7943L6.01779 17.0636L5.49504 17.4036C4.87784 17.8051 4.19332 18.3416 3.69921 18.8109L3.34376 19.1486L3.18246 18.9617C2.89385 18.6275 2.28673 17.6792 1.99526 17.1075C1.53673 16.2081 1.18549 15.2158 0.988573 14.2635C0.892995 13.8012 0.776323 12.8916 0.776323 12.6085V12.3765H3.09664H5.41695V12.6718ZM11.5933 13.9351L11.581 15.4937L11.0888 15.5285C9.83679 15.6169 8.39998 15.969 7.26851 16.4649C7.03648 16.5665 6.81349 16.66 6.77299 16.6726C6.71229 16.6915 6.67723 16.5816 6.57364 16.0477C6.36209 14.9577 6.26271 14.1378 6.18987 12.8804L6.16067 12.3765H8.88321H11.6057L11.5933 13.9351ZM17.769 12.8804C17.7254 13.6326 17.6535 14.4051 17.5782 14.9312C17.4807 15.6111 17.2662 16.689 17.2283 16.689C17.2104 16.689 17.0399 16.6175 16.8493 16.5301C15.6482 15.9794 14.237 15.6257 12.8466 15.527L12.3779 15.4937L12.3656 13.9351L12.3532 12.3765H15.0757H17.7982L17.769 12.8804ZM23.1822 12.5757C23.1805 13.4645 22.8521 14.9975 22.433 16.0728C22.0619 17.025 21.2972 18.3561 20.773 18.9624L20.6109 19.1499L20.3147 18.8651C19.7034 18.2772 18.7743 17.5593 18.1575 17.1982L17.9464 17.0747L18.0566 16.5889C18.3094 15.474 18.4735 14.2434 18.5258 13.0679L18.5566 12.3765H20.8696H23.1826L23.1822 12.5757ZM11.6044 19.7396V23.2121L11.4521 23.1816C9.63443 22.8181 8.10148 21.0113 7.09878 18.0506C6.99874 17.7553 6.91695 17.4993 6.91695 17.4818C6.91695 17.4355 7.96676 16.992 8.4499 16.8342C9.37428 16.5322 10.556 16.3086 11.4052 16.275L11.6044 16.2671V19.7396ZM13.6435 16.3899C14.256 16.4763 15.2225 16.7177 15.7743 16.922C16.303 17.1178 17.0419 17.4448 17.0419 17.4831C17.0419 17.4999 16.9602 17.7553 16.8601 18.0506C16.0746 20.37 14.9786 21.9707 13.6435 22.7484C13.3444 22.9225 12.8208 23.1241 12.5302 23.1769L12.3544 23.2089V19.7319V16.255L12.7412 16.2861C12.9539 16.3032 13.3599 16.3499 13.6435 16.3899ZM6.35074 18.2007C6.52296 18.7401 6.7661 19.3396 7.05907 19.9468C7.56537 20.9963 8.06365 21.7268 8.76162 22.4429L9.18434 22.8766L8.92953 22.8015C7.1112 22.266 5.54778 21.3662 4.21259 20.0866L3.84664 19.736L4.22164 19.3842C4.42789 19.1908 4.76089 18.9007 4.96165 18.7396C5.31176 18.4588 6.16235 17.8636 6.21631 17.8618C6.23056 17.8613 6.29107 18.0138 6.35074 18.2007ZM18.2448 18.1805C18.7909 18.5509 19.2646 18.9329 19.7607 19.403L20.1123 19.7361L19.6904 20.1388C18.4369 21.3358 16.911 22.2185 15.1741 22.7516L14.7828 22.8717L15.2012 22.4392C16.0882 21.5223 16.7844 20.3774 17.3581 18.8921C17.4627 18.6214 17.5858 18.2787 17.6318 18.1304C17.6777 17.9821 17.7284 17.8609 17.7445 17.8609C17.7605 17.8609 17.9857 18.0047 18.2448 18.1805Z" fill="#767676"/>
</svg>
