<svg width="545" height="352" viewBox="0 0 545 352" fill="none" xmlns="http://www.w3.org/2000/svg">
<path d="M432.7 135.1C426.6 135.1 420.6 135.7 414.8 136.9L387.5 46.4996C390.8 46.6996 394.5 46.6996 398.3 46.4996C417.1 45.3996 430.9 38.5996 438.3 26.6996C440.8 22.5996 439.6 17.2996 435.5 14.7996C431.4 12.2996 426.1 13.4996 423.6 17.5996C414.6 32.0996 387 29.9996 377.2 27.8996C374.2 27.2996 371.1 28.2996 369 30.4996C366.9 32.7996 366.2 35.8996 367.1 38.8996L385.7 100.5C360.5 91.2996 305.6 80.7996 213.9 108.1L201.5 84.8996C202.7 84.8996 204 84.8996 205.2 84.7996C209.7 84.5996 213.6 81.1996 213.9 76.6996C214.2 71.3996 210 67.1996 204.8 67.3996C198.9 67.6996 193 67.2996 187.3 65.6996C183.8 64.6996 180.5 63.2996 177.5 61.2996C175.9 60.1996 174.7 58.6996 173.1 57.4996C171.6 56.3996 169.7 55.7996 167.8 55.7996C163 55.7996 159.1 59.6996 159.1 64.4996C159.1 66.9996 160.1 69.0996 161.8 70.7996C162.5 71.4996 163.3 72.1996 164 72.8996C166.4 74.9996 169.1 76.6996 171.9 78.1996C174.5 79.5996 177.2 80.6996 180 81.5996L197.8 114.9L159.8 154.6C144.3 142.4 124.7 135 103.5 135C53.2999 135 12.3999 175.9 12.3999 226.1C12.3999 276.3 53.2999 317.2 103.5 317.2C150.8 317.2 189.8 281 194.1 234.8H231C234.2 247.7 244.4 257.9 257.3 261.1V273.8H251.4C246.6 273.8 242.7 277.7 242.7 282.5C242.7 287.3 246.6 291.2 251.4 291.2H282C286.8 291.2 290.7 287.3 290.7 282.5C290.7 277.7 286.8 273.8 282 273.8H275V261.1C290.5 257.2 302.1 243.3 302.4 226.6C302.6 224.7 304.8 202.7 317.2 179.5C333.4 149 359 130.6 393.1 124.8L398.2 141.9C365 155.5 341.6 188.2 341.6 226.2C341.6 276.4 382.5 317.3 432.7 317.3C482.9 317.3 523.8 276.4 523.8 226.2C523.8 176 482.9 135.1 432.7 135.1ZM231.3 217.5H194.4C192.6 198.2 184.6 180.6 172.6 166.6L206.6 131L242.8 198.8C237.2 203.6 233.1 210.1 231.3 217.5ZM160.5 179.2C169.3 189.9 175.2 203 176.9 217.5H123.9L160.5 179.2ZM103.7 299.9C62.9999 299.9 29.9999 266.8 29.9999 226.1C29.9999 185.4 63.0999 152.4 103.7 152.4C120.3 152.4 135.6 157.9 148 167.2L97.3999 220.1C94.9999 222.6 94.2999 226.3 95.6999 229.5C97.0999 232.7 100.2 234.8 103.7 234.8H176.9C172.6 271.4 141.4 299.9 103.7 299.9ZM274.9 242.7V228.2C274.9 223.4 271 219.5 266.2 219.5C261.4 219.5 257.5 223.4 257.5 228.2V242.7C251.5 239.6 247.4 233.3 247.4 226.1C247.4 215.8 255.8 207.4 266.1 207.4C276.4 207.4 284.8 215.8 284.8 226.1C285 233.3 280.9 239.6 274.9 242.7ZM301.9 171.4C296.6 181.3 293 191 290.4 199.4C284 193.6 275.5 190.1 266.3 190.1C263.5 190.1 260.8 190.4 258.2 191L222.2 123.6C258.4 113.1 305.9 103.8 349.3 109.6C356.7 110.6 363.1 111.9 368.5 113.3C333.1 125.7 312.9 150.6 301.9 171.4ZM432.7 299.9C392 299.9 359 266.8 359 226.2C359 196 377.3 170 403.3 158.6L424.4 228.7C425.5 232.4 429 234.9 432.7 234.9C433.5 234.9 434.4 234.8 435.2 234.5C439.8 233.1 442.4 228.3 441 223.7L419.9 153.6C424.1 152.9 428.4 152.5 432.8 152.5C473.5 152.5 506.5 185.6 506.5 226.2C506.5 266.8 473.4 299.9 432.7 299.9Z" fill="#9A9AA9"/>
<path d="M63.1998 220.999C63.7998 216.299 60.3998 211.899 55.6998 211.299C50.8998 210.699 46.5998 214.099 45.9998 218.799C41.9998 250.599 64.5998 279.799 96.3998 283.799C96.7998 283.799 97.0998 283.899 97.4998 283.899C101.8 283.899 105.5 280.699 106.1 276.299C106.7 271.599 103.3 267.199 98.5998 266.599C76.1998 263.799 60.3998 243.299 63.1998 220.999Z" fill="#9A9AA9"/>
<path d="M490.8 222.199C489.7 206.699 482.7 192.499 471 182.299C467.4 179.199 461.9 179.499 458.8 183.099C455.7 186.699 456 192.199 459.6 195.299C467.8 202.499 472.8 212.399 473.5 223.299C474.2 234.199 470.7 244.699 463.5 252.899C460.4 256.499 460.7 261.999 464.3 265.099C465.9 266.499 468 267.199 470 267.199C472.4 267.199 474.8 266.199 476.5 264.199C486.8 252.599 491.8 237.699 490.8 222.199Z" fill="#9A9AA9"/>
<path d="M67.0999 201.4C71.8999 201.4 75.7999 197.5 75.7999 192.7C75.7999 187.9 71.8999 184 67.0999 184C62.2999 184 58.3999 187.9 58.3999 192.7C58.3999 197.5 62.2999 201.4 67.0999 201.4Z" fill="#9A9AA9"/>
<path d="M453.966 277.213C455.805 272.774 453.697 267.684 449.258 265.845C444.818 264.007 439.729 266.115 437.89 270.554C436.051 274.993 438.159 280.082 442.599 281.921C447.038 283.76 452.127 281.652 453.966 277.213Z" fill="#9A9AA9"/>
</svg>
