<svg width="323" height="90" viewBox="0 0 323 90" fill="none" xmlns="http://www.w3.org/2000/svg">
<path d="M259.1 7.09941C259 7.09941 258.9 7.09941 258.9 7.09941C258.8 7.09941 258.6 6.99941 258.5 6.99941C258.5 6.99941 258.5 6.99941 258.4 6.99941C258.3 6.99941 258.1 6.89941 258 6.89941C258 6.89941 258 6.89941 257.9 6.89941C257.9 6.89941 257.8 6.89941 257.8 6.79941C257.5 6.69941 257.2 6.49941 256.9 6.29941C256.9 6.29941 256.9 6.29941 256.8 6.29941C256.8 6.29941 256.8 6.29941 256.7 6.29941C256.3 6.09941 255.9 5.89941 255.5 5.89941C255.4 5.89941 255.3 5.89941 255.2 5.89941C255 5.89941 254.8 5.99941 254.6 6.09941C254.4 6.19941 254.2 6.29941 254 6.49941C253.7 6.79941 253.4 7.09941 253.3 7.49941C253.3 7.49941 253.3 7.49941 253.3 7.59941C253.5 7.49941 253.7 7.49941 254 7.39941C254.2 7.39941 254.3 7.29941 254.5 7.29941C254.6 7.29941 254.6 7.29941 254.7 7.29941C254.7 7.29941 254.7 7.29941 254.8 7.29941C255.2 7.29941 255.6 7.39941 255.9 7.49941H256C256.1 7.49941 256.1 7.59941 256.2 7.59941C256.3 7.59941 256.3 7.69941 256.4 7.69941C256.3 7.69941 256.2 7.69941 256.1 7.69941C256 7.69941 255.9 7.69941 255.8 7.69941H255.7C255.6 7.69941 255.4 7.69941 255.3 7.69941C255 7.69941 254.7 7.69941 254.5 7.79941C254.4 7.79941 254.3 7.79941 254.2 7.89941C254.1 7.89941 253.9 7.99941 253.8 8.09941C253.7 8.09941 253.6 8.19941 253.6 8.19941C253.5 8.19941 253.5 8.29941 253.4 8.29941L253.3 8.39941C253.3 8.39941 253.3 8.39941 253.2 8.39941C253.2 8.29941 253.2 8.29941 253.1 8.19941C253.1 8.09941 253.1 7.99941 253 7.99941C253 7.99941 253 7.99941 253 7.89941V7.79941C253 7.79941 253 7.79941 253 7.69941C252.9 7.39941 252.9 6.99941 252.9 6.59941V6.49941V6.39941C252.9 6.19941 252.9 5.89941 253 5.69941C253 5.49941 253.1 5.29941 253.1 5.09941C252.9 4.99941 252.7 4.89941 252.5 4.89941C252.4 4.89941 252.2 4.89941 252.1 4.99941C251.8 5.09941 251.6 5.39941 251.6 5.69941V5.79941C251.6 5.99941 251.6 6.19941 251.6 6.39941C251.6 6.69941 251.7 7.09941 251.8 7.39941C251.8 7.49941 251.8 7.49941 251.8 7.59941C251.8 7.69941 251.9 7.79941 251.9 7.89941C251.9 7.99941 252 8.09941 252 8.09941C252 8.09941 252 8.09941 252 8.19941C252 8.19941 252 8.19941 252 8.29941C252 8.39941 252.1 8.49941 252.1 8.49941C252.2 8.59941 252.2 8.79941 252.3 8.89941C252.3 8.89941 252.3 8.99941 252.4 8.99941C252.4 9.09941 252.5 9.09941 252.5 9.19941C252.6 9.29941 252.6 9.39941 252.7 9.49941C252.7 9.49941 252.7 9.59941 252.8 9.59941C252.9 9.69941 253 9.79941 253 9.89941L253.1 9.99941C253.1 9.99941 253.1 10.0994 253.2 10.0994C253.6 10.5994 253.7 11.2994 253.6 11.8994C253.5 12.6994 252.9 13.2994 252.2 13.5994H252.1H252C251.9 13.5994 251.9 13.5994 251.8 13.6994C251.8 13.6994 251.8 13.6994 251.7 13.6994C251.2 13.8994 250.8 14.1994 250.4 14.4994C250.3 14.5994 250.2 14.5994 250.2 14.6994C250.2 14.6994 250.1 14.6994 250.1 14.7994C250 14.8994 249.9 14.9994 249.9 14.9994L249.8 15.0994C249.7 14.8994 249.6 14.6994 249.5 14.5994C249.4 14.3994 249.3 14.2994 249.2 14.0994C249 13.6994 248.9 13.1994 248.9 12.6994V12.5994C248.9 12.2994 248.9 11.9994 249 11.7994C249.1 11.3994 249.2 11.0994 249.4 10.6994C249.5 10.4994 249.7 10.1994 249.9 9.99941C250 9.89941 250.1 9.69941 250.3 9.59941C250.5 9.49941 250.8 9.39941 251.1 9.39941C251.2 9.39941 251.3 9.39941 251.3 9.39941H251.4C251.3 9.49941 251.2 9.69941 251.1 9.79941C251 9.89941 251 9.89941 251 9.99941C250.6 10.4994 250.3 11.1994 250.1 11.7994C250.1 11.8994 250.1 11.9994 250.1 11.9994C250.1 12.0994 250.1 12.0994 250.1 12.1994C250.1 12.2994 250.1 12.3994 250.1 12.3994C250.1 12.4994 250.1 12.5994 250.1 12.7994V12.8994V12.9994C250.1 12.9994 250.1 12.9994 250.1 13.0994V13.1994C250.1 13.2994 250.1 13.2994 250.1 13.3994V13.2994C250.1 13.1994 250.1 13.1994 250.1 13.0994C250.1 12.8994 250.1 12.7994 250.2 12.5994C250.2 12.5994 250.2 12.5994 250.2 12.4994V12.3994C250.2 12.2994 250.2 12.2994 250.3 12.1994C250.3 12.0994 250.3 12.0994 250.4 11.9994C250.5 11.8994 250.5 11.6994 250.6 11.5994C250.7 11.3994 250.8 11.2994 250.9 11.0994C250.9 11.0994 250.9 10.9994 251 10.9994C251.2 10.7994 251.3 10.4994 251.5 10.2994C251.6 10.0994 251.8 9.99941 251.9 9.89941C252 9.79941 252 9.79941 252.1 9.69941C252.2 9.59941 252.3 9.59941 252.4 9.49941C252.4 9.39941 252.3 9.39941 252.3 9.29941C252.3 9.29941 252.3 9.29941 252.3 9.19941C252.3 9.19941 252.3 9.19941 252.3 9.09941L252.2 8.99941C252.1 8.89941 252.1 8.89941 252 8.79941C252 8.79941 252 8.79941 251.9 8.69941C251.9 8.69941 251.8 8.69941 251.8 8.59941C251.7 8.59941 251.7 8.49941 251.6 8.49941C251.5 8.39941 251.4 8.39941 251.3 8.29941H251.2C251.1 8.29941 251 8.19941 250.9 8.19941C250.8 8.19941 250.7 8.19941 250.6 8.19941C250.5 8.19941 250.4 8.19941 250.3 8.19941C250.1 8.19941 249.9 8.29941 249.7 8.39941C249.4 8.49941 249.1 8.69941 248.8 8.99941C248.7 9.09941 248.6 9.19941 248.5 9.29941C247.4 10.3994 246.8 11.8994 246.8 13.5994V13.6994V13.7994C246.8 15.4994 247.5 17.0994 248.6 18.1994L248.7 18.2994C249.8 19.3994 251.3 19.9994 252.9 19.9994C253.2 19.9994 253.5 19.9994 253.8 19.8994C254.3 19.7994 254.8 19.6994 255.3 19.4994C255.4 19.4994 255.5 19.3994 255.6 19.3994C256.9 18.7994 257.9 17.6994 258.5 16.3994C258.8 15.7994 258.9 15.1994 259 14.5994V14.4994C259 14.2994 259 13.9994 259 13.7994V13.6994V13.5994C259 13.3994 259 13.1994 259 12.9994C259 12.8994 259 12.8994 259 12.7994C259 12.6994 259 12.5994 258.9 12.3994C258.9 12.2994 258.9 12.2994 258.9 12.1994C258.9 11.9994 258.8 11.7994 258.7 11.5994C258.7 11.4994 258.7 11.4994 258.6 11.3994C258.4 10.7994 258.1 10.2994 257.7 9.89941C258 9.79941 258.3 9.69941 258.5 9.59941C258.6 9.49941 258.7 9.39941 258.8 9.29941C258.9 9.19941 259 9.09941 259.1 8.89941C259.1 8.79941 259.2 8.79941 259.2 8.69941C259.3 8.59941 259.3 8.39941 259.4 8.29941C259.5 8.09941 259.5 7.89941 259.5 7.59941C259.1 7.39941 259.1 7.29941 259.1 7.09941Z" fill="#9A9AA9"/>
<path d="M64.0001 27.3994C62.4001 27.3994 60.9001 27.6994 59.8001 28.2994C59.7001 28.3994 59.6001 28.3994 59.4001 28.4994C58.7001 28.8994 57.9001 29.4994 57.0001 30.2994C56.5001 30.8994 55.7001 30.5994 55.7001 29.9994C55.7001 28.7994 54.6001 28.3994 53.3001 28.3994H49.8001C48.5001 28.3994 47.4001 29.4994 47.4001 30.7994V61.6994C47.4001 62.9994 48.5001 64.0994 49.8001 64.0994H53.3001C54.6001 64.0994 55.7001 62.9994 55.7001 61.6994V45.5994C55.7001 38.7994 57.9001 35.3994 62.4001 35.3994C63.9001 35.3994 64.9001 35.8994 64.9001 35.8994C66.2001 36.3994 67.5001 36.0994 68.0001 34.8994L70.7001 29.4994C68.4001 28.0994 66.2001 27.3994 64.0001 27.3994Z" fill="#9A9AA9"/>
<path d="M238.2 27.3994C236.6 27.3994 235.1 27.6994 234 28.2994C233.9 28.3994 233.8 28.3994 233.6 28.4994C232.9 28.8994 232.1 29.4994 231.2 30.2994C230.7 30.8994 229.9 30.5994 229.9 29.9994C229.9 28.7994 228.8 28.3994 227.5 28.3994H224C222.7 28.3994 221.6 29.4994 221.6 30.7994V61.6994C221.6 62.9994 222.7 64.0994 224 64.0994H227.5C228.8 64.0994 229.9 62.9994 229.9 61.6994V45.5994C229.9 38.7994 232.1 35.3994 236.6 35.3994C238.1 35.3994 239.1 35.8994 239.1 35.8994C240.4 36.3994 241.7 36.0994 242.2 34.8994L244.9 29.4994C242.6 28.0994 240.4 27.3994 238.2 27.3994Z" fill="#9A9AA9"/>
<path d="M103.6 28.4H100.1C98.8 28.4 97.7 29.5 97.7 30.8V32.6C94.4 29.2 90.7 27.5 86.5 27.5C81.7 27.5 77.7 29.3 74.5 32.8C71.3 36.4 69.7 40.8 69.7 46.2C69.7 51.6 71.3 56.2 74.5 59.8C77.7 63.4 81.8 65.1 86.7 65.1C90.2 65.1 93.5 63.8 96.6 61.3C97.2 61.2 97.7 61.5 97.7 62.2C97.7 63.2 98.8 64.1 100.1 64.1H103.6C104.9 64.1 106 63 106 61.7V30.8C106 29.5 104.9 28.4 103.6 28.4ZM80.9 54.5C79.1 52.4 78.2 49.6 78.2 46.2C78.2 43 79.1 40.3 81 38.1C82.9 36 85.3 34.9 88.1 34.9C91.1 34.9 93.5 36 95.4 38.1C97.3 40.3 98.2 43 98.2 46.4C98.2 49.7 97.3 52.5 95.4 54.7C93.5 56.8 91.1 57.8 88 57.8C85.1 57.7 82.8 56.6 80.9 54.5Z" fill="#9A9AA9"/>
<path d="M43.3 38.7998C42.5 36.4998 41.7001 34.5998 40.2001 32.8998C38.7001 31.1998 36.8001 29.8998 34.7001 28.8998C32.6001 27.8998 30.3001 27.4998 27.7001 27.4998C26.1001 27.4998 24.9 27.6998 23.6 28.0998C22.3 28.4998 21.2 28.8998 20.2 29.4998C19.2 29.9998 18.4 30.5998 17.7 31.2998C17 31.8998 17 31.8998 17 31.8998C16.4 32.5998 15.8 33.5998 15.8 33.4998C15.8 26.9998 15.8 7.0998 15.8 7.0998C15.8 5.7998 14.7 4.7998 13.5 4.7998H9.60005C8.30005 4.7998 7.30005 5.8998 7.30005 7.0998V61.7998C7.30005 63.0998 8.40005 64.0998 9.60005 64.0998H13.6C14.9 64.0998 15.9 63.2998 15.9 62.2998C15.9 61.6998 16.2 61.2998 16.8 61.3998H16.9C17 61.3998 17.1 61.4998 17.1 61.4998C20.1 63.9998 23.3 65.1998 26.8 65.1998C26.8 65.1998 27 65.1998 27.1 65.1998C29.8 65.1998 32.2001 64.6998 34.4001 63.6998C36.5001 62.6998 38.4001 61.2998 39.9001 59.5998C41.4001 57.8998 42.6001 55.8998 43.4001 53.5998C44.2001 51.2998 44.6 48.7998 44.6 46.1998C44.6 43.4998 44.2 40.9998 43.3 38.7998ZM16.2 42.0998C16.7 40.6998 17.4 39.4998 18.3 38.3998C19.2 37.2998 20.3 36.3998 21.6 35.6998C22.9 34.9998 24.3 34.6998 26 34.6998C27.7 34.6998 29.2 34.9998 30.5 35.6998C31.8 36.3998 32.8001 37.1998 33.7001 38.2998C34.5001 39.3998 35.2 40.5998 35.6 41.9998C36 43.3998 36.2001 44.6998 36.2001 46.0998C36.2001 47.4998 36 48.8998 35.6 50.1998C35.2 51.5998 34.6001 52.7998 33.7001 53.8998C32.9001 54.9998 31.8 55.8998 30.5 56.5998C29.2 57.2998 27.7 57.5998 26 57.5998C24.4 57.5998 22.9 57.2998 21.6 56.5998C20.3 55.8998 19.2 55.0998 18.3 53.9998C17.4 52.8998 16.7 51.6998 16.2 50.2998C15.7 48.8998 15.5 47.5998 15.5 46.1998C15.5 44.8998 15.8 43.4998 16.2 42.0998Z" fill="#9A9AA9"/>
<path d="M137.2 31.2994C134.9 28.6994 131.6 27.3994 127.5 27.3994C127.4 27.3994 127.3 27.3994 127.2 27.3994C124.1 27.4994 121.3 28.5994 118.8 30.7994C118.4 31.0994 117.8 30.7994 117.8 30.0994C117.8 28.9994 116.7 28.4994 115.4 28.4994H111.9C110.6 28.4994 109.5 29.5994 109.5 30.8994V61.7994C109.5 63.0994 110.6 64.1994 111.9 64.1994H115.4C116.7 64.1994 117.8 63.0994 117.8 61.7994V46.9994C117.8 42.5994 118.4 39.3994 119.5 37.6994C120.6 35.8994 122.6 34.9994 125.3 34.9994C127.8 34.9994 129.5 35.6994 130.5 36.9994L130.6 37.0994C131.5 38.4994 131.8 41.8994 131.8 41.8994C131.9 43.1994 132 45.2994 132 46.5994V61.7994C132 63.0994 133.1 64.1994 134.4 64.1994H137.9C139.2 64.1994 140.3 63.0994 140.3 61.7994V42.2994C140.2 37.1994 139.2 33.5994 137.2 31.2994Z" fill="#9A9AA9"/>
<path d="M179.9 49.7998V32.0998V30.5998C179.9 29.3998 178.9 28.3998 177.7 28.3998H174C172.8 28.3998 171.8 29.1998 171.8 30.0998C171.8 30.5998 171.6 30.8998 171.2 30.8998C171 30.8998 170.9 30.7998 170.8 30.6998C170.7 30.6998 170.7 30.5998 170.6 30.5998C167.9 28.1998 164.7 27.2998 160.8 27.2998C155.7 27.2998 151 29.5998 148 33.3998C145.1 36.9998 143.7 41.2998 143.7 46.4998C143.7 51.7998 145.2 56.1998 148.3 59.6998C151.4 63.1998 156.4 64.8998 161.2 64.9998C161.4 64.9998 161.5 64.9998 161.7 64.9998C165.9 64.8998 169.4 62.9998 171.5 59.9998C171.7 59.8998 171.8 59.8998 171.8 59.8998C171.8 60.0998 171.8 60.7998 171.8 61.3998C171.8 61.4998 171.8 61.6998 171.8 61.7998V62.4998V62.9998C171.8 63.2998 171.8 64.4998 171.7 65.6998C171.7 65.6998 171.7 65.9998 171.6 66.3998C171.6 66.6998 171.5 66.8998 171.5 67.1998C171.5 67.2998 171.5 67.2998 171.5 67.3998C171.4 67.7998 171.4 68.0998 171.3 68.4998C171 69.9998 170.4 71.2998 169.6 72.3998C168.8 73.4998 167.7 74.3998 166.4 74.9998C165.1 75.5998 163.4 75.9998 161.5 75.9998C159.5 75.9998 157.4 75.6998 155.4 74.7998C153.4 73.9998 151.7 72.5998 151.7 72.5998C150.8 71.7998 149.5 71.9998 148.8 72.9998L146.7 76.2998C146 77.2998 146.3 78.6998 147.2 79.4998C147.2 79.4998 147.7 79.8998 149 80.5998C150.3 81.2998 151.7 81.8998 153.1 82.3998C154.5 82.8998 156 83.1998 157.5 83.3998C159 83.5998 160.4 83.6998 161.7 83.6998C164.9 83.5998 167.5 82.9998 169.8 81.9998C172.1 80.9998 174 79.5998 175.5 77.7998C177 75.9998 178.1 73.7998 178.9 71.1998C178.9 70.9998 179 70.8998 179 70.6998C179.5 68.7998 179.8 66.7998 179.9 64.5998C179.9 64.3998 179.9 64.0998 179.9 63.8998C179.9 63.7998 179.9 63.7998 179.9 63.6998C179.9 63.6998 179.9 63.6998 179.9 63.1998C179.9 62.9998 179.9 62.7998 179.9 62.5998V60.3998V56.4998V54.2998V52.9998C179.9 52.2998 179.9 50.9998 179.9 49.7998ZM169.9 54.1998C168.1 56.4998 164.9 57.8998 161.8 57.8998C158.7 57.8998 156 56.2998 154.3 53.9998C152.7 51.9998 151.6 49.2998 151.6 46.0998C151.6 42.8998 152.7 40.1998 154.3 38.1998C156.1 35.8998 158.9 34.6998 161.9 34.6998C164.8 34.6998 167.7 35.6998 169.6 37.7998C171.4 39.7998 172.6 42.5998 172.6 45.9998C172.6 49.2998 171.6 52.0998 169.9 54.1998Z" fill="#9A9AA9"/>
<path d="M276.3 31.2994C274 28.6994 270.7 27.3994 266.6 27.3994C266.5 27.3994 266.4 27.3994 266.3 27.3994C263.2 27.4994 260.4 28.5994 257.9 30.7994C257.5 31.0994 256.9 30.7994 256.9 30.0994C256.9 28.9994 255.8 28.4994 254.5 28.4994H250.3C249 28.4994 247.9 29.5994 247.9 30.8994V61.7994C247.9 63.0994 249 64.1994 250.3 64.1994H254.5C255.8 64.1994 256.9 63.0994 256.9 61.7994V46.9994C256.9 42.5994 257.5 39.3994 258.6 37.6994C259.7 35.8994 261.7 34.9994 264.4 34.9994C266.9 34.9994 268.6 35.6994 269.6 36.9994L269.7 37.0994C270.6 38.4994 270.9 41.8994 270.9 41.8994C271 43.1994 271.1 45.2994 271.1 46.5994V61.7994C271.1 63.0994 272.2 64.1994 273.5 64.1994H277C278.3 64.1994 279.4 63.0994 279.4 61.7994V42.2994C279.3 37.1994 278.3 33.5994 276.3 31.2994Z" fill="#9A9AA9"/>
<path d="M314.2 60.5002C314.5 60.2002 314.7 60.0002 315 59.7002C314.8 59.9002 314.5 60.2002 314.2 60.5002Z" fill="#9A9AA9"/>
<path d="M316.7 39.8C316.6 39.4 316.3 38.6 316.3 38.6C316.2 38.2 316.1 37.9 315.9 37.5C315 35.2 313.7 33.3 312.1 31.8C310.5 30.3 308.7 29.2 306.6 28.5C306.1 28.3 305.5 28.2 305 28C303.4 27.6 301.7 27.5 299.8 27.5C297.2 27.6 294.8 28.2 292.6 29.1C292.3 29.2 292.1 29.4 291.8 29.5C289.9 30.4 288.3 31.6 286.9 33.1C285.4 34.7 284.3 36.5 283.4 38.6C283.3 38.8 283.3 38.9 283.2 39.1C283 39.6 282.9 40 282.8 40.5C282.3 42.5 282 44.6 282.1 46.8C282.2 49.3 282.7 51.4 283.4 53.4C283.5 53.7 283.6 54 283.7 54.3C283.8 54.5 283.9 54.7 284 55C284.9 57 286.1 58.6 287.6 60C288.9 61.2 290.2 62.1 291.8 62.9C292.3 63.2 292.8 63.4 293.4 63.6C293.7 63.7 294 63.8 294.3 63.9C296.3 64.6 298.5 64.9 300.9 65C306.4 65.1 310.8 63.6 314.1 60.4C314.4 60.1 314.5 59.9 314.5 59.9C315.1 59 315.1 57.8 314.2 56.9L311.6 54.7C310.8 54.1 309.6 54.3 308.9 55C308.1 55.8 307.4 56.2 306.4 56.8C305.9 57.1 305.3 57.3 304.8 57.4C303.6 57.7 302.3 57.9 300.9 57.9C299.6 57.9 298.4 57.6 297.3 57.2C296.1 56.7 295.1 56.1 294.2 55.3C293.3 54.5 292.5 53.5 292 52.5C291.8 52.2 291.7 51.7 291.5 51.4C291.4 51.2 291.3 50.5 291.4 50.4C291.6 49.6 292.3 49 293.2 48.9L315.2 48C316.5 47.9 317.5 46.9 317.4 45.6C317.4 43.5 317.1 41.5 316.7 39.8ZM306.3 42.1L290.7 42.7C290.7 42.5 290.7 42.4 290.7 42.2C290.9 39.9 291.8 38 293.4 36.5C295.1 34.9 297.3 34 299.9 33.9C300.8 33.9 301.6 33.9 302.3 34.1C302.7 34.2 303.2 34.3 303.6 34.5C304 34.7 304.4 34.8 304.7 35C305.1 35.2 305.5 35.5 305.8 35.8C305.9 35.9 306.1 36 306.2 36.2C306.3 36.4 306.5 36.5 306.6 36.7C307.1 37.3 307.5 38 307.8 38.8C307.9 39.2 308 39.6 308.1 40V40.3C308.2 41.3 307.4 42.1 306.3 42.1Z" fill="#9A9AA9"/>
<path d="M215.2 60.5002C215.5 60.2002 215.7 60.0002 216 59.7002C215.7 59.9002 215.5 60.2002 215.2 60.5002Z" fill="#9A9AA9"/>
<path d="M217.6 39.8C217.5 39.4 217.2 38.6 217.2 38.6C217.1 38.2 217 37.9 216.8 37.5C215.9 35.2 214.6 33.3 213 31.8C211.4 30.3 209.6 29.2 207.5 28.5C207 28.3 206.4 28.2 205.9 28C204.3 27.6 202.6 27.5 200.7 27.5C198.1 27.6 195.7 28.2 193.5 29.1C193.2 29.2 193 29.4 192.7 29.5C190.8 30.4 189.2 31.6 187.8 33.1C186.3 34.7 185.2 36.5 184.3 38.6C184.2 38.8 184.2 38.9 184.1 39.1C183.9 39.6 183.8 40 183.7 40.5C183.2 42.5 182.9 44.6 183 46.8C183.1 49.3 183.6 51.4 184.3 53.4C184.4 53.7 184.5 54 184.6 54.3C184.7 54.5 184.8 54.7 184.9 55C185.8 57 187 58.6 188.5 60C189.8 61.2 191.1 62.1 192.7 62.9C193.2 63.2 193.7 63.4 194.3 63.6C194.6 63.7 194.9 63.8 195.2 63.9C197.2 64.6 199.4 64.9 201.8 65C207.3 65.1 211.7 63.6 215 60.4C215.3 60.1 215.4 59.9 215.4 59.9C216 59 216 57.8 215.1 56.9L212.5 54.7C211.7 54.1 210.5 54.3 209.8 55C209 55.8 208.3 56.2 207.3 56.8C206.8 57.1 206.2 57.3 205.7 57.4C204.5 57.7 203.2 57.9 201.8 57.9C200.5 57.9 199.3 57.6 198.2 57.2C197 56.7 196 56.1 195.1 55.3C194.2 54.5 193.4 53.5 192.9 52.5C192.7 52.2 192.6 51.7 192.4 51.4C192.3 51.2 192.2 50.5 192.3 50.4C192.5 49.6 193.2 49 194.1 48.9L216.1 48C217.4 47.9 218.4 46.9 218.3 45.6C218.4 43.5 218.1 41.5 217.6 39.8ZM207.3 42.1L191.7 42.7C191.7 42.5 191.7 42.4 191.7 42.2C191.9 39.9 192.8 38 194.4 36.5C196.1 34.9 198.3 34 200.9 33.9C201.8 33.9 202.6 33.9 203.3 34.1C203.7 34.2 204.2 34.3 204.6 34.5C205 34.7 205.4 34.8 205.7 35C206.1 35.2 206.5 35.5 206.8 35.8C206.9 35.9 207.1 36 207.2 36.2C207.3 36.4 207.5 36.5 207.6 36.7C208.1 37.3 208.5 38 208.8 38.8C208.9 39.2 209 39.6 209.1 40V40.3C209.2 41.3 208.4 42.1 207.3 42.1Z" fill="#9A9AA9"/>
</svg>
