<svg width="285" height="71" viewBox="0 0 285 71" fill="none" xmlns="http://www.w3.org/2000/svg">
<path d="M36.5 31.0002C35.1 22.3002 31.3 18.8002 22.9 18.3002C12.5 17.7002 6 23.5002 6 33.5002C6 38.4002 8.2 42.6002 12.2 45.3002C16.3 48.0002 23.9 48.1002 27.4 45.6002C30.2 43.5002 30.8 43.9002 30 46.9002C29.1 50.2002 27.5 52.4002 25.4 53.3002C23 54.4002 14.4 54.4002 12.3 53.3002C10.4 52.3002 10.2 52.4002 9.6 55.5002C9.2 57.7002 9.4 58.0002 11.8 58.8002C15.7 60.1002 24.7 60.0002 27.8 58.7002C31.3 57.2002 34 54.6002 35.4 51.4002C36.9 47.5002 37.5 37.0002 36.5 31.0002ZM25.9 41.0002C17.2 45.5002 9 35.7002 14.5 27.3002C16.6 24.0002 21.6 22.8002 25.5 24.6002C31.3 27.3002 31.6 38.1002 25.9 41.0002Z" fill="#9A9AA9"/>
<path d="M145.8 31.9002C144.6 23.3002 139 18.2002 130.8 18.2002C125.4 18.2002 121.6 19.6002 118.8 22.7002C115.2 26.7002 114.8 28.5002 114.8 44.5002V59.6002L117.8 59.4002L120.8 59.2002L121.2 51.7002C121.6 44.7002 121.7 44.3002 122.9 45.6002C125.3 48.0002 130.8 49.0002 135.1 47.8002C141.6 46.0002 146.7 38.4002 145.8 31.9002ZM135.1 41.2002C126.8 45.5002 118.6 37.9002 122 29.0002C122.9 26.6002 127.2 23.8002 129.9 23.8002C134.5 23.8002 138.9 28.3002 138.9 33.0002C138.8 35.9002 136.8 40.3002 135.1 41.2002Z" fill="#9A9AA9"/>
<path d="M97.6 36.3002C107.2 35.6002 110.5 33.7002 111.2 28.5002C112 22.7002 106.9 18.2002 99.5 18.2002C89.7 18.2002 83.5 24.1002 83.5 33.4002C83.5 40.3002 87 45.2002 93.5 47.6002C97.8 49.2002 109.9 47.3002 109.9 45.0002C109.9 44.5002 109.4 43.4002 108.8 42.6002C107.9 41.3002 107.4 41.2002 105.1 42.0002C100.9 43.4002 96.8 43.1002 93.8 41.1002C89.1 37.9002 89.8 36.9002 97.6 36.3002ZM90.3 30.5002C90.6 29.8002 90.8 28.9002 90.8 28.6002C90.8 28.3002 91.9 26.8002 93.3 25.5002C96.1 22.7002 100.4 22.2002 103.5 24.3002C105.9 26.0002 105.6 29.4002 102.8 30.8002C101.7 31.4002 98.3 31.8002 95.3 31.8002C90.7 31.8002 89.9 31.6002 90.3 30.5002Z" fill="#9A9AA9"/>
<path d="M178.8 26.1C174.2 17 159.8 15.3 152.7 23.1C148.7 27.4 148 35.5 151.2 41C153.4 44.7 155.6 46.5 159.7 47.7C172.8 51.7 184.9 38.1 178.8 26.1ZM170 40.7C167.8 42.3 163.9 43.2 162 42.5C159.5 41.5 156.4 37.9 155.9 35.3C154.1 25.9 164.7 20 171.4 26.7C174.7 29.9 173.8 37.9 170 40.7Z" fill="#9A9AA9"/>
<path d="M250.1 41.8002C246.2 42.8002 242 43.2002 240 42.7002C238.1 42.2002 234.1 38.7002 234.1 37.4002C234.1 37.1002 237.1 36.6002 240.8 36.4002C251.7 35.6002 254.9 33.6002 254.9 27.2002C254.9 21.5002 250.3 18.2002 242.3 18.2002C236.8 18.2002 231.9 20.8002 229.2 25.2002C226.5 29.5002 226.6 37.9002 229.3 41.6002C231.7 44.9002 233.7 46.4002 237.3 47.6002C241 48.8002 243.8 48.9002 248.4 47.7002C253.6 46.4002 254.3 45.8002 253.2 43.3002C252.3 41.6002 251.7 41.3002 250.1 41.8002ZM236.7 25.7002C238.9 23.5002 240.1 23.0002 242.6 23.0002C248.1 23.0002 250.5 28.5002 246 30.8002C244.9 31.4002 241.8 31.8002 239 31.8002C234.5 31.8002 234 31.7002 234 30.1002C234 29.2002 235.2 27.2002 236.7 25.7002Z" fill="#9A9AA9"/>
<path d="M42 33.8004C42 18.8004 42 18.9004 46.5 18.9004H48.4V33.3004V47.7004H45.2H42V33.8004Z" fill="#9A9AA9"/>
<path d="M58.0001 36.2C54.9001 29.8 52.2001 23.4 52.2001 22C52.1001 19.6 52.3001 19.4 54.9001 19.2L57.7001 19L62.4001 30L67.1001 41L69.7001 35.5C71.1001 32.5 73.4001 27.5 74.7001 24.6C76.9001 19.6 77.3001 19.2 79.6001 19.2C84.2001 19.2 84.1001 19.6 75.3001 37.8L70.4001 48H67.0001H63.6001L58.0001 36.2Z" fill="#9A9AA9"/>
<path d="M189.3 46.0002C180.9 24.8002 180 21.7002 181.3 20.1002C181.8 19.5002 183.2 19.0002 184.4 19.0002C186.5 19.0002 186.7 19.4002 189.9 29.4002C191.7 35.1002 193.4 39.8002 193.5 39.8002C193.6 39.8002 194.7 36.7002 195.9 32.8002C200.3 18.8002 200.2 19.0002 203.2 19.0002C206.4 19.0002 206.3 18.9002 210 30.8002C211.4 35.3002 212.8 39.0002 213.2 39.0002C213.6 39.0002 214.8 35.9002 216 32.0002C219.5 20.3002 220.3 19.0002 223.3 19.0002C224.7 19.0002 226.1 19.3002 226.4 19.7002C226.9 20.5002 223.8 29.5002 219.3 40.6002L216.6 47.4002L213.1 47.6002L209.6 47.8002L206.4 38.1002C204.2 31.3002 203.1 28.8002 202.7 29.9002C202.4 30.7002 201 35.0002 199.6 39.6002L197.1 47.8002H193.6C190.6 47.8002 189.8 47.4002 189.3 46.0002Z" fill="#9A9AA9"/>
<path d="M258 37.6002C258 21.9002 260.5 18.2002 271 18.2002C275.7 18.2002 278.8 19.8002 278.8 22.1002C278.8 24.1002 277 25.4002 275.6 24.5002C273.1 22.9002 267.4 24.0002 265.8 26.5002C265.5 27.0002 265.2 32.0002 265.2 37.6002V47.8002H261.6H258V37.6002Z" fill="#9A9AA9"/>
<path d="M42.4998 12.1002C40.0998 9.7002 41.6998 6.2002 45.0998 6.2002C47.6998 6.2002 49.1998 7.5002 49.1998 9.8002C49.1998 13.2002 44.9998 14.6002 42.4998 12.1002Z" fill="#9A9AA9"/>
</svg>
