<svg width="144" height="171" viewBox="0 0 144 171" fill="none" xmlns="http://www.w3.org/2000/svg">
<path d="M58.6 162.601C51.7 160.801 46.2 157.701 41.1 152.701C33.6 145.301 34.5 143.401 44.6 145.601C63.1 149.501 74.8001 149.501 94.4001 145.501C98.9001 144.601 102.8 144.001 103.1 144.301C105.3 146.501 96.9 156.001 89.7 159.701C81.4 164.001 68.5 165.201 58.6 162.601Z" fill="#9A9AA9"/>
<path d="M59 137.6C43.4 133.9 33.4 128.6 24.2 119.2C16.8 111.7 13 105.6 8.3 94.2004C6.3 89.4004 5 80.5004 5 72.1004C5 52.6004 11.4 37.5004 25.2 24.4004C38.7 11.5004 55 5.70037 74.6 6.80037C100.1 8.10037 123.7 25.3004 132.5 48.8004C136.1 58.3004 136.5 61.0004 136.5 72.5004C136.5 84.8004 135.4 90.1004 131.3 99.2004C125.7 111.5 121.4 115.5 115.8 113.7C109.9 111.7 109.1 106.5 113.8 99.1004C119.8 89.6004 122.8 76.3004 121.1 66.5004C117.8 46.4004 105.6 31.1004 87.9 24.9004C77.8 21.3004 63.9 21.2004 54.6 24.5004C21.2 36.4004 9.5 77.7004 32 104.6C39.3 113.4 52.8 121.6 58.3 120.6C63.3 119.7 63.5 118.6 63.5 90.3004C63.5 65.9004 63.5 65.2004 65.2 63.4004C68 60.4004 70.5 59.9004 73.8 61.5004C75.4 62.3004 77.1 63.8004 77.7 64.9004C78.5 66.4004 78.7 74.8004 78.5 100.8L78.3 134.7L75.9 136.6C73.8 138.2 72.7 138.5 67.9 138.4C64.7 138.4 60.8 138 59 137.6Z" fill="#9A9AA9"/>
</svg>
