<svg width="48" height="48" viewBox="0 0 48 48" fill="none" xmlns="http://www.w3.org/2000/svg">
<path d="M24 0L44.7846 12V36L24 48L3.21539 36V12L24 0Z" fill="#75BA87"/>
<path fill-rule="evenodd" clip-rule="evenodd" d="M25.165 23.9934L25.1634 23.6393C25.1513 22.2348 25.0666 20.9817 24.9206 20.1876C24.9206 20.1733 24.7613 19.3857 24.6599 19.1236C24.5006 18.7446 24.2126 18.423 23.8515 18.2192C23.5624 18.0738 23.2592 18 22.9417 18C22.6922 18.0116 22.2806 18.1371 21.9869 18.2424L21.7428 18.336C20.1261 18.9782 17.0356 21.0766 15.852 22.3598L15.7647 22.4495L15.3753 22.8698C15.1298 23.1915 15 23.5847 15 24.0077C15 24.3866 15.1156 24.7656 15.3469 25.0718C15.4161 25.171 15.5277 25.2983 15.6269 25.4058L16.006 25.8026C17.3105 27.1243 20.1348 28.9782 21.5988 29.5924C21.5988 29.6057 22.5086 29.9857 22.9417 30H22.9995C23.6639 30 24.2846 29.6211 24.6021 29.0086C24.6888 28.8412 24.772 28.5132 24.8352 28.2252L24.949 27.6813C25.0788 26.8067 25.165 25.465 25.165 23.9934ZM31.4967 25.5183C32.3269 25.5183 33 24.8387 33 24.0004C33 23.1622 32.3269 22.4825 31.4967 22.4825L27.7975 22.8097C27.1463 22.8097 26.6183 23.3417 26.6183 24.0004C26.6183 24.6581 27.1463 25.1912 27.7975 25.1912L31.4967 25.5183Z" fill="#1A1A1A"/>
</svg>
