<?xml version="1.0" encoding="utf-8"?>
<!-- Generator: Adobe Illustrator 26.0.3, SVG Export Plug-In . SVG Version: 6.00 Build 0)  -->
<svg version="1.1" id="Layer_1" xmlns="http://www.w3.org/2000/svg" xmlns:xlink="http://www.w3.org/1999/xlink" x="0px" y="0px"
	 viewBox="0 0 106 106" style="enable-background:new 0 0 106 106;" xml:space="preserve">
<path d="M82.8,2H23.2C11.5,2,2,11.5,2,23.2v59.5C2,94.5,11.5,104,23.2,104h59.5c11.7,0,21.2-9.5,21.2-21.2V23.2
	C104,11.5,94.5,2,82.8,2z M36,82.8H23.2V36H36V82.8z M29.6,30.6c-4.1,0-7.4-3.4-7.4-7.5s3.3-7.5,7.4-7.5s7.4,3.4,7.4,7.5
	S33.7,30.6,29.6,30.6z M87,82.8H74.2V58.9c0-14.3-17-13.2-17,0v23.8H44.5V36h12.8v7.5C63.2,32.5,87,31.7,87,54V82.8z"/>
</svg>
