<?xml version="1.0" encoding="utf-8"?>
<!-- Generator: Adobe Illustrator 26.0.3, SVG Export Plug-In . SVG Version: 6.00 Build 0)  -->
<svg version="1.1" id="Layer_1" xmlns="http://www.w3.org/2000/svg" xmlns:xlink="http://www.w3.org/1999/xlink" x="0px" y="0px"
	 viewBox="0 0 184 184" style="enable-background:new 0 0 184 184;" xml:space="preserve">
<path d="M181,36.8c-6.5,2.9-13.6,4.9-21,5.7c7.5-4.5,13.3-11.7,16.1-20.2c-7.1,4.2-14.9,7.2-23.2,8.9c-6.7-7.1-16.2-11.5-26.7-11.5
	c-23.6,0-40.9,22-35.6,44.8C60.3,63,33.4,48.4,15.4,26.4c-9.6,16.4-5,37.9,11.3,48.8c-6-0.2-11.6-1.8-16.5-4.6
	c-0.4,16.9,11.7,32.7,29.3,36.3c-5.1,1.4-10.8,1.7-16.5,0.6c4.6,14.5,18.1,25.1,34.1,25.4c-15.4,12-34.7,17.4-54.1,15.1
	c16.2,10.4,35.4,16.4,56,16.4c67.8,0,106.1-57.3,103.8-108.6C169.9,50.5,176.1,44.1,181,36.8z"/>
</svg>
