<svg width="362" height="58" viewBox="0 0 362 58" fill="none" xmlns="http://www.w3.org/2000/svg">
<path d="M17.2001 9.2998C10.2001 9.2998 5.6001 14.9998 5.6001 30.1998C5.6001 45.2998 10.4001 51.0998 17.2001 51.0998C24.0001 51.0998 28.6001 45.2998 28.8001 30.1998C28.8001 15.0998 24.0001 9.2998 17.2001 9.2998ZM17.2001 47.3998C13.3001 47.3998 10.1001 43.9998 10.1001 30.1998C10.1001 16.3998 13.3001 12.9998 17.2001 12.9998C21.1001 12.9998 24.3001 16.1998 24.3001 30.1998C24.3001 43.9998 21.1001 47.3998 17.2001 47.3998Z" fill="#9A9AA9"/>
<path d="M40.8 9.7998L51.3 39.7998H51.4V9.7998H55.7V50.4998H51L38.4 14.9998H38.3V50.4998H34V9.7998H40.8Z" fill="#9A9AA9"/>
<path d="M80.9001 9.8002V13.5002H66.7V27.4002H77.2V31.1002H66.7V46.7002H81.6V50.4002H62.3V9.7002H80.9001V9.8002Z" fill="#9A9AA9"/>
<path d="M91.3 15.7998H84.5V9.7998H104.9V15.7998H98.1V50.4998H91.1V15.7998H91.3Z" fill="#9A9AA9"/>
<path d="M125.9 32.0998C128.3 30.9998 130.8 28.3998 130.8 21.7998C130.8 13.0998 126.9 9.7998 119 9.7998H109.1V50.4998H116.1H116.2V33.7998C117.3 33.7998 118.8 33.7998 119.7 33.6998L124.7 50.4998H131.8L125.9 32.0998ZM118.6 28.0998H116.1V15.4998H118.6C122.5 15.4998 123.9 16.8998 123.9 21.7998C123.9 26.6998 122.4 28.0998 118.6 28.0998Z" fill="#9A9AA9"/>
<path d="M136.6 50.4998V9.7998H155.3V15.7998H143.6V26.2998H152.7V32.2998H143.6V44.2998H156.1V50.2998H136.7C136.6 50.3998 136.6 50.4998 136.6 50.4998Z" fill="#9A9AA9"/>
<path d="M160.8 50.4998V9.7998H179.6V15.7998H167.9V26.2998H177V32.2998H167.9V44.2998H180.4V50.2998H160.8C160.8 50.3998 160.8 50.4998 160.8 50.4998Z" fill="#9A9AA9"/>
<path d="M194.6 9.7998H185C185 9.7998 185 50.4998 185 50.5998H189.3V32.1998H194.6C201.1 32.1998 205.4 27.7998 205.4 20.9998C205.4 14.0998 201.2 9.7998 194.6 9.7998ZM193.9 28.2998H189.3V13.2998H193.9C198.3 13.2998 200.9 15.6998 200.9 20.7998C200.9 25.8998 198.2 28.2998 193.9 28.2998Z" fill="#9A9AA9"/>
<path d="M214.3 9.7998V46.8998H227.4V50.5998H209.8V9.7998H214.3Z" fill="#9A9AA9"/>
<path d="M245.2 9.7998C245.2 9.7998 239.3 9.7998 239.2 9.7998L230.3 50.4998H234.6L237 38.3998H247.4L249.8 50.4998H254.1L245.2 9.7998ZM237.5 34.5998L241.9 12.6998H242.2L246.7 34.5998H237.5Z" fill="#9A9AA9"/>
<path d="M264.7 9.7998L275.2 39.7998H275.3V9.7998H279.8V50.4998H275.1L262.5 14.9998H262.4V50.4998H258.1V9.7998H264.7Z" fill="#9A9AA9"/>
<path d="M304.7 9.7998V13.4998H296.3V50.5998H291.9V13.4998H283.5V9.7998H304.7Z" fill="#9A9AA9"/>
<path d="M327.3 9.8002V13.5002H313.1V27.4002H323.6V31.1002H313.1V46.7002H328V50.4002H308.7V9.7002H327.4L327.3 9.8002Z" fill="#9A9AA9"/>
<path d="M340.3 9.7998H332.7V50.5998H340.3C348.8 50.5998 354.1 45.8998 354.1 30.1998C354.1 14.4998 348.8 9.7998 340.3 9.7998ZM339.6 46.6998H337.2V13.2998H339.6C346 13.2998 349.7 16.0998 349.7 29.9998C349.7 43.8998 346 46.6998 339.6 46.6998Z" fill="#9A9AA9"/>
</svg>
