<?xml version="1.0" encoding="utf-8"?>
<!-- Generator: Adobe Illustrator 26.0.3, SVG Export Plug-In . SVG Version: 6.00 Build 0)  -->
<svg version="1.1" xmlns="http://www.w3.org/2000/svg" xmlns:xlink="http://www.w3.org/1999/xlink" x="0px" y="0px"
	 viewBox="0 0 544.5 351.9" style="enable-background:new 0 0 544.5 351.9;" xml:space="preserve">
<style type="text/css">
	.st0{display:none;}
	.st1{display:inline;}
</style>
<g id="Layer_1" class="st0">
	<g class="st1">
		<path d="M131.2,100.5c4,0,13.1,0.2,18.9,5.7c4.8,4.6,5.3,10.8,5.3,14c0,2.9-0.4,6.2-2.4,9.4c-1.9,3.1-4.4,4.7-6.2,5.4
			c3.6,0.6,7.6,2.3,10.2,5c2.4,2.4,4.8,6.7,4.8,13.2c0,7.4-2.9,12.1-5.8,15c-6.1,5.9-15,6.3-19.6,6.3h-27.9v-74.1H131.2z
			 M125.4,130.6h2.8c2.3,0,6.2-0.3,8.7-2.1c1.6-1.1,3-3.3,3-6.6c0-3.2-1.6-5.2-2.9-6.2c-2.4-1.9-5.8-1.9-8.9-1.9h-2.7V130.6z
			 M125.4,161.3h4.1c4.3,0,9.6-0.1,12.7-3c1.6-1.4,2.4-3.6,2.4-6.2c0-3-1.2-5-2.3-6c-3-2.8-8.8-2.8-12.2-2.8h-4.7V161.3z"/>
		<path d="M204,125.1h16v49.6h-16v-6c-4.3,6.7-10.6,7.7-14.7,7.7c-7.1,0-13.1-1.8-18.6-7.6c-5.2-5.6-7.2-12-7.2-18.6
			c0-8.3,3.1-15.4,7.7-20c4.3-4.3,10.3-6.8,17.2-6.8c4.2,0,11,1,15.6,7.2V125.1z M183.6,140.8c-1.7,1.7-3.7,4.6-3.7,9
			c0,4.4,1.9,7.3,3.3,8.9c2.2,2.3,5.7,3.9,9.4,3.9c3.2,0,6.2-1.3,8.3-3.4c2.1-2,3.9-5.1,3.9-9.3c0-3.6-1.3-6.9-3.7-9.1
			c-2.4-2.3-6-3.4-8.9-3.4C189,137.2,185.8,138.6,183.6,140.8z"/>
		<path d="M242.2,93.6v49.7l18-18.2h21l-23.6,22.4l25.2,27.1h-21.6l-19.1-21.3v21.3h-16v-81H242.2z"/>
		<path d="M330.4,152.6h-37c0,2.7,1,6.2,3,8.4c2.4,2.7,5.8,3.1,8.2,3.1c2.3,0,4.8-0.4,6.4-1.4c0.2-0.1,2.1-1.3,3.4-4.1l15.1,1.6
			c-2.2,7-6.7,10.7-9.6,12.4c-4.8,2.9-10.1,3.7-15.7,3.7c-7.4,0-14-1.3-19.8-7.1c-4.3-4.3-7.4-10.9-7.4-19.1
			c0-7.1,2.6-14.4,7.6-19.6c6-6,13.4-7.1,19-7.1c5.6,0,13.6,1,19.7,7.4c5.9,6.2,7,14,7,20.1V152.6z M315.6,143.1
			c-0.1-0.4-0.9-3.6-3.2-5.8c-1.8-1.7-4.3-2.8-7.6-2.8c-4.1,0-6.6,1.7-8.1,3.2c-1.2,1.3-2.3,3.1-2.8,5.3H315.6z"/>
		<path d="M333.7,125.1h16v7.8c1.4-2.8,3.7-5.3,6.2-6.9c2.7-1.7,5.4-2.1,8.6-2.1c2,0,3.4,0.2,5.2,0.8l-0.9,15
			c-2.1-1.1-4.4-1.8-7.2-1.8c-3.4,0-6,1.2-8,3.3c-3.6,3.8-3.9,9.1-3.9,13.3v20.1h-16V125.1z"/>
		<path d="M400.1,137.8c-2.4-1.4-5.7-2.8-8.8-2.8c-1.7,0-3.6,0.4-4.6,1.4c-0.6,0.6-1,1.4-1,2.2c0,1.1,0.8,1.8,1.6,2.2
			c1.1,0.7,2.8,1,4.8,1.7l4.2,1.3c2.8,0.9,5.7,2,8.2,4.3c2.9,2.7,3.9,5.7,3.9,9.4c0,6.6-2.9,10.8-5.1,13c-4.9,4.9-10.9,5.7-16.1,5.7
			c-6.7,0-13.9-1.4-20.3-7.1l6.8-10.8c1.6,1.3,3.8,2.9,5.4,3.7c2.2,1.1,4.6,1.6,6.7,1.6c1,0,3.6,0,5-1.1c1-0.8,1.7-2,1.7-3.2
			c0-0.9-0.3-2-1.8-2.9c-1.1-0.7-2.6-1.1-4.9-1.8l-4-1.2c-2.9-0.9-5.9-2.4-8-4.6c-2.3-2.4-3.6-5.2-3.6-9c0-4.8,1.9-8.8,4.8-11.4
			c4.4-4.1,10.4-5,15-5c7.3,0,12.4,1.9,16.4,4.2L400.1,137.8z"/>
		<path d="M428.6,138.2v36.4h-16v-36.4h-5.8v-13.1h5.8v-7.8c0-5.1,0-12.4,5.6-18.4c5.4-5.9,13.4-6.4,18.7-6.4
			c9.6,0,15.9,2.4,19.4,5.9c5.6,5.3,5.9,13.3,5.9,19.1v0.8h-16v-0.9c0-2.6,0-6.1-2.3-8.7c-1.1-1.1-3.1-2.4-6.3-2.4
			c-3.4,0-5.3,1.6-6.3,2.6c-2.4,2.6-2.6,6.4-2.6,7.9v8.4h12.7v13.1H428.6z M462.2,125.1v49.6h-16v-49.6H462.2z"/>
		<path d="M519.2,152.6h-37c0,2.7,1,6.2,3,8.4c2.4,2.7,5.8,3.1,8.2,3.1c2.3,0,4.8-0.4,6.4-1.4c0.2-0.1,2.1-1.3,3.4-4.1l15.1,1.6
			c-2.2,7-6.7,10.7-9.6,12.4c-4.8,2.9-10.1,3.7-15.7,3.7c-7.4,0-14-1.3-19.8-7.1c-4.3-4.3-7.4-10.9-7.4-19.1
			c0-7.1,2.6-14.4,7.6-19.6c6-6,13.4-7.1,19-7.1c5.6,0,13.6,1,19.7,7.4c5.9,6.2,7,14,7,20.1V152.6z M504.4,143.1
			c-0.1-0.4-0.9-3.6-3.2-5.8c-1.8-1.7-4.3-2.8-7.6-2.8c-4.1,0-6.6,1.7-8.1,3.2c-1.2,1.3-2.3,3.1-2.8,5.3H504.4z"/>
		<path d="M538.9,93.6v81h-16v-81H538.9z"/>
		<path d="M599.2,174.6h-16v-6c-2.4,3.6-6.9,7.7-15.7,7.7c-7.3,0-12.7-2.3-17-6.8c-5.1-5.1-7.8-12.2-7.8-19.9c0-8.2,3-15,7.8-19.6
			c4.3-4.1,10.4-6.7,17.2-6.7c5.4,0,11.4,1.8,15.4,7.2v-37h16V174.6z M563.1,140.5c-2.3,2.2-3.9,5.4-3.9,9.4c0,3.7,1.6,6.9,3.9,9.1
			c2.4,2.3,5.6,3.4,8.3,3.4c3,0,6.6-1.2,9.1-3.7c1.9-1.8,3.7-4.8,3.7-8.9c0-4.2-1.7-7.1-3.6-9.1c-2.6-2.7-5.6-3.7-9-3.7
			C568.4,137.2,565.6,138.1,563.1,140.5z"/>
		<g>
			<path d="M108.5,193.1h20c3.7,0,6.7,0.8,8.9,2.5c2.2,1.7,3.4,4.3,3.4,7.7c0,2.1-0.5,3.9-1.5,5.3c-1,1.5-2.5,2.6-4.4,3.4v0.1
				c2.5,0.5,4.5,1.7,5.8,3.6c1.3,1.9,2,4.2,2,7c0,1.6-0.3,3.1-0.9,4.5c-0.6,1.4-1.5,2.6-2.7,3.6c-1.2,1-2.8,1.8-4.7,2.4
				c-1.9,0.6-4.2,0.9-6.9,0.9h-18.9V193.1z M115.7,210.4h11.8c1.7,0,3.2-0.5,4.3-1.5c1.2-1,1.7-2.4,1.7-4.2c0-2.1-0.5-3.5-1.6-4.4
				c-1-0.8-2.5-1.3-4.5-1.3h-11.8V210.4z M115.7,228.5h12.8c2.2,0,3.9-0.6,5.1-1.7c1.2-1.1,1.8-2.7,1.8-4.8c0-2-0.6-3.6-1.8-4.7
				c-1.2-1.1-2.9-1.6-5.1-1.6h-12.8V228.5z"/>
			<path d="M157.6,193.1h7.2v41.3h-7.2V193.1z"/>
			<path d="M182.1,193.1h7.2v18.8l18.4-18.8h8.9l-16.5,16.5l17.6,24.8h-9l-13.5-19.7l-5.9,5.8v13.9h-7.2V193.1z"/>
			<path d="M230.1,193.1h29.7v6.2h-22.5v10.8h20.8v5.9h-20.8v12.1h22.9v6.2h-30.1V193.1z"/>
			<path d="M299.4,193.1h19.7c4.5,0,8,1,10.2,2.9c2.3,2,3.4,4.7,3.4,8.2c0,2-0.3,3.6-0.9,4.9c-0.6,1.3-1.3,2.3-2,3.1
				c-0.8,0.8-1.5,1.4-2.3,1.7c-0.8,0.3-1.3,0.6-1.6,0.7v0.1c0.6,0.1,1.3,0.3,2,0.6c0.7,0.3,1.4,0.8,2,1.5c0.6,0.7,1.1,1.5,1.5,2.6
				c0.4,1.1,0.6,2.4,0.6,4c0,2.4,0.2,4.6,0.5,6.6c0.4,2,0.9,3.4,1.7,4.2h-7.7c-0.5-0.9-0.9-1.9-1-2.9c-0.1-1.1-0.1-2.1-0.1-3.1
				c0-1.9-0.1-3.5-0.3-4.9c-0.2-1.4-0.7-2.5-1.3-3.4c-0.6-0.9-1.5-1.6-2.5-2c-1.1-0.4-2.4-0.6-4.1-0.6h-10.6v17h-7.2V193.1z
				 M306.6,211.9h11.8c2.3,0,4.1-0.5,5.3-1.6c1.2-1.1,1.8-2.7,1.8-4.9c0-1.3-0.2-2.4-0.6-3.2c-0.4-0.8-0.9-1.5-1.6-1.9
				c-0.7-0.5-1.4-0.8-2.3-0.9c-0.9-0.2-1.8-0.2-2.7-0.2h-11.7V211.9z"/>
			<path d="M348.5,193.1h29.7v6.2h-22.5v10.8h20.8v5.9h-20.8v12.1h22.9v6.2h-30.1V193.1z"/>
			<path d="M393.1,193.1h7.6l18.8,30.4h0.1v-30.4h6.9v41.3h-7.6L400.1,204h-0.2v30.3h-6.9V193.1z"/>
			<path d="M439.6,193.1H473v6.2h-13.1v35h-7.2v-35h-13.1V193.1z"/>
			<path d="M491.9,193.1h7.7l15.9,41.3h-7.7l-3.9-10.9h-16.5l-3.9,10.9h-7.5L491.9,193.1z M489.4,217.9H502l-6.2-17.7h-0.2
				L489.4,217.9z"/>
			<path d="M527.9,193.1h7.2v35h21v6.2h-28.2V193.1z"/>
			<path d="M574.2,220.6c0,1.6,0.3,2.9,0.8,4c0.5,1.1,1.3,2,2.3,2.7c1,0.7,2.1,1.2,3.3,1.6c1.3,0.3,2.6,0.5,4.1,0.5
				c1.6,0,2.9-0.2,4-0.5c1.1-0.4,2-0.8,2.7-1.4s1.2-1.2,1.5-2c0.3-0.8,0.5-1.5,0.5-2.3c0-1.6-0.4-2.7-1.1-3.5
				c-0.7-0.8-1.5-1.3-2.3-1.6c-1.5-0.5-3.2-1.1-5.1-1.5c-1.9-0.5-4.3-1.1-7.2-1.9c-1.8-0.5-3.2-1.1-4.4-1.8
				c-1.2-0.8-2.1-1.6-2.8-2.5c-0.7-0.9-1.2-1.9-1.5-2.9c-0.3-1-0.4-2.1-0.4-3.2c0-2.1,0.4-3.9,1.3-5.4c0.9-1.5,2-2.8,3.4-3.8
				c1.4-1,3-1.7,4.9-2.2c1.8-0.5,3.6-0.7,5.5-0.7c2.2,0,4.2,0.3,6.1,0.8c1.9,0.6,3.6,1.4,5,2.5c1.4,1.1,2.6,2.5,3.4,4.1
				c0.8,1.6,1.3,3.5,1.3,5.7h-7.2c-0.2-2.7-1.1-4.5-2.7-5.6c-1.6-1.1-3.7-1.6-6.2-1.6c-0.8,0-1.7,0.1-2.6,0.3
				c-0.9,0.2-1.7,0.5-2.4,0.9c-0.7,0.4-1.3,1-1.8,1.6c-0.5,0.7-0.7,1.6-0.7,2.6c0,1.5,0.5,2.6,1.4,3.4c0.9,0.8,2.1,1.5,3.6,1.9
				c0.2,0,0.8,0.2,1.8,0.5c1.1,0.3,2.2,0.6,3.6,1c1.3,0.3,2.6,0.7,3.8,1c1.3,0.3,2.1,0.6,2.7,0.7c1.3,0.4,2.5,1,3.5,1.7
				s1.8,1.6,2.5,2.5c0.7,0.9,1.2,2,1.5,3c0.3,1.1,0.5,2.2,0.5,3.2c0,2.3-0.5,4.3-1.4,5.9c-0.9,1.6-2.2,3-3.7,4
				c-1.5,1-3.3,1.8-5.3,2.3c-2,0.5-4,0.7-6,0.7c-2.4,0-4.6-0.3-6.6-0.9c-2.1-0.6-3.9-1.5-5.4-2.7s-2.8-2.7-3.7-4.6
				c-0.9-1.9-1.4-4.1-1.4-6.6H574.2z"/>
		</g>
	</g>
</g>
<g id="Layer_2">
	<g>
		<path d="M432.7,135.1c-6.1,0-12.1,0.6-17.9,1.8l-27.3-90.4c3.3,0.2,7,0.2,10.8,0c18.8-1.1,32.6-7.9,40-19.8
			c2.5-4.1,1.3-9.4-2.8-11.9c-4.1-2.5-9.4-1.3-11.9,2.8c-9,14.5-36.6,12.4-46.4,10.3c-3-0.6-6.1,0.4-8.2,2.6
			c-2.1,2.3-2.8,5.4-1.9,8.4l18.6,61.6c-25.2-9.2-80.1-19.7-171.8,7.6l-12.4-23.2c0,0,0,0,0,0c1.2,0,2.5,0,3.7-0.1
			c4.5-0.2,8.4-3.6,8.7-8.1c0.3-5.3-3.9-9.5-9.1-9.3c-5.9,0.3-11.8-0.1-17.5-1.7c-3.5-1-6.8-2.4-9.8-4.4c-1.6-1.1-2.8-2.6-4.4-3.8
			c-1.5-1.1-3.4-1.7-5.3-1.7c-4.8,0-8.7,3.9-8.7,8.7c0,2.5,1,4.6,2.7,6.3c0.7,0.7,1.5,1.4,2.2,2.1c2.4,2.1,5.1,3.8,7.9,5.3
			c2.6,1.4,5.3,2.5,8.1,3.4l17.8,33.3l-38,39.7c-15.5-12.2-35.1-19.6-56.3-19.6c-50.2,0-91.1,40.9-91.1,91.1s40.9,91.1,91.1,91.1
			c47.3,0,86.3-36.2,90.6-82.4h36.9c3.2,12.9,13.4,23.1,26.3,26.3v12.7h-5.9c-4.8,0-8.7,3.9-8.7,8.7c0,4.8,3.9,8.7,8.7,8.7H282
			c4.8,0,8.7-3.9,8.7-8.7c0-4.8-3.9-8.7-8.7-8.7h-7v-12.7c15.5-3.9,27.1-17.8,27.4-34.5c0.2-1.9,2.4-23.9,14.8-47.1
			c16.2-30.5,41.8-48.9,75.9-54.7l5.1,17.1c-33.2,13.6-56.6,46.3-56.6,84.3c0,50.2,40.9,91.1,91.1,91.1c50.2,0,91.1-40.9,91.1-91.1
			S482.9,135.1,432.7,135.1z M231.3,217.5h-36.9c-1.8-19.3-9.8-36.9-21.8-50.9l34-35.6l36.2,67.8
			C237.2,203.6,233.1,210.1,231.3,217.5z M160.5,179.2c8.8,10.7,14.7,23.8,16.4,38.3h-53L160.5,179.2z M103.7,299.9
			C63,299.9,30,266.8,30,226.1s33.1-73.7,73.7-73.7c16.6,0,31.9,5.5,44.3,14.8l-50.6,52.9c-2.4,2.5-3.1,6.2-1.7,9.4
			c1.4,3.2,4.5,5.3,8,5.3h73.2C172.6,271.4,141.4,299.9,103.7,299.9z M274.9,242.7v-14.5c0-4.8-3.9-8.7-8.7-8.7
			c-4.8,0-8.7,3.9-8.7,8.7v14.5c-6-3.1-10.1-9.4-10.1-16.6c0-10.3,8.4-18.7,18.7-18.7c10.3,0,18.7,8.4,18.7,18.7
			C285,233.3,280.9,239.6,274.9,242.7z M301.9,171.4c-5.3,9.9-8.9,19.6-11.5,28c-6.4-5.8-14.9-9.3-24.1-9.3c-2.8,0-5.5,0.3-8.1,0.9
			l-36-67.4c36.2-10.5,83.7-19.8,127.1-14c7.4,1,13.8,2.3,19.2,3.7C333.1,125.7,312.9,150.6,301.9,171.4z M432.7,299.9
			c-40.7,0-73.7-33.1-73.7-73.7c0-30.2,18.3-56.2,44.3-67.6l21.1,70.1c1.1,3.7,4.6,6.2,8.3,6.2c0.8,0,1.7-0.1,2.5-0.4
			c4.6-1.4,7.2-6.2,5.8-10.8l-21.1-70.1c4.2-0.7,8.5-1.1,12.9-1.1c40.7,0,73.7,33.1,73.7,73.7S473.4,299.9,432.7,299.9z"/>
		<path d="M63.2,221c0.6-4.7-2.8-9.1-7.5-9.7c-4.8-0.6-9.1,2.8-9.7,7.5c-4,31.8,18.6,61,50.4,65c0.4,0,0.7,0.1,1.1,0.1
			c4.3,0,8-3.2,8.6-7.6c0.6-4.7-2.8-9.1-7.5-9.7C76.2,263.8,60.4,243.3,63.2,221z"/>
		<path d="M490.8,222.2c-1.1-15.5-8.1-29.7-19.8-39.9c-3.6-3.1-9.1-2.8-12.2,0.8c-3.1,3.6-2.8,9.1,0.8,12.2
			c8.2,7.2,13.2,17.1,13.9,28c0.7,10.9-2.8,21.4-10,29.6c-3.1,3.6-2.8,9.1,0.8,12.2c1.6,1.4,3.7,2.1,5.7,2.1c2.4,0,4.8-1,6.5-3
			C486.8,252.6,491.8,237.7,490.8,222.2z"/>
		<path d="M67.1,201.4c4.8,0,8.7-3.9,8.7-8.7s-3.9-8.7-8.7-8.7c-4.8,0-8.7,3.9-8.7,8.7S62.3,201.4,67.1,201.4z"/>
		<ellipse transform="matrix(0.3827 -0.9239 0.9239 0.3827 22.2262 581.0289)" cx="445.9" cy="273.9" rx="8.7" ry="8.7"/>
	</g>
</g>
</svg>
