<?xml version="1.0" encoding="utf-8"?>
<!-- Generator: Adobe Illustrator 26.0.3, SVG Export Plug-In . SVG Version: 6.00 Build 0)  -->
<svg version="1.1" id="Layer_1" xmlns="http://www.w3.org/2000/svg" xmlns:xlink="http://www.w3.org/1999/xlink" x="0px" y="0px"
	 viewBox="0 0 520.5 171" style="enable-background:new 0 0 520.5 171;" xml:space="preserve">
<g>
	<path d="M41.2,25.4c4,0,13.1,0.2,18.9,5.7c4.8,4.6,5.3,10.8,5.3,14c0,2.9-0.4,6.2-2.4,9.4c-1.9,3.1-4.4,4.7-6.2,5.4
		c3.6,0.6,7.6,2.3,10.2,5c2.4,2.4,4.8,6.7,4.8,13.2c0,7.4-2.9,12.1-5.8,15c-6.1,5.9-15,6.3-19.6,6.3H18.5V25.3h22.7V25.4z
		 M35.4,55.5h2.8c2.3,0,6.2-0.3,8.7-2.1c1.6-1.1,3-3.3,3-6.6c0-3.2-1.6-5.2-2.9-6.2c-2.4-1.9-5.8-1.9-8.9-1.9h-2.7V55.5z M35.4,86.1
		h4.1c4.3,0,9.6-0.1,12.7-3c1.6-1.4,2.4-3.6,2.4-6.2c0-3-1.2-5-2.3-6c-3-2.8-8.8-2.8-12.2-2.8h-4.7V86.1z"/>
	<path d="M113.9,49.9h16v49.6h-16v-6c-4.3,6.7-10.6,7.7-14.7,7.7c-7.1,0-13.1-1.8-18.6-7.6c-5.2-5.6-7.2-12-7.2-18.6
		c0-8.3,3.1-15.4,7.7-20c4.3-4.3,10.3-6.8,17.2-6.8c4.2,0,11,1,15.6,7.2V49.9z M93.6,65.6c-1.7,1.7-3.7,4.6-3.7,9s1.9,7.3,3.3,8.9
		c2.2,2.3,5.7,3.9,9.4,3.9c3.2,0,6.2-1.3,8.3-3.4c2.1-2,3.9-5.1,3.9-9.3c0-3.6-1.3-6.9-3.7-9.1c-2.4-2.3-6-3.4-8.9-3.4
		C98.9,62,95.7,63.5,93.6,65.6z"/>
	<path d="M152.2,18.5v49.7l18-18.2h21l-23.6,22.4l25.2,27.1h-21.6l-19.1-21.3v21.3h-16v-81H152.2z"/>
	<path d="M240.4,77.5h-37c0,2.7,1,6.2,3,8.4c2.4,2.7,5.8,3.1,8.2,3.1c2.3,0,4.8-0.4,6.4-1.4c0.2-0.1,2.1-1.3,3.4-4.1l15.1,1.6
		c-2.2,7-6.7,10.7-9.6,12.4c-4.8,2.9-10.1,3.7-15.7,3.7c-7.4,0-14-1.3-19.8-7.1c-4.3-4.3-7.4-10.9-7.4-19.1c0-7.1,2.6-14.4,7.6-19.6
		c6-6,13.4-7.1,19-7.1s13.6,1,19.7,7.4c5.9,6.2,7,14,7,20.1L240.4,77.5L240.4,77.5z M225.6,67.9c-0.1-0.4-0.9-3.6-3.2-5.8
		c-1.8-1.7-4.3-2.8-7.6-2.8c-4.1,0-6.6,1.7-8.1,3.2c-1.2,1.3-2.3,3.1-2.8,5.3L225.6,67.9L225.6,67.9z"/>
	<path d="M243.7,49.9h16v7.8c1.4-2.8,3.7-5.3,6.2-6.9c2.7-1.7,5.4-2.1,8.6-2.1c2,0,3.4,0.2,5.2,0.8l-0.9,15
		c-2.1-1.1-4.4-1.8-7.2-1.8c-3.4,0-6,1.2-8,3.3c-3.6,3.8-3.9,9.1-3.9,13.3v20.1h-16L243.7,49.9L243.7,49.9z"/>
	<path d="M310,62.6c-2.4-1.4-5.7-2.8-8.8-2.8c-1.7,0-3.6,0.4-4.6,1.4c-0.6,0.6-1,1.4-1,2.2c0,1.1,0.8,1.8,1.6,2.2
		c1.1,0.7,2.8,1,4.8,1.7l4.2,1.3c2.8,0.9,5.7,2,8.2,4.3c2.9,2.7,3.9,5.7,3.9,9.4c0,6.6-2.9,10.8-5.1,13c-4.9,4.9-10.9,5.7-16.1,5.7
		c-6.7,0-13.9-1.4-20.3-7.1l6.8-10.8c1.6,1.3,3.8,2.9,5.4,3.7c2.2,1.1,4.6,1.6,6.7,1.6c1,0,3.6,0,5-1.1c1-0.8,1.7-2,1.7-3.2
		c0-0.9-0.3-2-1.8-2.9c-1.1-0.7-2.6-1.1-4.9-1.8l-4-1.2c-2.9-0.9-5.9-2.4-8-4.6c-2.3-2.4-3.6-5.2-3.6-9c0-4.8,1.9-8.8,4.8-11.4
		c4.4-4.1,10.4-5,15-5c7.3,0,12.4,1.9,16.4,4.2L310,62.6z"/>
	<path d="M338.6,63v36.4h-16V63h-5.8V49.9h5.8v-7.8c0-5.1,0-12.4,5.6-18.4c5.4-5.9,13.4-6.4,18.7-6.4c9.6,0,15.9,2.4,19.4,5.9
		c5.6,5.3,5.9,13.3,5.9,19.1v0.8h-16v-0.9c0-2.6,0-6.1-2.3-8.7c-1.1-1.1-3.1-2.4-6.3-2.4c-3.4,0-5.3,1.6-6.3,2.6
		c-2.4,2.6-2.6,6.4-2.6,7.9V50h12.7v13.1L338.6,63L338.6,63z M372.1,49.9v49.6h-16V49.9L372.1,49.9L372.1,49.9z"/>
	<path d="M429.1,77.5h-37c0,2.7,1,6.2,3,8.4c2.4,2.7,5.8,3.1,8.2,3.1c2.3,0,4.8-0.4,6.4-1.4c0.2-0.1,2.1-1.3,3.4-4.1l15.1,1.6
		c-2.2,7-6.7,10.7-9.6,12.4c-4.8,2.9-10.1,3.7-15.7,3.7c-7.4,0-14-1.3-19.8-7.1c-4.3-4.3-7.4-10.9-7.4-19.1c0-7.1,2.6-14.4,7.6-19.6
		c6-6,13.4-7.1,19-7.1s13.6,1,19.7,7.4c5.9,6.2,7,14,7,20.1L429.1,77.5L429.1,77.5z M414.4,67.9c-0.1-0.4-0.9-3.6-3.2-5.8
		c-1.8-1.7-4.3-2.8-7.6-2.8c-4.1,0-6.6,1.7-8.1,3.2c-1.2,1.3-2.3,3.1-2.8,5.3L414.4,67.9L414.4,67.9z"/>
	<path d="M448.9,18.5v81h-16v-81H448.9z"/>
	<path d="M509.1,99.5h-16v-6c-2.4,3.6-6.9,7.7-15.7,7.7c-7.3,0-12.7-2.3-17-6.8c-5.1-5.1-7.8-12.2-7.8-19.9c0-8.2,3-15,7.8-19.6
		c4.3-4.1,10.4-6.7,17.2-6.7c5.4,0,11.4,1.8,15.4,7.2v-37h16L509.1,99.5L509.1,99.5z M473,65.4c-2.3,2.2-3.9,5.4-3.9,9.4
		c0,3.7,1.6,6.9,3.9,9.1c2.4,2.3,5.6,3.4,8.3,3.4c3,0,6.6-1.2,9.1-3.7c1.9-1.8,3.7-4.8,3.7-8.9c0-4.2-1.7-7.1-3.6-9.1
		c-2.6-2.7-5.6-3.7-9-3.7C478.4,62,475.6,62.9,473,65.4z"/>
	<g>
		<path d="M18.4,117.9h20c3.7,0,6.7,0.8,8.9,2.5c2.2,1.7,3.4,4.3,3.4,7.7c0,2.1-0.5,3.9-1.5,5.3c-1,1.5-2.5,2.6-4.4,3.4v0.1
			c2.5,0.5,4.5,1.7,5.8,3.6c1.3,1.9,2,4.2,2,7c0,1.6-0.3,3.1-0.9,4.5s-1.5,2.6-2.7,3.6s-2.8,1.8-4.7,2.4c-1.9,0.6-4.2,0.9-6.9,0.9
			H18.5L18.4,117.9L18.4,117.9z M25.7,135.2h11.8c1.7,0,3.2-0.5,4.3-1.5c1.2-1,1.7-2.4,1.7-4.2c0-2.1-0.5-3.5-1.6-4.4
			c-1-0.8-2.5-1.3-4.5-1.3H25.6v11.4H25.7z M25.7,153.3h12.8c2.2,0,3.9-0.6,5.1-1.7c1.2-1.1,1.8-2.7,1.8-4.8c0-2-0.6-3.6-1.8-4.7
			c-1.2-1.1-2.9-1.6-5.1-1.6H25.7V153.3z"/>
		<path d="M67.5,117.9h7.2v41.3h-7.2V117.9z"/>
		<path d="M92,117.9h7.2v18.8l18.4-18.8h8.9L110,134.4l17.6,24.8h-9l-13.5-19.7l-5.9,5.8v13.9H92V117.9z"/>
		<path d="M140.1,117.9h29.7v6.2h-22.5v10.8h20.8v5.9h-20.8v12.1h22.9v6.2h-30.1V117.9z"/>
		<path d="M209.4,117.9h19.7c4.5,0,8,1,10.2,2.9c2.3,2,3.4,4.7,3.4,8.2c0,2-0.3,3.6-0.9,4.9c-0.6,1.3-1.3,2.3-2,3.1
			c-0.8,0.8-1.5,1.4-2.3,1.7s-1.3,0.6-1.6,0.7v0.1c0.6,0.1,1.3,0.3,2,0.6s1.4,0.8,2,1.5s1.1,1.5,1.5,2.6s0.6,2.4,0.6,4
			c0,2.4,0.2,4.6,0.5,6.6c0.4,2,0.9,3.4,1.7,4.2h-7.7c-0.5-0.9-0.9-1.9-1-2.9c-0.1-1.1-0.1-2.1-0.1-3.1c0-1.9-0.1-3.5-0.3-4.9
			c-0.2-1.4-0.7-2.5-1.3-3.4c-0.6-0.9-1.5-1.6-2.5-2c-1.1-0.4-2.4-0.6-4.1-0.6h-10.6v17h-7.2V117.9z M216.6,136.7h11.9
			c2.3,0,4.1-0.5,5.3-1.6c1.2-1.1,1.8-2.7,1.8-4.9c0-1.3-0.2-2.4-0.6-3.2s-0.9-1.5-1.6-1.9s-1.4-0.8-2.3-0.9
			c-0.9-0.2-1.8-0.2-2.7-0.2h-11.7L216.6,136.7L216.6,136.7z"/>
		<path d="M258.5,117.9h29.7v6.2h-22.5v10.8h20.8v5.9h-20.8v12.1h22.9v6.2h-30.1V117.9z"/>
		<path d="M303,117.9h7.6l18.8,30.4h0.1v-30.4h6.9v41.3h-7.6L310,128.9h-0.2v30.3h-6.9v-41.3H303z"/>
		<path d="M349.5,117.9h33.4v6.2h-13.1v35h-7.2v-35h-13.1V117.9z"/>
		<path d="M401.9,117.9h7.7l15.9,41.3h-7.7l-3.9-10.9h-16.5l-3.9,10.9H386L401.9,117.9z M399.3,142.8h12.6l-6.2-17.7h-0.2
			L399.3,142.8z"/>
		<path d="M437.8,117.9h7.2v35h21v6.2h-28.2V117.9z"/>
		<path d="M484.2,145.4c0,1.6,0.3,2.9,0.8,4s1.3,2,2.3,2.7s2.1,1.2,3.3,1.6c1.3,0.3,2.6,0.5,4.1,0.5c1.6,0,2.9-0.2,4-0.5
			c1.1-0.4,2-0.8,2.7-1.4c0.7-0.6,1.2-1.2,1.5-2s0.5-1.5,0.5-2.3c0-1.6-0.4-2.7-1.1-3.5c-0.7-0.8-1.5-1.3-2.3-1.6
			c-1.5-0.5-3.2-1.1-5.1-1.5s-4.3-1.1-7.2-1.9c-1.8-0.5-3.2-1.1-4.4-1.8c-1.2-0.8-2.1-1.6-2.8-2.5s-1.2-1.9-1.5-2.9
			s-0.4-2.1-0.4-3.2c0-2.1,0.4-3.9,1.3-5.4s2-2.8,3.4-3.8s3-1.7,4.9-2.2c1.8-0.5,3.6-0.7,5.5-0.7c2.2,0,4.2,0.3,6.1,0.8
			c1.9,0.6,3.6,1.4,5,2.5s2.6,2.5,3.4,4.1c0.8,1.6,1.3,3.5,1.3,5.7h-7.2c-0.2-2.7-1.1-4.5-2.7-5.6s-3.7-1.6-6.2-1.6
			c-0.8,0-1.7,0.1-2.6,0.3c-0.9,0.2-1.7,0.5-2.4,0.9s-1.3,1-1.8,1.6c-0.5,0.7-0.7,1.6-0.7,2.6c0,1.5,0.5,2.6,1.4,3.4
			c0.9,0.8,2.1,1.5,3.6,1.9c0.2,0,0.8,0.2,1.8,0.5c1.1,0.3,2.2,0.6,3.6,1c1.3,0.3,2.6,0.7,3.8,1c1.3,0.3,2.1,0.6,2.7,0.7
			c1.3,0.4,2.5,1,3.5,1.7s1.8,1.6,2.5,2.5s1.2,2,1.5,3c0.3,1.1,0.5,2.2,0.5,3.2c0,2.3-0.5,4.3-1.4,5.9c-0.9,1.6-2.2,3-3.7,4
			s-3.3,1.8-5.3,2.3s-4,0.7-6,0.7c-2.4,0-4.6-0.3-6.6-0.9c-2.1-0.6-3.9-1.5-5.4-2.7s-2.8-2.7-3.7-4.6c-0.9-1.9-1.4-4.1-1.4-6.6
			L484.2,145.4L484.2,145.4z"/>
	</g>
</g>
</svg>
