<svg width="521" height="171" viewBox="0 0 521 171" fill="none" xmlns="http://www.w3.org/2000/svg">
<path d="M41.2 25.3998C45.2 25.3998 54.3 25.5998 60.1 31.0998C64.9 35.6998 65.4 41.8998 65.4 45.0998C65.4 47.9998 65 51.2998 63 54.4998C61.1 57.5998 58.6 59.1998 56.8 59.8998C60.4 60.4998 64.4 62.1998 67 64.8998C69.4 67.2998 71.8 71.5998 71.8 78.0998C71.8 85.4998 68.9 90.1998 66 93.0998C59.9 98.9998 51 99.3998 46.4 99.3998H18.5V25.2998H41.2V25.3998ZM35.4 55.4998H38.2C40.5 55.4998 44.4 55.1998 46.9 53.3998C48.5 52.2998 49.9 50.0998 49.9 46.7998C49.9 43.5998 48.3 41.5998 47 40.5998C44.6 38.6998 41.2 38.6998 38.1 38.6998H35.4V55.4998V55.4998ZM35.4 86.0998H39.5C43.8 86.0998 49.1 85.9998 52.2 83.0998C53.8 81.6998 54.6 79.4998 54.6 76.8998C54.6 73.8998 53.4 71.8998 52.3 70.8998C49.3 68.0998 43.5 68.0998 40.1 68.0998H35.4V86.0998V86.0998Z" fill="#464647"/>
<path d="M113.9 49.9002H129.9V99.5002H113.9V93.5002C109.6 100.2 103.3 101.2 99.1999 101.2C92.0999 101.2 86.0999 99.4002 80.5999 93.6002C75.3999 88.0002 73.3999 81.6002 73.3999 75.0002C73.3999 66.7002 76.4999 59.6002 81.0999 55.0002C85.3999 50.7002 91.3999 48.2002 98.2999 48.2002C102.5 48.2002 109.3 49.2002 113.9 55.4002V49.9002V49.9002ZM93.5999 65.6002C91.8999 67.3002 89.8999 70.2002 89.8999 74.6002C89.8999 79.0002 91.7999 81.9002 93.1999 83.5002C95.3999 85.8002 98.8999 87.4002 102.6 87.4002C105.8 87.4002 108.8 86.1002 110.9 84.0002C113 82.0002 114.8 78.9002 114.8 74.7002C114.8 71.1002 113.5 67.8002 111.1 65.6002C108.7 63.3002 105.1 62.2002 102.2 62.2002C98.8999 62.0002 95.6999 63.5002 93.5999 65.6002Z" fill="#464647"/>
<path d="M152.2 18.5V68.2L170.2 50H191.2L167.6 72.4L192.8 99.5H171.2L152.1 78.2V99.5H136.1V18.5H152.2Z" fill="#464647"/>
<path d="M240.4 77.4998H203.4C203.4 80.1998 204.4 83.6998 206.4 85.8998C208.8 88.5998 212.2 88.9998 214.6 88.9998C216.9 88.9998 219.4 88.5998 221 87.5998C221.2 87.4998 223.1 86.2998 224.4 83.4998L239.5 85.0998C237.3 92.0998 232.8 95.7998 229.9 97.4998C225.1 100.4 219.8 101.2 214.2 101.2C206.8 101.2 200.2 99.8998 194.4 94.0998C190.1 89.7998 187 83.1998 187 74.9998C187 67.8998 189.6 60.5998 194.6 55.3998C200.6 49.3998 208 48.2998 213.6 48.2998C219.2 48.2998 227.2 49.2998 233.3 55.6998C239.2 61.8998 240.3 69.6998 240.3 75.7998L240.4 77.4998ZM225.6 67.8998C225.5 67.4998 224.7 64.2998 222.4 62.0998C220.6 60.3998 218.1 59.2998 214.8 59.2998C210.7 59.2998 208.2 60.9998 206.7 62.4998C205.5 63.7998 204.4 65.5998 203.9 67.7998L225.6 67.8998Z" fill="#464647"/>
<path d="M243.7 49.9002H259.7V57.7002C261.1 54.9002 263.4 52.4002 265.9 50.8002C268.6 49.1002 271.3 48.7002 274.5 48.7002C276.5 48.7002 277.9 48.9002 279.7 49.5002L278.8 64.5002C276.7 63.4002 274.4 62.7002 271.6 62.7002C268.2 62.7002 265.6 63.9002 263.6 66.0002C260 69.8002 259.7 75.1002 259.7 79.3002V99.4002H243.7V49.9002Z" fill="#464647"/>
<path d="M310 62.6002C307.6 61.2002 304.3 59.8002 301.2 59.8002C299.5 59.8002 297.6 60.2002 296.6 61.2002C296 61.8002 295.6 62.6002 295.6 63.4002C295.6 64.5002 296.4 65.2002 297.2 65.6002C298.3 66.3002 300 66.6002 302 67.3002L306.2 68.6002C309 69.5002 311.9 70.6002 314.4 72.9002C317.3 75.6002 318.3 78.6002 318.3 82.3002C318.3 88.9002 315.4 93.1002 313.2 95.3002C308.3 100.2 302.3 101 297.1 101C290.4 101 283.2 99.6002 276.8 93.9002L283.6 83.1002C285.2 84.4002 287.4 86.0002 289 86.8002C291.2 87.9002 293.6 88.4002 295.7 88.4002C296.7 88.4002 299.3 88.4002 300.7 87.3002C301.7 86.5002 302.4 85.3002 302.4 84.1002C302.4 83.2002 302.1 82.1002 300.6 81.2002C299.5 80.5002 298 80.1002 295.7 79.4002L291.7 78.2002C288.8 77.3002 285.8 75.8002 283.7 73.6002C281.4 71.2002 280.1 68.4002 280.1 64.6002C280.1 59.8002 282 55.8002 284.9 53.2002C289.3 49.1002 295.3 48.2002 299.9 48.2002C307.2 48.2002 312.3 50.1002 316.3 52.4002L310 62.6002Z" fill="#464647"/>
<path d="M338.6 62.9998V99.3998H322.6V62.9998H316.8V49.8998H322.6V42.0998C322.6 36.9998 322.6 29.6998 328.2 23.6998C333.6 17.7998 341.6 17.2998 346.9 17.2998C356.5 17.2998 362.8 19.6998 366.3 23.1998C371.9 28.4998 372.2 36.4998 372.2 42.2998V43.0998H356.2V42.1998C356.2 39.5998 356.2 36.0998 353.9 33.4998C352.8 32.3998 350.8 31.0998 347.6 31.0998C344.2 31.0998 342.3 32.6998 341.3 33.6998C338.9 36.2998 338.7 40.0998 338.7 41.5998V49.9998H351.4V63.0998L338.6 62.9998ZM372.1 49.8998V99.4998H356.1V49.8998H372.1Z" fill="#464647"/>
<path d="M429.1 77.4998H392.1C392.1 80.1998 393.1 83.6998 395.1 85.8998C397.5 88.5998 400.9 88.9998 403.3 88.9998C405.6 88.9998 408.1 88.5998 409.7 87.5998C409.9 87.4998 411.8 86.2998 413.1 83.4998L428.2 85.0998C426 92.0998 421.5 95.7998 418.6 97.4998C413.8 100.4 408.5 101.2 402.9 101.2C395.5 101.2 388.9 99.8998 383.1 94.0998C378.8 89.7998 375.7 83.1998 375.7 74.9998C375.7 67.8998 378.3 60.5998 383.3 55.3998C389.3 49.3998 396.7 48.2998 402.3 48.2998C407.9 48.2998 415.9 49.2998 422 55.6998C427.9 61.8998 429 69.6998 429 75.7998L429.1 77.4998ZM414.4 67.8998C414.3 67.4998 413.5 64.2998 411.2 62.0998C409.4 60.3998 406.9 59.2998 403.6 59.2998C399.5 59.2998 397 60.9998 395.5 62.4998C394.3 63.7998 393.2 65.5998 392.7 67.7998L414.4 67.8998Z" fill="#464647"/>
<path d="M448.9 18.5V99.5H432.9V18.5H448.9Z" fill="#464647"/>
<path d="M509.1 99.4994H493.1V93.4994C490.7 97.0994 486.2 101.199 477.4 101.199C470.1 101.199 464.7 98.8994 460.4 94.3994C455.3 89.2994 452.6 82.1994 452.6 74.4994C452.6 66.2994 455.6 59.4994 460.4 54.8994C464.7 50.7994 470.8 48.1994 477.6 48.1994C483 48.1994 489 49.9994 493 55.3994V18.3994H509L509.1 99.4994ZM473 65.3994C470.7 67.5994 469.1 70.7994 469.1 74.7994C469.1 78.4994 470.7 81.6994 473 83.8994C475.4 86.1994 478.6 87.2994 481.3 87.2994C484.3 87.2994 487.9 86.0994 490.4 83.5994C492.3 81.7994 494.1 78.7994 494.1 74.6994C494.1 70.4994 492.4 67.5994 490.5 65.5994C487.9 62.8994 484.9 61.8994 481.5 61.8994C478.4 61.9994 475.6 62.8994 473 65.3994Z" fill="#464647"/>
<path d="M18.3999 117.9H38.3999C42.0999 117.9 45.0999 118.7 47.2999 120.4C49.4999 122.1 50.6999 124.7 50.6999 128.1C50.6999 130.2 50.1999 132 49.1999 133.4C48.1999 134.9 46.6999 136 44.7999 136.8V136.9C47.2999 137.4 49.2999 138.6 50.5999 140.5C51.8999 142.4 52.5999 144.7 52.5999 147.5C52.5999 149.1 52.2999 150.6 51.6999 152C51.0999 153.4 50.1999 154.6 48.9999 155.6C47.7999 156.6 46.1999 157.4 44.2999 158C42.3999 158.6 40.0999 158.9 37.3999 158.9H18.4999L18.3999 117.9ZM25.6999 135.2H37.4999C39.1999 135.2 40.6999 134.7 41.7999 133.7C42.9999 132.7 43.4999 131.3 43.4999 129.5C43.4999 127.4 42.9999 126 41.8999 125.1C40.8999 124.3 39.3999 123.8 37.3999 123.8H25.5999V135.2H25.6999ZM25.6999 153.3H38.4999C40.6999 153.3 42.3999 152.7 43.5999 151.6C44.7999 150.5 45.3999 148.9 45.3999 146.8C45.3999 144.8 44.7999 143.2 43.5999 142.1C42.3999 141 40.6999 140.5 38.4999 140.5H25.6999V153.3Z" fill="#464647"/>
<path d="M67.5 117.9H74.7V159.2H67.5V117.9Z" fill="#464647"/>
<path d="M92 117.9H99.2V136.7L117.6 117.9H126.5L110 134.4L127.6 159.2H118.6L105.1 139.5L99.2 145.3V159.2H92V117.9Z" fill="#464647"/>
<path d="M140.1 117.9H169.8V124.1H147.3V134.9H168.1V140.8H147.3V152.9H170.2V159.1H140.1V117.9Z" fill="#464647"/>
<path d="M209.4 117.9H229.1C233.6 117.9 237.1 118.9 239.3 120.8C241.6 122.8 242.7 125.5 242.7 129C242.7 131 242.4 132.6 241.8 133.9C241.2 135.2 240.5 136.2 239.8 137C239 137.8 238.3 138.4 237.5 138.7C236.7 139 236.2 139.3 235.9 139.4V139.5C236.5 139.6 237.2 139.8 237.9 140.1C238.6 140.4 239.3 140.9 239.9 141.6C240.5 142.3 241 143.1 241.4 144.2C241.8 145.3 242 146.6 242 148.2C242 150.6 242.2 152.8 242.5 154.8C242.9 156.8 243.4 158.2 244.2 159H236.5C236 158.1 235.6 157.1 235.5 156.1C235.4 155 235.4 154 235.4 153C235.4 151.1 235.3 149.5 235.1 148.1C234.9 146.7 234.4 145.6 233.8 144.7C233.2 143.8 232.3 143.1 231.3 142.7C230.2 142.3 228.9 142.1 227.2 142.1H216.6V159.1H209.4V117.9V117.9ZM216.6 136.7H228.5C230.8 136.7 232.6 136.2 233.8 135.1C235 134 235.6 132.4 235.6 130.2C235.6 128.9 235.4 127.8 235 127C234.6 126.2 234.1 125.5 233.4 125.1C232.7 124.7 232 124.3 231.1 124.2C230.2 124 229.3 124 228.4 124H216.7L216.6 136.7Z" fill="#464647"/>
<path d="M258.5 117.9H288.2V124.1H265.7V134.9H286.5V140.8H265.7V152.9H288.6V159.1H258.5V117.9V117.9Z" fill="#464647"/>
<path d="M303 117.9H310.6L329.4 148.3H329.5V117.9H336.4V159.2H328.8L310 128.9H309.8V159.2H302.9V117.9H303V117.9Z" fill="#464647"/>
<path d="M349.5 117.9H382.9V124.1H369.8V159.1H362.6V124.1H349.5V117.9V117.9Z" fill="#464647"/>
<path d="M401.9 117.9H409.6L425.5 159.2H417.8L413.9 148.3H397.4L393.5 159.2H386L401.9 117.9ZM399.3 142.8H411.9L405.7 125.1H405.5L399.3 142.8Z" fill="#464647"/>
<path d="M437.8 117.9H445V152.9H466V159.1H437.8V117.9Z" fill="#464647"/>
<path d="M484.2 145.4C484.2 147 484.5 148.3 485 149.4C485.5 150.5 486.3 151.4 487.3 152.1C488.3 152.8 489.4 153.3 490.6 153.7C491.9 154 493.2 154.2 494.7 154.2C496.3 154.2 497.6 154 498.7 153.7C499.8 153.3 500.7 152.9 501.4 152.3C502.1 151.7 502.6 151.1 502.9 150.3C503.2 149.5 503.4 148.8 503.4 148C503.4 146.4 503 145.3 502.3 144.5C501.6 143.7 500.8 143.2 500 142.9C498.5 142.4 496.8 141.8 494.9 141.4C493 141 490.6 140.3 487.7 139.5C485.9 139 484.5 138.4 483.3 137.7C482.1 136.9 481.2 136.1 480.5 135.2C479.8 134.3 479.3 133.3 479 132.3C478.7 131.3 478.6 130.2 478.6 129.1C478.6 127 479 125.2 479.9 123.7C480.8 122.2 481.9 120.9 483.3 119.9C484.7 118.9 486.3 118.2 488.2 117.7C490 117.2 491.8 117 493.7 117C495.9 117 497.9 117.3 499.8 117.8C501.7 118.4 503.4 119.2 504.8 120.3C506.2 121.4 507.4 122.8 508.2 124.4C509 126 509.5 127.9 509.5 130.1H502.3C502.1 127.4 501.2 125.6 499.6 124.5C498 123.4 495.9 122.9 493.4 122.9C492.6 122.9 491.7 123 490.8 123.2C489.9 123.4 489.1 123.7 488.4 124.1C487.7 124.5 487.1 125.1 486.6 125.7C486.1 126.4 485.9 127.3 485.9 128.3C485.9 129.8 486.4 130.9 487.3 131.7C488.2 132.5 489.4 133.2 490.9 133.6C491.1 133.6 491.7 133.8 492.7 134.1C493.8 134.4 494.9 134.7 496.3 135.1C497.6 135.4 498.9 135.8 500.1 136.1C501.4 136.4 502.2 136.7 502.8 136.8C504.1 137.2 505.3 137.8 506.3 138.5C507.3 139.2 508.1 140.1 508.8 141C509.5 141.9 510 143 510.3 144C510.6 145.1 510.8 146.2 510.8 147.2C510.8 149.5 510.3 151.5 509.4 153.1C508.5 154.7 507.2 156.1 505.7 157.1C504.2 158.1 502.4 158.9 500.4 159.4C498.4 159.9 496.4 160.1 494.4 160.1C492 160.1 489.8 159.8 487.8 159.2C485.7 158.6 483.9 157.7 482.4 156.5C480.9 155.3 479.6 153.8 478.7 151.9C477.8 150 477.3 147.8 477.3 145.3L484.2 145.4Z" fill="#464647"/>
</svg>
