<?xml version="1.0" encoding="utf-8"?>
<!-- Generator: Adobe Illustrator 26.0.3, SVG Export Plug-In . SVG Version: 6.00 Build 0)  -->
<svg version="1.1" id="Layer_1" xmlns="http://www.w3.org/2000/svg" xmlns:xlink="http://www.w3.org/1999/xlink" x="0px" y="0px"
	 viewBox="0 0 96 116" style="enable-background:new 0 0 96 116;" xml:space="preserve">
<style type="text/css">
	.st0{display:none;}
	.st1{display:inline;}
	.st2{fill:#0A0605;}
</style>
<g id="new_logo" class="st0">
	<g class="st1">
		<g>
			<path class="st2" d="M144.1,139.1L144.1,139.1L144.1,139.1c-0.1,0-0.2,0-0.2,0c-0.1,0-0.3-0.1-0.4-0.1c0,0,0,0-0.1,0l0,0
				c-0.1,0-0.3-0.1-0.4-0.1c0,0,0,0-0.1,0c0,0-0.1,0-0.1-0.1c-0.3-0.1-0.6-0.3-0.9-0.5c0,0,0,0-0.1,0c0,0,0,0-0.1,0l0,0
				c-0.4-0.2-0.8-0.4-1.2-0.4c-0.1,0-0.2,0-0.3,0c-0.2,0-0.4,0.1-0.6,0.2c-0.2,0.1-0.4,0.2-0.6,0.4c-0.3,0.3-0.6,0.6-0.7,1
				c0,0,0,0,0,0.1c0.2-0.1,0.4-0.1,0.7-0.2c0.2,0,0.3-0.1,0.5-0.1c0.1,0,0.1,0,0.2,0c0,0,0,0,0.1,0l0,0c0.4,0,0.8,0.1,1.1,0.2l0,0
				l0,0l0,0l0,0h0.1l0,0l0,0c0.1,0,0.1,0.1,0.2,0.1c0.1,0,0.1,0.1,0.2,0.1c-0.1,0-0.2,0-0.3,0s-0.2,0-0.3,0h-0.1l0,0
				c-0.1,0-0.3,0-0.4,0l0,0l0,0c-0.3,0-0.6,0-0.8,0.1c-0.1,0-0.2,0-0.3,0.1c-0.1,0-0.3,0.1-0.4,0.2c-0.1,0-0.2,0.1-0.2,0.1
				c-0.1,0-0.1,0.1-0.2,0.1l0,0l-0.1,0.1l0,0c0,0,0,0-0.1,0c0-0.1,0-0.1-0.1-0.2l0,0c0-0.1,0-0.2-0.1-0.2l0,0c0,0,0,0,0-0.1v-0.1
				l0,0c0,0,0,0,0-0.1c-0.1-0.3-0.1-0.7-0.1-1.1v-0.1v-0.1c0-0.2,0-0.5,0.1-0.7c0-0.2,0.1-0.4,0.1-0.6c-0.2-0.1-0.4-0.2-0.6-0.2
				c-0.1,0-0.3,0-0.4,0.1c-0.3,0.1-0.5,0.4-0.5,0.7l0,0v0.1l0,0l0,0l0,0l0,0c0,0.2,0,0.4,0,0.6c0,0.3,0.1,0.7,0.2,1
				c0,0.1,0,0.1,0,0.2s0.1,0.2,0.1,0.3l0,0c0,0.1,0.1,0.2,0.1,0.2s0,0,0,0.1c0,0,0,0,0,0.1s0.1,0.2,0.1,0.2c0.1,0.1,0.1,0.3,0.2,0.4
				c0,0,0,0.1,0.1,0.1c0,0.1,0.1,0.1,0.1,0.2l0,0c0.1,0.1,0.1,0.2,0.2,0.3c0,0,0,0.1,0.1,0.1c0.1,0.1,0.2,0.2,0.2,0.3l0,0l0.1,0.1
				c0,0,0,0.1,0.1,0.1l0,0c0.4,0.5,0.5,1.2,0.4,1.8c-0.1,0.8-0.7,1.4-1.4,1.7l0,0h-0.1l0,0H137c-0.1,0-0.1,0-0.2,0.1c0,0,0,0-0.1,0
				c-0.5,0.2-0.9,0.5-1.3,0.8c-0.1,0.1-0.2,0.1-0.2,0.2c0,0-0.1,0-0.1,0.1c-0.1,0.1-0.2,0.2-0.2,0.2l0,0l-0.1,0.1l0,0
				c-0.1-0.2-0.2-0.4-0.3-0.5c-0.1-0.2-0.2-0.3-0.3-0.5c-0.2-0.4-0.3-0.9-0.3-1.4v-0.1c0-0.3,0-0.6,0.1-0.8l0,0
				c0.1-0.4,0.2-0.7,0.4-1.1c0.1-0.2,0.3-0.5,0.5-0.7c0.1-0.1,0.2-0.3,0.4-0.4s0.5-0.2,0.8-0.2c0.1,0,0.2,0,0.2,0l0,0h0.1l0,0
				c-0.1,0.1-0.2,0.3-0.3,0.4s-0.1,0.1-0.1,0.2c-0.4,0.5-0.7,1.2-0.9,1.8l0,0c0,0.1,0,0.2,0,0.2c0,0.1,0,0.1,0,0.2s0,0.2,0,0.2
				c0,0.1,0,0.2,0,0.4v0.1v0.1c0,0,0,0,0,0.1v0.1c0,0.1,0,0.1,0,0.2v-0.1l0,0c0-0.1,0-0.1,0-0.2c0-0.2,0-0.3,0.1-0.5c0,0,0,0,0-0.1
				v-0.1c0-0.1,0-0.1,0.1-0.2l0,0c0-0.1,0-0.1,0.1-0.2l0,0c0.1-0.1,0.1-0.3,0.2-0.4c0.1-0.2,0.2-0.3,0.3-0.5c0,0,0-0.1,0.1-0.1
				c0.2-0.2,0.3-0.5,0.5-0.7c0.1-0.2,0.3-0.3,0.4-0.4l0,0c0.1-0.1,0.1-0.1,0.2-0.2c0.1-0.1,0.2-0.1,0.3-0.2c0-0.1-0.1-0.1-0.1-0.2
				l0,0c0,0,0,0,0-0.1c0,0,0,0,0-0.1l-0.1-0.1l0,0c-0.1-0.1-0.1-0.1-0.2-0.2c0,0,0,0-0.1-0.1l0,0l0,0c0,0-0.1,0-0.1-0.1
				c-0.1,0-0.1-0.1-0.2-0.1c-0.1-0.1-0.2-0.1-0.3-0.2h-0.1l0,0c-0.1,0-0.2-0.1-0.3-0.1s-0.2,0-0.3,0s-0.2,0-0.3,0
				c-0.2,0-0.4,0.1-0.6,0.2c-0.3,0.1-0.6,0.3-0.9,0.6c-0.1,0.1-0.2,0.2-0.3,0.3c-1.1,1.1-1.7,2.6-1.7,4.3v0.1v0.1
				c0,1.7,0.7,3.3,1.8,4.4l0.1,0.1c1.1,1.1,2.6,1.7,4.2,1.7c0.3,0,0.6,0,0.9-0.1c0.5-0.1,1-0.2,1.5-0.4c0.1,0,0.2-0.1,0.3-0.1
				c1.3-0.6,2.3-1.7,2.9-3c0.3-0.6,0.4-1.2,0.5-1.8v-0.1c0-0.2,0-0.5,0-0.7v-0.1v-0.1c0-0.2,0-0.4,0-0.6c0-0.1,0-0.1,0-0.2
				s0-0.2-0.1-0.4l0,0c0-0.1,0-0.1,0-0.2c0-0.2-0.1-0.4-0.2-0.6l0,0l0,0c0-0.1,0-0.1-0.1-0.2c-0.2-0.6-0.5-1.1-0.9-1.5
				c0.3-0.1,0.6-0.2,0.8-0.3c0.1-0.1,0.2-0.2,0.3-0.3c0.1-0.1,0.2-0.2,0.3-0.4c0-0.1,0.1-0.1,0.1-0.2c0.1-0.1,0.1-0.3,0.2-0.4
				c0.1-0.2,0.1-0.4,0.1-0.7C144.1,139.4,144.1,139.3,144.1,139.1z"/>
		</g>
		<g>
			<path class="st2" d="M-51,159.4c-1.6,0-3.1,0.3-4.2,0.9c-0.1,0.1-0.2,0.1-0.4,0.2c-0.7,0.4-1.5,1-2.4,1.8
				c-0.5,0.6-1.3,0.3-1.3-0.3c0-1.2-1.1-1.6-2.4-1.6h-3.5c-1.3,0-2.4,1.1-2.4,2.4v30.9c0,1.3,1.1,2.4,2.4,2.4h3.5
				c1.3,0,2.4-1.1,2.4-2.4v-16.1c0-6.8,2.2-10.2,6.7-10.2c1.5,0,2.5,0.5,2.5,0.5c1.3,0.5,2.6,0.2,3.1-1l2.7-5.4
				C-46.6,160.1-48.8,159.4-51,159.4z"/>
			<path class="st2" d="M123.2,159.4c-1.6,0-3.1,0.3-4.2,0.9c-0.1,0.1-0.2,0.1-0.4,0.2c-0.7,0.4-1.5,1-2.4,1.8
				c-0.5,0.6-1.3,0.3-1.3-0.3c0-1.2-1.1-1.6-2.4-1.6H109c-1.3,0-2.4,1.1-2.4,2.4v30.9c0,1.3,1.1,2.4,2.4,2.4h3.5
				c1.3,0,2.4-1.1,2.4-2.4v-16.1c0-6.8,2.2-10.2,6.7-10.2c1.5,0,2.5,0.5,2.5,0.5c1.3,0.5,2.6,0.2,3.1-1l2.7-5.4
				C127.6,160.1,125.4,159.4,123.2,159.4z"/>
			<path class="st2" d="M-11.4,160.4h-3.5c-1.3,0-2.4,1.1-2.4,2.4v1.8c-3.3-3.4-7-5.1-11.2-5.1c-4.8,0-8.8,1.8-12,5.3
				c-3.2,3.6-4.8,8-4.8,13.4s1.6,10,4.8,13.6c3.2,3.6,7.3,5.3,12.2,5.3c3.5,0,6.8-1.3,9.9-3.8c0.6-0.1,1.1,0.2,1.1,0.9
				c0,1,1.1,1.9,2.4,1.9h3.5c1.3,0,2.4-1.1,2.4-2.4v-30.9C-9,161.5-10.1,160.4-11.4,160.4z M-34.1,186.5c-1.8-2.1-2.7-4.9-2.7-8.3
				c0-3.2,0.9-5.9,2.8-8.1c1.9-2.1,4.3-3.2,7.1-3.2c3,0,5.4,1.1,7.3,3.2c1.9,2.2,2.8,4.9,2.8,8.3c0,3.3-0.9,6.1-2.8,8.3
				c-1.9,2.1-4.3,3.1-7.4,3.1C-29.9,189.7-32.2,188.6-34.1,186.5z"/>
			<path class="st2" d="M-71.7,170.8c-0.8-2.3-1.6-4.2-3.1-5.9c-1.5-1.7-3.4-3-5.5-4s-4.4-1.4-7-1.4c-1.6,0-2.8,0.2-4.1,0.6
				c-1.3,0.4-2.4,0.8-3.4,1.4c-1,0.5-1.8,1.1-2.5,1.8c-0.7,0.6-0.7,0.6-0.7,0.6c-0.6,0.7-1.2,1.7-1.2,1.6c0-6.5,0-26.4,0-26.4
				c0-1.3-1.1-2.3-2.3-2.3h-3.9c-1.3,0-2.3,1.1-2.3,2.3v54.7c0,1.3,1.1,2.3,2.3,2.3h4c1.3,0,2.3-0.8,2.3-1.8c0-0.6,0.3-1,0.9-0.9
				h0.1c0.1,0,0.2,0.1,0.2,0.1c3,2.5,6.2,3.7,9.7,3.7c0,0,0.2,0,0.3,0c2.7,0,5.1-0.5,7.3-1.5c2.1-1,4-2.4,5.5-4.1s2.7-3.7,3.5-6
				s1.2-4.8,1.2-7.4C-70.4,175.5-70.8,173-71.7,170.8z M-98.8,174.1c0.5-1.4,1.2-2.6,2.1-3.7s2-2,3.3-2.7s2.7-1,4.4-1
				c1.7,0,3.2,0.3,4.5,1s2.3,1.5,3.2,2.6c0.8,1.1,1.5,2.3,1.9,3.7c0.4,1.4,0.6,2.7,0.6,4.1s-0.2,2.8-0.6,4.1c-0.4,1.4-1,2.6-1.9,3.7
				c-0.8,1.1-1.9,2-3.2,2.7c-1.3,0.7-2.8,1-4.5,1c-1.6,0-3.1-0.3-4.4-1s-2.4-1.5-3.3-2.6s-1.6-2.3-2.1-3.7c-0.5-1.4-0.7-2.7-0.7-4.1
				C-99.5,176.9-99.2,175.5-98.8,174.1z"/>
			<path class="st2" d="M22.2,163.3c-2.3-2.6-5.6-3.9-9.7-3.9c-0.1,0-0.2,0-0.3,0c-3.1,0.1-5.9,1.2-8.4,3.4c-0.4,0.3-1,0-1-0.7
				c0-1.1-1.1-1.6-2.4-1.6h-3.5c-1.3,0-2.4,1.1-2.4,2.4v30.9c0,1.3,1.1,2.4,2.4,2.4h3.5c1.3,0,2.4-1.1,2.4-2.4V179
				c0-4.4,0.6-7.6,1.7-9.3c1.1-1.8,3.1-2.7,5.8-2.7c2.5,0,4.2,0.7,5.2,2l0.1,0.1c0.9,1.4,1.2,4.8,1.2,4.8c0.1,1.3,0.2,3.4,0.2,4.7
				v15.2c0,1.3,1.1,2.4,2.4,2.4h3.5c1.3,0,2.4-1.1,2.4-2.4v-19.5C25.2,169.2,24.2,165.6,22.2,163.3z"/>
			<path class="st2" d="M64.9,181.8v-17.7v-1.5c0-1.2-1-2.2-2.2-2.2H59c-1.2,0-2.2,0.8-2.2,1.7c0,0.5-0.2,0.8-0.6,0.8
				c-0.2,0-0.3-0.1-0.4-0.2c-0.1,0-0.1-0.1-0.2-0.1c-2.7-2.4-5.9-3.3-9.8-3.3c-5.1,0-9.8,2.3-12.8,6.1c-2.9,3.6-4.3,7.9-4.3,13.1
				c0,5.3,1.5,9.7,4.6,13.2s8.1,5.2,12.9,5.3c0.2,0,0.3,0,0.5,0c4.2-0.1,7.7-2,9.8-5c0.2-0.1,0.3-0.1,0.3-0.1c0,0.2,0,0.9,0,1.5
				c0,0.1,0,0.3,0,0.4v0.7v0.5c0,0.3,0,1.5-0.1,2.7c0,0,0,0.3-0.1,0.7c0,0.3-0.1,0.5-0.1,0.8c0,0.1,0,0.1,0,0.2
				c-0.1,0.4-0.1,0.7-0.2,1.1c-0.3,1.5-0.9,2.8-1.7,3.9s-1.9,2-3.2,2.6c-1.3,0.6-3,1-4.9,1c-2,0-4.1-0.3-6.1-1.2
				c-2-0.8-3.7-2.2-3.7-2.2c-0.9-0.8-2.2-0.6-2.9,0.4l-2.1,3.3c-0.7,1-0.4,2.4,0.5,3.2c0,0,0.5,0.4,1.8,1.1s2.7,1.3,4.1,1.8
				s2.9,0.8,4.4,1s2.9,0.3,4.2,0.3c3.2-0.1,5.8-0.7,8.1-1.7s4.2-2.4,5.7-4.2c1.5-1.8,2.6-4,3.4-6.6c0-0.2,0.1-0.3,0.1-0.5
				c0.5-1.9,0.8-3.9,0.9-6.1l0,0l0,0c0-0.2,0-0.5,0-0.7c0-0.1,0-0.1,0-0.2c0,0,0,0,0-0.5c0-0.2,0-0.4,0-0.6v-2.2v-3.9v-2.2V185
				C64.9,184.3,64.9,183,64.9,181.8z M54.9,186.2c-1.8,2.3-5,3.7-8.1,3.7s-5.8-1.6-7.5-3.9c-1.6-2-2.7-4.7-2.7-7.9
				c0-3.2,1.1-5.9,2.7-7.9c1.8-2.3,4.6-3.5,7.6-3.5c2.9,0,5.8,1,7.7,3.1c1.8,2,3,4.8,3,8.2C57.6,181.3,56.6,184.1,54.9,186.2z"/>
			<path class="st2" d="M161.3,163.3c-2.3-2.6-5.6-3.9-9.7-3.9c-0.1,0-0.2,0-0.3,0c-3.1,0.1-5.9,1.2-8.4,3.4c-0.4,0.3-1,0-1-0.7
				c0-1.1-1.1-1.6-2.4-1.6h-4.2c-1.3,0-2.4,1.1-2.4,2.4v30.9c0,1.3,1.1,2.4,2.4,2.4h4.2c1.3,0,2.4-1.1,2.4-2.4V179
				c0-4.4,0.6-7.6,1.7-9.3c1.1-1.8,3.1-2.7,5.8-2.7c2.5,0,4.2,0.7,5.2,2l0.1,0.1c0.9,1.4,1.2,4.8,1.2,4.8c0.1,1.3,0.2,3.4,0.2,4.7
				v15.2c0,1.3,1.1,2.4,2.4,2.4h3.5c1.3,0,2.4-1.1,2.4-2.4v-19.5C164.3,169.2,163.3,165.6,161.3,163.3z"/>
			<g>
				<path class="st2" d="M199.2,192.5c0.3-0.3,0.5-0.5,0.8-0.8C199.8,191.9,199.5,192.2,199.2,192.5z"/>
				<path class="st2" d="M201.7,171.8L201.7,171.8L201.7,171.8c-0.1-0.4-0.4-1.2-0.4-1.2c-0.1-0.4-0.2-0.7-0.4-1.1l0,0
					c-0.9-2.3-2.2-4.2-3.8-5.7s-3.4-2.6-5.5-3.3c-0.5-0.2-1.1-0.3-1.6-0.5c-1.6-0.4-3.3-0.5-5.2-0.5l0,0c-2.6,0.1-5,0.7-7.2,1.6
					c-0.3,0.1-0.5,0.3-0.8,0.4c-1.9,0.9-3.5,2.1-4.9,3.6c-1.5,1.6-2.6,3.4-3.5,5.5c-0.1,0.2-0.1,0.3-0.2,0.5
					c-0.2,0.5-0.3,0.9-0.4,1.4c-0.5,2-0.8,4.1-0.7,6.3c0.1,2.5,0.6,4.6,1.3,6.6c0.1,0.3,0.2,0.6,0.3,0.9c0.1,0.2,0.2,0.4,0.3,0.7
					c0.9,2,2.1,3.6,3.6,5c1.3,1.2,2.6,2.1,4.2,2.9c0.5,0.3,1,0.5,1.6,0.7c0.3,0.1,0.6,0.2,0.9,0.3c2,0.7,4.2,1,6.6,1.1
					c5.5,0.1,9.9-1.4,13.2-4.6c0.3-0.3,0.4-0.5,0.4-0.5c0.6-0.9,0.6-2.1-0.3-3l-2.6-2.2c-0.8-0.6-2-0.4-2.7,0.3
					c-0.8,0.8-1.5,1.2-2.5,1.8c-0.5,0.3-1.1,0.5-1.6,0.6c-1.2,0.3-2.5,0.5-3.9,0.5c-1.3,0-2.5-0.3-3.6-0.7c-1.2-0.5-2.2-1.1-3.1-1.9
					c-0.9-0.8-1.7-1.8-2.2-2.8c-0.2-0.3-0.3-0.8-0.5-1.1c-0.1-0.2-0.2-0.9-0.1-1c0.2-0.8,0.9-1.4,1.8-1.5l22-0.9
					c1.3-0.1,2.3-1.1,2.2-2.4l0,0C202.4,175.5,202.1,173.5,201.7,171.8z M191.3,174.1l-15.6,0.6c0-0.2,0-0.3,0-0.5
					c0.2-2.3,1.1-4.2,2.7-5.7c1.7-1.6,3.9-2.5,6.5-2.6c0.9,0,1.7,0,2.4,0.2c0.4,0.1,0.9,0.2,1.3,0.4c0.4,0.2,0.8,0.3,1.1,0.5
					c0.4,0.2,0.8,0.5,1.1,0.8c0.1,0.1,0.3,0.2,0.4,0.4c0.1,0.2,0.3,0.3,0.4,0.5c0.5,0.6,0.9,1.3,1.2,2.1c0.1,0.4,0.2,0.8,0.3,1.2
					v0.3C193.2,173.3,192.4,174.1,191.3,174.1z"/>
			</g>
			<g>
				<path class="st2" d="M100.2,192.5c0.3-0.3,0.5-0.5,0.8-0.8C100.7,191.9,100.5,192.2,100.2,192.5z"/>
				<path class="st2" d="M102.6,171.8L102.6,171.8L102.6,171.8c-0.1-0.4-0.4-1.2-0.4-1.2c-0.1-0.4-0.2-0.7-0.4-1.1l0,0
					c-0.9-2.3-2.2-4.2-3.8-5.7s-3.4-2.6-5.5-3.3c-0.5-0.2-1.1-0.3-1.6-0.5c-1.6-0.4-3.3-0.5-5.2-0.5l0,0c-2.6,0.1-5,0.7-7.2,1.6
					c-0.3,0.1-0.5,0.3-0.8,0.4c-1.9,0.9-3.5,2.1-4.9,3.6c-1.5,1.6-2.6,3.4-3.5,5.5c-0.1,0.2-0.1,0.3-0.2,0.5
					c-0.2,0.5-0.3,0.9-0.4,1.4c-0.5,2-0.8,4.1-0.7,6.3c0.1,2.5,0.6,4.6,1.3,6.6c0.1,0.3,0.2,0.6,0.3,0.9c0.1,0.2,0.2,0.4,0.3,0.7
					c0.9,2,2.1,3.6,3.6,5c1.3,1.2,2.6,2.1,4.2,2.9c0.5,0.3,1,0.5,1.6,0.7c0.3,0.1,0.6,0.2,0.9,0.3c2,0.7,4.2,1,6.6,1.1
					c5.5,0.1,9.9-1.4,13.2-4.6c0.3-0.3,0.4-0.5,0.4-0.5c0.6-0.9,0.6-2.1-0.3-3l-2.6-2.2c-0.8-0.6-2-0.4-2.7,0.3
					c-0.8,0.8-1.5,1.2-2.5,1.8c-0.5,0.3-1.1,0.5-1.6,0.6c-1.2,0.3-2.5,0.5-3.9,0.5c-1.3,0-2.5-0.3-3.6-0.7c-1.2-0.5-2.2-1.1-3.1-1.9
					c-0.9-0.8-1.7-1.8-2.2-2.8c-0.2-0.3-0.3-0.8-0.5-1.1c-0.1-0.2-0.2-0.9-0.1-1c0.2-0.8,0.9-1.4,1.8-1.5l22-0.9
					c1.3-0.1,2.3-1.1,2.2-2.4l0,0C103.4,175.5,103.1,173.5,102.6,171.8z M92.3,174.1l-15.6,0.6c0-0.2,0-0.3,0-0.5
					c0.2-2.3,1.1-4.2,2.7-5.7c1.7-1.6,3.9-2.5,6.5-2.6c0.9,0,1.7,0,2.4,0.2c0.4,0.1,0.9,0.2,1.3,0.4c0.4,0.2,0.8,0.3,1.1,0.5
					c0.4,0.2,0.8,0.5,1.1,0.8c0.1,0.1,0.3,0.2,0.4,0.4c0.1,0.2,0.3,0.3,0.4,0.5c0.5,0.6,0.9,1.3,1.2,2.1c0.1,0.4,0.2,0.8,0.3,1.2
					v0.3C94.2,173.3,93.4,174.1,92.3,174.1z"/>
			</g>
		</g>
	</g>
</g>
<g id="Layer_2_00000108277373216963769540000011783380311721978775_">
	<g>
		<g>
			<path class="st2" d="M88.5,24.4L88.5,24.4C88.4,24.4,88.4,24.4,88.5,24.4c-0.6-0.1-1-0.2-1.5-0.3c-0.9-0.2-1.8-0.4-2.6-0.7
				c-0.2,0-0.3-0.1-0.5-0.1h-0.1c-0.9-0.3-1.8-0.6-2.7-1c-0.1,0-0.2-0.1-0.3-0.1c-0.3-0.1-0.6-0.3-0.9-0.4c-2-0.9-4-1.9-5.8-3.1
				c-0.2-0.1-0.3-0.2-0.4-0.3c-0.1-0.1-0.2-0.2-0.4-0.2l0,0c-2.3-1.4-5.1-2.3-8.1-2.3c-0.6,0-1.3,0-1.9,0.1
				c-1.5,0.2-2.9,0.6-4.2,1.1c-1.4,0.6-2.6,1.4-3.7,2.3c-2.1,1.7-3.7,4-4.6,6.6c-0.1,0.1-0.1,0.3-0.1,0.4c1.4-0.5,2.9-1,4.4-1.2
				c1.1-0.2,2.3-0.3,3.4-0.4c0.3,0,0.7,0,1,0c0.1,0,0.3,0,0.4,0H60c2.6,0.1,5.1,0.5,7.4,1.3l0,0l0,0c0.1,0,0.2,0.1,0.2,0.1
				c0.1,0,0.2,0.1,0.2,0.1c0.2,0.1,0.4,0.1,0.5,0.2c0.1,0,0.1,0,0.2,0.1l0,0c0.4,0.2,0.8,0.3,1.2,0.5s0.8,0.4,1.2,0.6
				c-0.7,0.1-1.3,0.1-2,0.1c-0.6,0-1.1,0-1.7-0.1c-0.2,0-0.4-0.1-0.6-0.1l0,0c-0.9-0.1-1.8-0.2-2.8-0.2c-0.1,0-0.1,0-0.2,0
				c-0.1,0-0.1,0-0.2,0c-1.8,0-3.6,0.2-5.3,0.6c-0.6,0.1-1.3,0.3-1.9,0.5c-0.9,0.3-1.8,0.6-2.6,1c-0.5,0.2-1.1,0.5-1.6,0.8
				c-0.4,0.2-0.9,0.5-1.3,0.7c-0.1,0-0.2,0.1-0.2,0.1c-0.3,0.2-0.5,0.3-0.8,0.5l0,0c-0.1,0.1-0.3,0.2-0.4,0.3
				c-0.1-0.5-0.3-0.9-0.4-1.4c0-0.1-0.1-0.2-0.1-0.3c-0.1-0.5-0.3-1-0.4-1.6c0-0.1,0-0.2-0.1-0.3c0-0.1,0-0.2-0.1-0.3
				c-0.1-0.2-0.1-0.5-0.1-0.7c0-0.1,0-0.2-0.1-0.3c0-0.1,0-0.3-0.1-0.4c-0.4-2.2-0.6-4.5-0.6-6.9c0-0.2,0-0.5,0-0.7s0-0.4,0-0.6
				c0-1.6,0.2-3.2,0.4-4.7c0.2-1.4,0.5-2.8,0.9-4.2c-1-0.9-2.4-1.5-3.9-1.5c-0.9,0-1.8,0.2-2.5,0.6c-1.7,0.8-2.9,2.5-3.2,4.4l0,0
				c0,0.2,0,0.4,0,0.6c0,0,0,0,0,0.1v0.1v0.1c0,0.1,0,0.1,0,0.2c0,1.2,0.1,2.4,0.2,3.6c0.2,2.1,0.6,4.2,1.1,6.3
				c0.1,0.4,0.2,0.8,0.3,1.2c0.2,0.7,0.4,1.3,0.6,2v0.1c0.2,0.5,0.4,1,0.6,1.6c0.1,0.1,0.1,0.3,0.2,0.4c0.1,0.1,0.1,0.2,0.1,0.4
				c0.2,0.5,0.4,1,0.7,1.5c0.4,0.9,0.8,1.7,1.3,2.5c0.2,0.3,0.3,0.6,0.5,0.9c0.2,0.4,0.5,0.8,0.7,1.1c0,0.1,0.1,0.1,0.1,0.2
				c0.4,0.6,0.8,1.2,1.2,1.7c0.1,0.2,0.2,0.3,0.4,0.5c0.5,0.7,1,1.3,1.5,1.9l0,0c0.3,0.3,0.5,0.6,0.8,0.9c0.2,0.2,0.3,0.3,0.5,0.5
				c0,0,0,0-0.1,0c2.4,3.3,3.6,7.6,2.8,11.9c-1,5.2-4.4,9.3-8.9,11.3l0,0c-0.2,0.1-0.5,0.2-0.7,0.3h-0.1c-0.2,0.1-0.4,0.2-0.7,0.2
				c-0.4,0.2-0.8,0.3-1.1,0.5c-0.1,0.1-0.3,0.1-0.4,0.2c-3.1,1.4-5.9,3.2-8.5,5.3c-0.5,0.4-1,0.8-1.5,1.3c-0.2,0.1-0.3,0.3-0.5,0.5
				c-0.5,0.5-1.1,1-1.6,1.5l-0.1,0.1c-0.2,0.2-0.5,0.5-0.7,0.7c-0.1,0.1-0.1,0.1-0.2,0.2c-0.8-1.1-1.6-2.3-2.2-3.5
				c-0.6-1-1.2-2.1-1.6-3.2c-1.2-2.8-1.9-5.8-2-9c0-0.2,0-0.5,0-0.7c0-1.8,0.2-3.6,0.6-5.4v-0.1c0.6-2.5,1.5-4.8,2.8-7
				c0.9-1.6,2-3,3.2-4.3c0.7-0.9,1.5-1.7,2.4-2.3c1.5-1,3.2-1.5,5.1-1.5c0.5,0,1,0,1.5,0.1c0.1,0,0.2,0,0.2,0c0.2,0,0.5,0.1,0.7,0.2
				h0.1c-0.8,0.8-1.5,1.7-2.2,2.5c-0.3,0.4-0.6,0.8-1,1.3c-2.6,3.6-4.6,7.5-5.9,11.8c0,0.1,0,0.2-0.1,0.3c-0.1,0.5-0.2,1.1-0.2,1.6
				c0,0.4-0.1,0.8-0.1,1.2c0,0.5,0,1,0,1.5c0,0.8,0,1.6,0.1,2.3c0,0.3,0.1,0.6,0.1,0.8s0,0.4,0.1,0.6c0,0.1,0,0.2,0.1,0.4
				c0,0.2,0.1,0.3,0.1,0.5c0.1,0.5,0.2,0.9,0.3,1.3c0-0.3,0-0.6,0-1c0-0.1,0-0.1,0-0.2c0-0.3,0.1-0.7,0.1-1c0.1-1.1,0.3-2.1,0.6-3.2
				c0-0.1,0.1-0.3,0.1-0.4c0.1-0.3,0.2-0.6,0.3-0.9c0.1-0.3,0.2-0.7,0.3-1l0,0c0.1-0.3,0.2-0.7,0.4-1c0,0,0,0,0-0.1
				c0.4-0.9,0.8-1.9,1.3-2.7c0.5-1,1.1-2,1.7-3c0.1-0.2,0.2-0.4,0.4-0.6c1-1.6,2.1-3,3.4-4.4c0.9-1,1.8-1.9,2.8-2.8
				c0.1-0.1,0.1-0.1,0.2-0.2c0.5-0.4,0.9-0.8,1.4-1.2c0.6-0.5,1.1-0.9,1.7-1.4c-0.2-0.4-0.5-0.8-0.7-1.2l0,0
				c-0.1-0.1-0.2-0.2-0.3-0.4c-0.1-0.1-0.2-0.2-0.2-0.3c-0.2-0.2-0.4-0.5-0.6-0.7c0-0.1-0.1-0.1-0.2-0.2c-0.4-0.4-0.7-0.8-1.1-1.1
				c-0.2-0.1-0.3-0.3-0.5-0.4c-0.1-0.1-0.2-0.2-0.3-0.2c-0.1-0.1-0.2-0.1-0.3-0.2c-0.2-0.1-0.4-0.3-0.6-0.4
				c-0.3-0.2-0.7-0.5-1.1-0.7c-0.7-0.4-1.5-0.8-2.3-1.1c-0.2-0.1-0.4-0.1-0.6-0.2l0,0c-0.7-0.2-1.3-0.4-2-0.5s-1.5-0.2-2.2-0.2
				s-1.4,0-2,0.1c-1.4,0.1-2.8,0.5-4.2,1c-1.6,0.7-3.7,1.9-6,3.9c-0.8,0.7-1.5,1.4-2.3,2.2c-7,7.2-11.3,17-11.3,27.9
				c0,0.3,0,0.5,0,0.8s0,0.5,0,0.8C5.5,79.7,10,89.8,17.3,97c0.2,0.2,0.4,0.4,0.6,0.6c7.2,6.8,16.9,11,27.6,11c2,0,4-0.1,5.9-0.4
				c3.4-0.5,6.7-1.4,9.7-2.7c0.7-0.3,1.3-0.6,2-0.9c8.3-4.1,15-10.9,18.8-19.3c1.7-3.6,2.8-7.5,3.3-11.6c0-0.2,0-0.3,0.1-0.5
				c0.2-1.5,0.2-3,0.2-4.5c0-0.3,0-0.5,0-0.8s0-0.6,0-0.8c0-1.2-0.1-2.4-0.2-3.6c0-0.5-0.1-0.9-0.1-1.3c-0.1-0.8-0.2-1.6-0.4-2.4
				c0-0.1,0-0.2,0-0.2c-0.1-0.5-0.2-0.9-0.3-1.4c-0.3-1.3-0.7-2.6-1.1-3.9c0-0.1-0.1-0.2-0.1-0.3s-0.1-0.2-0.1-0.3
				c-0.1-0.4-0.3-0.8-0.5-1.2c-1.4-3.6-3.4-7-5.8-10c1.9-0.4,3.6-1.2,5.2-2.3c0.7-0.5,1.4-1,2-1.6c0.7-0.7,1.4-1.5,2-2.3
				c0.3-0.5,0.6-0.9,0.9-1.4c0.5-0.9,0.9-1.9,1.2-2.9c0.4-1.4,0.6-2.9,0.6-4.4C88.8,26.4,88.7,25.4,88.5,24.4z"/>
		</g>
	</g>
</g>
</svg>
