<svg width="96" height="116" viewBox="0 0 96 116" fill="none" xmlns="http://www.w3.org/2000/svg">
<path d="M88.5 24.4C88.4 24.4 88.4 24.4 88.5 24.4C87.9 24.3 87.5 24.2 87 24.1C86.1 23.9 85.2 23.7 84.4 23.4C84.2 23.4 84.1 23.3 83.9 23.3H83.8C82.9 23 82 22.7 81.1 22.3C81 22.3 80.9 22.2 80.8 22.2C80.5 22.1 80.2 21.9 79.9 21.8C77.9 20.9 75.9 19.9 74.1 18.7C73.9 18.6 73.8 18.5 73.7 18.4C73.6 18.3 73.5 18.2 73.3 18.2C71 16.8 68.2 15.9 65.2 15.9C64.6 15.9 63.9 15.9 63.3 16C61.8 16.2 60.4 16.6 59.1 17.1C57.7 17.7 56.5 18.5 55.4 19.4C53.3 21.1 51.7 23.4 50.8 26C50.7 26.1 50.7 26.3 50.7 26.4C52.1 25.9 53.6 25.4 55.1 25.2C56.2 25 57.4 24.9 58.5 24.8C58.8 24.8 59.2 24.8 59.5 24.8C59.6 24.8 59.8 24.8 59.9 24.8H60C62.6 24.9 65.1 25.3 67.4 26.1C67.5 26.1 67.6 26.2 67.6 26.2C67.7 26.2 67.8 26.3 67.8 26.3C68 26.4 68.2 26.4 68.3 26.5C68.4 26.5 68.4 26.5 68.5 26.6C68.9 26.8 69.3 26.9 69.7 27.1C70.1 27.3 70.5 27.5 70.9 27.7C70.2 27.8 69.6 27.8 68.9 27.8C68.3 27.8 67.8 27.8 67.2 27.7C67 27.7 66.8 27.6 66.6 27.6C65.7 27.5 64.8 27.4 63.8 27.4C63.7 27.4 63.7 27.4 63.6 27.4C63.5 27.4 63.5 27.4 63.4 27.4C61.6 27.4 59.8 27.6 58.1 28C57.5 28.1 56.8 28.3 56.2 28.5C55.3 28.8 54.4 29.1 53.6 29.5C53.1 29.7 52.5 30 52 30.3C51.6 30.5 51.1 30.8 50.7 31C50.6 31 50.5 31.1 50.5 31.1C50.2 31.3 50 31.4 49.7 31.6C49.6 31.7 49.4 31.8 49.3 31.9C49.2 31.4 49 31 48.9 30.5C48.9 30.4 48.8 30.3 48.8 30.2C48.7 29.7 48.5 29.2 48.4 28.6C48.4 28.5 48.4 28.4 48.3 28.3C48.3 28.2 48.3 28.1 48.2 28C48.1 27.8 48.1 27.5 48.1 27.3C48.1 27.2 48.1 27.1 48 27C48 26.9 48 26.7 47.9 26.6C47.5 24.4 47.3 22.1 47.3 19.7C47.3 19.5 47.3 19.2 47.3 19C47.3 18.8 47.3 18.6 47.3 18.4C47.3 16.8 47.5 15.2 47.7 13.7C47.9 12.3 48.2 10.9 48.6 9.5C47.6 8.6 46.2 8 44.7 8C43.8 8 42.9 8.2 42.2 8.6C40.5 9.4 39.3 11.1 39 13C39 13.2 39 13.4 39 13.6C39 13.6 39 13.6 39 13.7V13.8V13.9C39 14 39 14 39 14.1C39 15.3 39.1 16.5 39.2 17.7C39.4 19.8 39.8 21.9 40.3 24C40.4 24.4 40.5 24.8 40.6 25.2C40.8 25.9 41 26.5 41.2 27.2V27.3C41.4 27.8 41.6 28.3 41.8 28.9C41.9 29 41.9 29.2 42 29.3C42.1 29.4 42.1 29.5 42.1 29.7C42.3 30.2 42.5 30.7 42.8 31.2C43.2 32.1 43.6 32.9 44.1 33.7C44.3 34 44.4 34.3 44.6 34.6C44.8 35 45.1 35.4 45.3 35.7C45.3 35.8 45.4 35.8 45.4 35.9C45.8 36.5 46.2 37.1 46.6 37.6C46.7 37.8 46.8 37.9 47 38.1C47.5 38.8 48 39.4 48.5 40C48.8 40.3 49 40.6 49.3 40.9C49.5 41.1 49.6 41.2 49.8 41.4C49.8 41.4 49.8 41.4 49.7 41.4C52.1 44.7 53.3 49 52.5 53.3C51.5 58.5 48.1 62.6 43.6 64.6C43.4 64.7 43.1 64.8 42.9 64.9H42.8C42.6 65 42.4 65.1 42.1 65.1C41.7 65.3 41.3 65.4 41 65.6C40.9 65.7 40.7 65.7 40.6 65.8C37.5 67.2 34.7 69 32.1 71.1C31.6 71.5 31.1 71.9 30.6 72.4C30.4 72.5 30.3 72.7 30.1 72.9C29.6 73.4 29 73.9 28.5 74.4L28.4 74.5C28.2 74.7 27.9 75 27.7 75.2C27.6 75.3 27.6 75.3 27.5 75.4C26.7 74.3 25.9 73.1 25.3 71.9C24.7 70.9 24.1 69.8 23.7 68.7C22.5 65.9 21.8 62.9 21.7 59.7C21.7 59.5 21.7 59.2 21.7 59C21.7 57.2 21.9 55.4 22.3 53.6V53.5C22.9 51 23.8 48.7 25.1 46.5C26 44.9 27.1 43.5 28.3 42.2C29 41.3 29.8 40.5 30.7 39.9C32.2 38.9 33.9 38.4 35.8 38.4C36.3 38.4 36.8 38.4 37.3 38.5C37.4 38.5 37.5 38.5 37.5 38.5C37.7 38.5 38 38.6 38.2 38.7H38.3C37.5 39.5 36.8 40.4 36.1 41.2C35.8 41.6 35.5 42 35.1 42.5C32.5 46.1 30.5 50 29.2 54.3C29.2 54.4 29.2 54.5 29.1 54.6C29 55.1 28.9 55.7 28.9 56.2C28.9 56.6 28.8 57 28.8 57.4C28.8 57.9 28.8 58.4 28.8 58.9C28.8 59.7 28.8 60.5 28.9 61.2C28.9 61.5 29 61.8 29 62C29 62.2 29 62.4 29.1 62.6C29.1 62.7 29.1 62.8 29.2 63C29.2 63.2 29.3 63.3 29.3 63.5C29.4 64 29.5 64.4 29.6 64.8C29.6 64.5 29.6 64.2 29.6 63.8C29.6 63.7 29.6 63.7 29.6 63.6C29.6 63.3 29.7 62.9 29.7 62.6C29.8 61.5 30 60.5 30.3 59.4C30.3 59.3 30.4 59.1 30.4 59C30.5 58.7 30.6 58.4 30.7 58.1C30.8 57.8 30.9 57.4 31 57.1C31.1 56.8 31.2 56.4 31.4 56.1C31.4 56.1 31.4 56.1 31.4 56C31.8 55.1 32.2 54.1 32.7 53.3C33.2 52.3 33.8 51.3 34.4 50.3C34.5 50.1 34.6 49.9 34.8 49.7C35.8 48.1 36.9 46.7 38.2 45.3C39.1 44.3 40 43.4 41 42.5C41.1 42.4 41.1 42.4 41.2 42.3C41.7 41.9 42.1 41.5 42.6 41.1C43.2 40.6 43.7 40.2 44.3 39.7C44.1 39.3 43.8 38.9 43.6 38.5C43.5 38.4 43.4 38.3 43.3 38.1C43.2 38 43.1 37.9 43.1 37.8C42.9 37.6 42.7 37.3 42.5 37.1C42.5 37 42.4 37 42.3 36.9C41.9 36.5 41.6 36.1 41.2 35.8C41 35.7 40.9 35.5 40.7 35.4C40.6 35.3 40.5 35.2 40.4 35.2C40.3 35.1 40.2 35.1 40.1 35C39.9 34.9 39.7 34.7 39.5 34.6C39.2 34.4 38.8 34.1 38.4 33.9C37.7 33.5 36.9 33.1 36.1 32.8C35.9 32.7 35.7 32.7 35.5 32.6C34.8 32.4 34.2 32.2 33.5 32.1C32.8 32 32 31.9 31.3 31.9C30.6 31.9 29.9 31.9 29.3 32C27.9 32.1 26.5 32.5 25.1 33C23.5 33.7 21.4 34.9 19.1 36.9C18.3 37.6 17.6 38.3 16.8 39.1C9.8 46.3 5.5 56.1 5.5 67C5.5 67.3 5.5 67.5 5.5 67.8C5.5 68.1 5.5 68.3 5.5 68.6C5.5 79.7 10 89.8 17.3 97C17.5 97.2 17.7 97.4 17.9 97.6C25.1 104.4 34.8 108.6 45.5 108.6C47.5 108.6 49.5 108.5 51.4 108.2C54.8 107.7 58.1 106.8 61.1 105.5C61.8 105.2 62.4 104.9 63.1 104.6C71.4 100.5 78.1 93.7 81.9 85.3C83.6 81.7 84.7 77.8 85.2 73.7C85.2 73.5 85.2 73.4 85.3 73.2C85.5 71.7 85.5 70.2 85.5 68.7C85.5 68.4 85.5 68.2 85.5 67.9C85.5 67.6 85.5 67.3 85.5 67.1C85.5 65.9 85.4 64.7 85.3 63.5C85.3 63 85.2 62.6 85.2 62.2C85.1 61.4 85 60.6 84.8 59.8C84.8 59.7 84.8 59.6 84.8 59.6C84.7 59.1 84.6 58.7 84.5 58.2C84.2 56.9 83.8 55.6 83.4 54.3C83.4 54.2 83.3 54.1 83.3 54C83.3 53.9 83.2 53.8 83.2 53.7C83.1 53.3 82.9 52.9 82.7 52.5C81.3 48.9 79.3 45.5 76.9 42.5C78.8 42.1 80.5 41.3 82.1 40.2C82.8 39.7 83.5 39.2 84.1 38.6C84.8 37.9 85.5 37.1 86.1 36.3C86.4 35.8 86.7 35.4 87 34.9C87.5 34 87.9 33 88.2 32C88.6 30.6 88.8 29.1 88.8 27.6C88.8 26.4 88.7 25.4 88.5 24.4Z" fill="#464647"/>
</svg>
