<?xml version="1.0" encoding="utf-8"?>
<!-- Generator: Adobe Illustrator 26.0.3, SVG Export Plug-In . SVG Version: 6.00 Build 0)  -->
<svg version="1.1" id="Layer_1" xmlns="http://www.w3.org/2000/svg" xmlns:xlink="http://www.w3.org/1999/xlink" x="0px" y="0px"
	 viewBox="0 0 144 171" style="enable-background:new 0 0 144 171;" xml:space="preserve">
<style type="text/css">
	.st0{display:none;}
	.st1{display:inline;}
</style>
<g id="svg5198" inkscape:version="0.91 r13725" sodipodi:docname="givepower_vector_logo.svg" xmlns:cc="http://creativecommons.org/ns#" xmlns:dc="http://purl.org/dc/elements/1.1/" xmlns:inkscape="http://www.inkscape.org/namespaces/inkscape" xmlns:rdf="http://www.w3.org/1999/02/22-rdf-syntax-ns#" xmlns:sodipodi="http://sodipodi.sourceforge.net/DTD/sodipodi-0.dtd" xmlns:svg="http://www.w3.org/2000/svg" class="st0">
	
		<sodipodi:namedview  bordercolor="#666666" borderopacity="1.0" id="base" inkscape:current-layer="layer1" inkscape:cx="-399.36106" inkscape:cy="751.22006" inkscape:document-units="px" inkscape:pageopacity="0.0" inkscape:pageshadow="2" inkscape:window-height="1016" inkscape:window-maximized="1" inkscape:window-width="1920" inkscape:window-x="0" inkscape:window-y="27" inkscape:zoom="0.7" pagecolor="#ffffff" showgrid="false">
		</sodipodi:namedview>
	<path class="st1" d="M-48.5,227c-1.4-8.7-5.2-12.2-13.6-12.7c-10.4-0.6-16.9,5.2-16.9,15.2c0,4.9,2.2,9.1,6.2,11.8
		c4.1,2.7,11.7,2.8,15.2,0.3c2.8-2.1,3.4-1.7,2.6,1.3c-0.9,3.3-2.5,5.5-4.6,6.4c-2.4,1.1-11,1.1-13.1,0c-1.9-1-2.1-0.9-2.7,2.2
		c-0.4,2.2-0.2,2.5,2.2,3.3l0,0c3.9,1.3,12.9,1.2,16-0.1c3.5-1.5,6.2-4.1,7.6-7.3C-48.1,243.5-47.5,233-48.5,227z M-59.1,237
		L-59.1,237c-8.7,4.5-16.9-5.3-11.4-13.7c2.1-3.3,7.1-4.5,11-2.7C-53.7,223.3-53.4,234.1-59.1,237z"/>
	<path class="st1" d="M60.8,227.9c-1.2-8.6-6.8-13.7-15-13.7c-5.4,0-9.2,1.4-12,4.5c-3.6,4-4,5.8-4,21.8l0,0v15.1l3-0.2l3-0.2
		l0.4-7.5c0.4-7,0.5-7.4,1.7-6.1c2.4,2.4,7.9,3.4,12.2,2.2C56.6,242,61.7,234.4,60.8,227.9z M50.1,237.2
		c-8.3,4.3-16.5-3.3-13.1-12.2c0.9-2.4,5.2-5.2,7.9-5.2c4.6,0,9,4.5,9,9.2C53.8,231.9,51.8,236.3,50.1,237.2z"/>
	<path class="st1" d="M12.6,232.3c9.6-0.7,12.9-2.6,13.6-7.8c0.8-5.8-4.3-10.3-11.7-10.3c-9.8,0-16,5.9-16,15.2
		c0,6.9,3.5,11.8,10,14.2l0,0c4.3,1.6,16.4-0.3,16.4-2.6c0-0.5-0.5-1.6-1.1-2.4c-0.9-1.3-1.4-1.4-3.7-0.6c-4.2,1.4-8.3,1.1-11.3-0.9
		C4.1,233.9,4.8,232.9,12.6,232.3z M5.3,226.5c0.3-0.7,0.5-1.6,0.5-1.9s1.1-1.8,2.5-3.1c2.8-2.8,7.1-3.3,10.2-1.2
		c2.4,1.7,2.1,5.1-0.7,6.5c-1.1,0.6-4.5,1-7.5,1C5.7,227.8,4.9,227.6,5.3,226.5z"/>
	<path class="st1" d="M93.8,222.1c-4.6-9.1-19-10.8-26.1-3c-4,4.3-4.7,12.4-1.5,17.9c2.2,3.7,4.4,5.5,8.5,6.7
		C87.8,247.7,99.9,234.1,93.8,222.1z M85,236.7c-2.2,1.6-6.1,2.5-8,1.8c-2.5-1-5.6-4.6-6.1-7.2c-1.8-9.4,8.8-15.3,15.5-8.6
		C89.7,225.9,88.8,233.9,85,236.7z"/>
	<path class="st1" d="M165.1,237.8c-3.9,1-8.1,1.4-10.1,0.9c-1.9-0.5-5.9-4-5.9-5.3c0-0.3,3-0.8,6.7-1c10.9-0.8,14.1-2.8,14.1-9.2
		c0-5.7-4.6-9-12.6-9c-5.5,0-10.4,2.6-13.1,7c-2.7,4.3-2.6,12.7,0.1,16.4c2.4,3.3,4.4,4.8,8,6l0,0c3.7,1.2,6.5,1.3,11.1,0.1
		c5.2-1.3,5.9-1.9,4.8-4.4C167.3,237.6,166.7,237.3,165.1,237.8z M151.7,221.7c2.2-2.2,3.4-2.7,5.9-2.7c5.5,0,7.9,5.5,3.4,7.8
		c-1.1,0.6-4.2,1-7,1c-4.5,0-5-0.1-5-1.7C149,225.2,150.2,223.2,151.7,221.7z"/>
	<path class="st1" d="M-43,229.8c0-15,0-14.9,4.5-14.9h1.9v14.4v14.4h-3.2H-43V229.8z"/>
	<path class="st1" d="M-27,232.2c-3.1-6.4-5.8-12.8-5.8-14.2c-0.1-2.4,0.1-2.6,2.7-2.8l2.8-0.2l4.7,11l4.7,11l2.6-5.5
		c1.4-3,3.7-8,5-10.9c2.2-5,2.6-5.4,4.9-5.4c4.6,0,4.5,0.4-4.3,18.6l-4.9,10.2H-18h-3.4L-27,232.2z"/>
	<path class="st1" d="M104.3,242c-8.4-21.2-9.3-24.3-8-25.9c0.5-0.6,1.9-1.1,3.1-1.1c2.1,0,2.3,0.4,5.5,10.4
		c1.8,5.7,3.5,10.4,3.6,10.4s1.2-3.1,2.4-7c4.4-14,4.3-13.8,7.3-13.8c3.2,0,3.1-0.1,6.8,11.8c1.4,4.5,2.8,8.2,3.2,8.2
		c0.4,0,1.6-3.1,2.8-7c3.5-11.7,4.3-13,7.3-13c1.4,0,2.8,0.3,3.1,0.7c0.5,0.8-2.6,9.8-7.1,20.9l-2.7,6.8l-3.5,0.2l-3.5,0.2l-3.2-9.7
		c-2.2-6.8-3.3-9.3-3.7-8.2c-0.3,0.8-1.7,5.1-3.1,9.7l-2.5,8.2h-3.5C105.6,243.8,104.8,243.4,104.3,242L104.3,242z"/>
	<path class="st1" d="M173,233.6c0-15.7,2.5-19.4,13-19.4c4.7,0,7.8,1.6,7.8,3.9c0,2-1.8,3.3-3.2,2.4c-2.5-1.6-8.2-0.5-9.8,2
		c-0.3,0.5-0.6,5.5-0.6,11.1v10.2h-3.6H173V233.6L173,233.6z"/>
	<path class="st1" d="M-42.5,208.1c-2.4-2.4-0.8-5.9,2.6-5.9c2.6,0,4.1,1.3,4.1,3.6C-35.8,209.2-40,210.6-42.5,208.1z"/>
</g>
<g id="Layer_2_00000013887763075885436210000018208493064134111899_">
	<g>
		<path d="M58.6,162.6c-6.9-1.8-12.4-4.9-17.5-9.9c-7.5-7.4-6.6-9.3,3.5-7.1c18.5,3.9,30.2,3.9,49.8-0.1c4.5-0.9,8.4-1.5,8.7-1.2
			c2.2,2.2-6.2,11.7-13.4,15.4C81.4,164,68.5,165.2,58.6,162.6L58.6,162.6z"/>
		<path d="M59,137.6c-15.6-3.7-25.6-9-34.8-18.4c-7.4-7.5-11.2-13.6-15.9-25C6.3,89.4,5,80.5,5,72.1c0-19.5,6.4-34.6,20.2-47.7
			C38.7,11.5,55,5.7,74.6,6.8c25.5,1.3,49.1,18.5,57.9,42c3.6,9.5,4,12.2,4,23.7c0,12.3-1.1,17.6-5.2,26.7
			c-5.6,12.3-9.9,16.3-15.5,14.5c-5.9-2-6.7-7.2-2-14.6c6-9.5,9-22.8,7.3-32.6c-3.3-20.1-15.5-35.4-33.2-41.6
			c-10.1-3.6-24-3.7-33.3-0.4C21.2,36.4,9.5,77.7,32,104.6c7.3,8.8,20.8,17,26.3,16c5-0.9,5.2-2,5.2-30.3c0-24.4,0-25.1,1.7-26.9
			c2.8-3,5.3-3.5,8.6-1.9c1.6,0.8,3.3,2.3,3.9,3.4c0.8,1.5,1,9.9,0.8,35.9l-0.2,33.9l-2.4,1.9c-2.1,1.6-3.2,1.9-8,1.8
			C64.7,138.4,60.8,138,59,137.6L59,137.6z"/>
	</g>
</g>
</svg>
