<svg width="122" height="122" viewBox="0 0 122 122" fill="none" xmlns="http://www.w3.org/2000/svg">
<path d="M59 7.09961C28.9 7.09961 4.30005 31.6996 4.30005 61.7996C4.30005 91.8996 28.9 116.4 59 116.4C89.1 116.4 113.7 91.7996 113.7 61.6996C113.7 31.5996 89.1 7.09961 59 7.09961ZM84.4 102.4L83.9 102.1C83.9 101.6 83.5 101.2 83.1 101.2C82.7 101.2 80.9 100.5 80.5 100.5C80.2 100.5 80.1 100.6 79.8 100.8C79.7 100.7 78.9 100.1 78.9 99.8996C78.9 99.1996 78.5 98.5996 77.8 98.5996C77.3 98.5996 76 98.0996 75.3 98.0996C74.8 98.0996 69.7 95.4996 69.1 95.4996C68.8 95.4996 68.6 95.5996 68.4 95.8996C68.3 95.4996 67.9 95.1996 67.5 95.1996C67.4 95.1996 67.1 94.8996 67.1 94.6996C67.1 93.9996 66.7 93.3996 66 93.3996C65.6 93.3996 64.7 92.5996 64.2 92.5996C64.2 92.5996 62.4 91.1996 61.8 91.1996C61.5 91.1996 61 90.8996 60.5 90.4996C60.1 83.0996 59.3 77.4996 59.1 74.5996C59 73.1996 58.8 72.3996 58.8 72.3996C58.5 70.9996 58.4 69.1996 58.3 67.2996C57.6 55.5996 58.3001 35.1996 58.7001 26.3996C58.7001 25.0996 58.8 23.8996 58.8 23.1996V22.0996C57.9 23.3996 57.7001 25.2996 57.7001 25.7996C56.3001 33.7996 55.6001 41.7996 55.2001 48.8996C55.1001 51.4996 54.9001 53.8996 54.9001 56.2996C54.8001 66.1996 55.3 71.4996 55.3 71.4996C55.7 77.4996 56.1001 83.4996 56.7001 90.7996C56.5001 90.7996 56.3001 90.8996 56.2001 91.0996C55.3001 91.4996 54.4001 91.9996 54.2001 92.3996C54.1001 92.6996 53.8 93.0996 53.5 93.0996C53.1 93.0996 52.1001 94.6996 51.9001 94.6996C51.4001 94.6996 49.8001 95.9996 49.7001 96.6996C49.7001 96.9996 48.8001 97.5996 48.4001 97.5996C47.9001 97.5996 46.8001 98.8996 46.2001 98.8996C45.8001 98.8996 44.2001 99.2996 43.7001 99.2996C43.3001 99.2996 42.9 99.5996 42.8 99.9996C42.4 99.6996 41.9001 99.4996 41.4001 99.4996C40.3001 99.4996 39.2001 100.4 38.9001 100.4C38.8001 100.4 38.5001 100.4 38.4001 100.5C38.3001 100.4 38.1001 100.4 37.9001 100.4H37.6C37.1 100.4 35.5 102.2 35.1 102.2C34.8 102.2 34.3001 102.5 33.9001 102.6H33.5C20 94.0996 10.9 78.8996 10.9 61.8996C10.9 35.4996 32.5001 13.8996 58.9001 13.8996C85.3001 13.8996 106.9 35.4996 106.9 61.8996C107 78.8996 97.9 93.7996 84.4 102.4Z" fill="#464647"/>
<path d="M52.3001 62.5992C50.6001 59.7992 47.7001 57.1992 42.8001 55.5992C42.3001 55.4992 41.9001 55.2992 41.4001 55.1992C41.4001 55.1992 34.3001 53.4992 31.4001 53.7992H31.5001C31.9001 53.8992 32.7001 54.5992 34.4001 55.3992C37.3001 56.7992 41.6001 59.2992 45.6001 62.4992C49.5001 65.6992 53.4001 67.4992 54.5001 71.5992C54.5001 70.1992 54.1001 66.6992 53.7001 65.6992C53.4001 64.6992 53.0001 63.5992 52.3001 62.5992Z" fill="#464647"/>
<path d="M65.6001 37.8992C68.2001 36.1992 71.1001 34.8992 73.0001 34.0992C74.2001 33.6992 75.0001 33.2992 75.2001 33.2992H75.3001C73.5001 32.8992 68.6001 33.5992 68.6001 33.5992C68.2001 33.5992 67.9001 33.6992 67.7001 33.6992C64.5001 34.3992 62.6001 35.7992 61.4001 37.4992C60.1001 39.1992 59.6001 43.3992 59.4001 44.2992C60.3001 41.7992 62.8001 39.5992 65.6001 37.8992Z" fill="#464647"/>
<path d="M61.8 71.5992C62.3 70.8992 62.7 70.2992 63.2 69.5992C63.7 68.8992 64.3 68.2992 64.9 67.5992L65.8 66.6992L66.9 65.7992C67.4 65.3992 68 64.8992 68.5 64.4992C68.6 64.3992 68.9 64.1992 69 64.0992C69.3 63.9992 69.5 63.6992 69.8 63.5992C70.5 63.0992 71.2 62.5992 71.9 62.2992C72 62.1992 72.2 62.1992 72.3 61.9992C72.6 61.8992 72.8 61.6992 73 61.5992C73.1 61.5992 73.1 61.4992 73.3 61.4992C73.8 61.1992 74.5 60.9992 75 60.6992C72.2 60.8992 69.5 61.6992 67 62.8992C66.3 63.2992 65.7 63.6992 65.2 64.1992C62.8 65.8992 61.5 67.6992 60.7 69.4992C60.6 69.8992 60.3 70.3992 60.3 70.7992C60.2 71.1992 60.2 71.5992 60 71.8992C60 72.7992 60.1 73.5992 60.3 74.2992C60.4 73.9992 60.4 73.8992 60.6 73.5992C61 72.8992 61.4 72.2992 61.8 71.5992Z" fill="#464647"/>
<path d="M77.9001 59.8997C77.8001 59.8997 77.5001 59.8997 77.4001 59.9997C77.3001 59.9997 77 60.0997 76.7 60.0997C76.2 60.1997 75.8001 60.4997 75.3001 60.5997C74.6001 60.8997 74.0001 61.2997 73.3001 61.4997C72.9001 61.7997 72.6 61.8997 72.2 62.1997C71.8 62.4997 71.5 62.5997 71.1 62.8997C70.4 63.2997 69.8 63.9997 69 64.4997C68.3 65.1997 67.7 65.6997 67 66.2997L66.1 67.1997C65.8 67.5997 65.6 67.8997 65.2 68.2997C64.5 68.9997 64.1 69.5997 63.6 70.2997C63.1 70.8997 62.7 71.5997 62.3 72.2997C61.9 72.9997 61.6001 73.5997 61.2001 74.0997C60.9001 74.7997 60.7 75.2997 60.5 75.7997C60.5 75.8997 60.4001 75.8997 60.4001 76.0997C60.4001 76.1997 60.3 76.3997 60.3 76.4997C61 76.3997 62.7001 75.7997 64.9001 74.6997C67.0001 73.5997 69 72.1997 70.7 70.4997C73 68.1997 74.8 65.5997 76.1 62.5997C76.1 62.5997 77.3 60.3997 79.5 59.9997H79.4001C79.5001 59.7997 78.9001 59.7997 77.9001 59.8997Z" fill="#464647"/>
<path d="M51.9 32.9998C51.5 32.6998 50.9999 32.3998 50.5999 32.1998C50.5999 32.1998 48.2 30.8998 45.2 30.7998C45.6 30.8998 46 31.0998 46.4 31.2998L46.5 31.3998C46.6 31.4998 46.8 31.4998 47 31.6998C47.1 31.6998 47.0999 31.7998 47.2999 31.7998C47.7999 32.0998 48.2 32.2998 48.7 32.6998C48.8 32.8998 49 32.9998 49.2 33.0998C49.3 33.1998 49.4999 33.1998 49.5999 33.3998C49.9999 33.6998 50.3 33.8998 50.7 34.1998L51.4 34.8998L52.0999 35.5998C52.4999 35.9998 52.8999 36.4998 53.2999 36.8998C53.6999 37.2998 54 37.7998 54.2 38.1998C54.3 38.4998 54.7 39.0998 55 39.4998L55.2999 37.4998C55.1999 37.1998 55.1 36.8998 55 36.5998C54.2 35.0998 53.2 33.8998 51.9 32.9998Z" fill="#464647"/>
<path d="M54.7 40.8994C54.6 40.4994 54.4 40.1994 54.2 39.7994C53.9 39.3994 53.8 38.9994 53.5 38.4994C53.2 38.0994 52.9999 37.5994 52.5999 37.1994C52.1999 36.7994 51.9 36.2994 51.5 35.8994C51.4 35.5994 51.1 35.4994 51 35.1994L50.2999 34.4994C49.8999 34.0994 49.4 33.6994 49 33.2994C48.5 32.8994 48.0999 32.4994 47.5999 32.2994C47.2999 32.1994 47.1 31.9994 46.9 31.7994C46.6 31.6994 46.5 31.4994 46.2 31.3994C45.8 31.0994 45.3 30.8994 44.9 30.6994C44.5 30.5994 44.1999 30.3994 43.7999 30.2994C43.6999 30.2994 43.5 30.1994 43.4 30.1994C43.3 30.1994 43.1 30.1994 43 30.0994C42.3 29.9994 41.8999 29.9994 41.7999 30.0994H41.7C43.1 30.3994 44.0999 31.8994 44.0999 31.8994C44.9999 33.8994 46.2999 35.5994 47.7999 37.1994C49.0999 38.4994 50.3999 39.3994 51.5999 40.0994C52.9999 40.8994 54.1999 41.2994 54.5999 41.2994C54.5999 41.2994 54.6 41.1994 54.5 40.9994C54.8 40.9994 54.7 40.8994 54.7 40.8994Z" fill="#464647"/>
</svg>
