<?xml version="1.0" encoding="utf-8"?>
<!-- Generator: Adobe Illustrator 26.0.3, SVG Export Plug-In . SVG Version: 6.00 Build 0)  -->
<svg version="1.1" id="Layer_1" xmlns="http://www.w3.org/2000/svg" xmlns:xlink="http://www.w3.org/1999/xlink" x="0px" y="0px"
	 viewBox="0 0 122 122" style="enable-background:new 0 0 122 122;" xml:space="preserve">
<style type="text/css">
	.st0{fill:#414141;}
	.st1{display:none;}
	.st2{display:inline;}
</style>
<g id="symobo_x3B_">
	<g>
		<path class="st0" d="M59,7.1C28.9,7.1,4.3,31.7,4.3,61.8s24.6,54.6,54.7,54.6s54.7-24.6,54.7-54.7S89.1,7.1,59,7.1z M84.4,102.4
			l-0.5-0.3c0-0.5-0.4-0.9-0.8-0.9s-2.2-0.7-2.6-0.7c-0.3,0-0.4,0.1-0.7,0.3c-0.1-0.1-0.9-0.7-0.9-0.9c0-0.7-0.4-1.3-1.1-1.3
			c-0.5,0-1.8-0.5-2.5-0.5c-0.5,0-5.6-2.6-6.2-2.6c-0.3,0-0.5,0.1-0.7,0.4c-0.1-0.4-0.5-0.7-0.9-0.7c-0.1,0-0.4-0.3-0.4-0.5
			c0-0.7-0.4-1.3-1.1-1.3c-0.4,0-1.3-0.8-1.8-0.8c0,0-1.8-1.4-2.4-1.4c-0.3,0-0.8-0.3-1.3-0.7c-0.4-7.4-1.2-13-1.4-15.9
			c-0.1-1.4-0.3-2.2-0.3-2.2c-0.3-1.4-0.4-3.2-0.5-5.1c-0.7-11.7,0-32.1,0.4-40.9c0-1.3,0.1-2.5,0.1-3.2v-1.1
			c-0.9,1.3-1.1,3.2-1.1,3.7c-1.4,8-2.1,16-2.5,23.1c-0.1,2.6-0.3,5-0.3,7.4c-0.1,9.9,0.4,15.2,0.4,15.2c0.4,6,0.8,12,1.4,19.3
			c-0.2,0-0.4,0.1-0.5,0.3c-0.9,0.4-1.8,0.9-2,1.3c-0.1,0.3-0.4,0.7-0.7,0.7c-0.4,0-1.4,1.6-1.6,1.6c-0.5,0-2.1,1.3-2.2,2
			c0,0.3-0.9,0.9-1.3,0.9c-0.5,0-1.6,1.3-2.2,1.3c-0.4,0-2,0.4-2.5,0.4c-0.4,0-0.8,0.3-0.9,0.7c-0.4-0.3-0.9-0.5-1.4-0.5
			c-1.1,0-2.2,0.9-2.5,0.9c-0.1,0-0.4,0-0.5,0.1c-0.1-0.1-0.3-0.1-0.5-0.1h-0.3c-0.5,0-2.1,1.8-2.5,1.8c-0.3,0-0.8,0.3-1.2,0.4h-0.4
			C20,94.1,10.9,78.9,10.9,61.9c0-26.4,21.6-48,48-48s48,21.6,48,48C107,78.9,97.9,93.8,84.4,102.4z"/>
		<path class="st0" d="M52.3,62.6c-1.7-2.8-4.6-5.4-9.5-7c-0.5-0.1-0.9-0.3-1.4-0.4c0,0-7.1-1.7-10-1.4h0.1c0.4,0.1,1.2,0.8,2.9,1.6
			c2.9,1.4,7.2,3.9,11.2,7.1c3.9,3.2,7.8,5,8.9,9.1c0-1.4-0.4-4.9-0.8-5.9C53.4,64.7,53,63.6,52.3,62.6z"/>
		<path class="st0" d="M65.6,37.9c2.6-1.7,5.5-3,7.4-3.8c1.2-0.4,2-0.8,2.2-0.8h0.1c-1.8-0.4-6.7,0.3-6.7,0.3
			c-0.4,0-0.7,0.1-0.9,0.1c-3.2,0.7-5.1,2.1-6.3,3.8c-1.3,1.7-1.8,5.9-2,6.8C60.3,41.8,62.8,39.6,65.6,37.9z"/>
		<path class="st0" d="M61.8,71.6c0.5-0.7,0.9-1.3,1.4-2s1.1-1.3,1.7-2l0.9-0.9l1.1-0.9c0.5-0.4,1.1-0.9,1.6-1.3
			c0.1-0.1,0.4-0.3,0.5-0.4c0.3-0.1,0.5-0.4,0.8-0.5c0.7-0.5,1.4-1,2.1-1.3c0.1-0.1,0.3-0.1,0.4-0.3c0.3-0.1,0.5-0.3,0.7-0.4
			c0.1,0,0.1-0.1,0.3-0.1c0.5-0.3,1.2-0.5,1.7-0.8c-2.8,0.2-5.5,1-8,2.2c-0.7,0.4-1.3,0.8-1.8,1.3c-2.4,1.7-3.7,3.5-4.5,5.3
			c-0.1,0.4-0.4,0.9-0.4,1.3c-0.1,0.4-0.1,0.8-0.3,1.1c0,0.9,0.1,1.7,0.3,2.4c0.1-0.3,0.1-0.4,0.3-0.7C61,72.9,61.4,72.3,61.8,71.6z
			"/>
		<path class="st0" d="M77.9,59.9c-0.1,0-0.4,0-0.5,0.1c-0.1,0-0.4,0.1-0.7,0.1c-0.5,0.1-0.9,0.4-1.4,0.5c-0.7,0.3-1.3,0.7-2,0.9
			c-0.4,0.3-0.7,0.4-1.1,0.7s-0.7,0.4-1.1,0.7c-0.7,0.4-1.3,1.1-2.1,1.6c-0.7,0.7-1.3,1.2-2,1.8l-0.9,0.9c-0.3,0.4-0.5,0.7-0.9,1.1
			c-0.7,0.7-1.1,1.3-1.6,2c-0.5,0.6-0.9,1.3-1.3,2s-0.7,1.3-1.1,1.8c-0.3,0.7-0.5,1.2-0.7,1.7c0,0.1-0.1,0.1-0.1,0.3
			c0,0.1-0.1,0.3-0.1,0.4c0.7-0.1,2.4-0.7,4.6-1.8c2.1-1.1,4.1-2.5,5.8-4.2c2.3-2.3,4.1-4.9,5.4-7.9c0,0,1.2-2.2,3.4-2.6h-0.1
			C79.5,59.8,78.9,59.8,77.9,59.9z"/>
		<path class="st0" d="M51.9,33c-0.4-0.3-0.9-0.6-1.3-0.8c0,0-2.4-1.3-5.4-1.4c0.4,0.1,0.8,0.3,1.2,0.5l0.1,0.1
			c0.1,0.1,0.3,0.1,0.5,0.3c0.1,0,0.1,0.1,0.3,0.1c0.5,0.3,0.9,0.5,1.4,0.9c0.1,0.2,0.3,0.3,0.5,0.4c0.1,0.1,0.3,0.1,0.4,0.3
			c0.4,0.3,0.7,0.5,1.1,0.8l0.7,0.7l0.7,0.7c0.4,0.4,0.8,0.9,1.2,1.3c0.4,0.4,0.7,0.9,0.9,1.3c0.1,0.3,0.5,0.9,0.8,1.3l0.3-2
			c-0.1-0.3-0.2-0.6-0.3-0.9C54.2,35.1,53.2,33.9,51.9,33z"/>
		<path class="st0" d="M54.7,40.9c-0.1-0.4-0.3-0.7-0.5-1.1c-0.3-0.4-0.4-0.8-0.7-1.3c-0.3-0.4-0.5-0.9-0.9-1.3
			c-0.4-0.4-0.7-0.9-1.1-1.3c-0.1-0.3-0.4-0.4-0.5-0.7l-0.7-0.7c-0.4-0.4-0.9-0.8-1.3-1.2c-0.5-0.4-0.9-0.8-1.4-1
			c-0.3-0.1-0.5-0.3-0.7-0.5c-0.3-0.1-0.4-0.3-0.7-0.4c-0.4-0.3-0.9-0.5-1.3-0.7c-0.4-0.1-0.7-0.3-1.1-0.4c-0.1,0-0.3-0.1-0.4-0.1
			s-0.3,0-0.4-0.1c-0.7-0.1-1.1-0.1-1.2,0h-0.1c1.4,0.3,2.4,1.8,2.4,1.8c0.9,2,2.2,3.7,3.7,5.3c1.3,1.3,2.6,2.2,3.8,2.9
			c1.4,0.8,2.6,1.2,3,1.2c0,0,0-0.1-0.1-0.3C54.8,41,54.7,40.9,54.7,40.9z"/>
	</g>
</g>
<g id="word" class="st1">
	<g class="st2">
		<path class="st0" d="M-114.8,45.3c-7,0-11.6,5.7-11.6,20.9c0,15.1,4.8,20.9,11.6,20.9c6.8,0,11.4-5.8,11.6-20.9
			C-103.2,51.1-108,45.3-114.8,45.3z M-114.8,83.4c-3.9,0-7.1-3.4-7.1-17.2s3.2-17.2,7.1-17.2s7.1,3.2,7.1,17.2
			C-107.7,80-110.9,83.4-114.8,83.4z"/>
		<polygon class="st0" points="-91.2,45.8 -80.7,75.8 -80.6,75.8 -80.6,45.8 -76.3,45.8 -76.3,86.5 -81,86.5 -93.6,51 -93.7,51 
			-93.7,86.5 -98,86.5 -98,45.8 		"/>
		<polygon class="st0" points="-51.1,45.8 -51.1,49.5 -65.3,49.5 -65.3,63.4 -54.8,63.4 -54.8,67.1 -65.3,67.1 -65.3,82.7 
			-50.4,82.7 -50.4,86.4 -69.7,86.4 -69.7,45.7 -51.1,45.7 		"/>
		<polygon class="st0" points="-40.7,51.8 -47.5,51.8 -47.5,45.8 -27.1,45.8 -27.1,51.8 -33.9,51.8 -33.9,86.5 -40.9,86.5 
			-40.9,51.8 		"/>
		<g>
			<path class="st0" d="M-15.8,86.5L-15.8,86.5C-15.7,86.5-15.7,86.5-15.8,86.5z"/>
			<path class="st0" d="M-6.1,68.1c2.4-1.1,4.9-3.7,4.9-10.3c0-8.7-3.9-12-11.8-12h-9.9v40.7h7h0.1V69.8c1.1,0,2.6,0,3.5-0.1l5,16.8
				h7.1L-6.1,68.1z M-13.4,64.1h-2.5V51.5h2.5c3.9,0,5.3,1.4,5.3,6.3S-9.6,64.1-13.4,64.1z"/>
		</g>
		<path class="st0" d="M4.6,86.5V45.8h18.7v6H11.6v10.5h9.1v6h-9.1v12h12.5v6H4.7C4.6,86.4,4.6,86.5,4.6,86.5z"/>
		<path class="st0" d="M28.8,86.5V45.8h18.8v6H35.9v10.5H45v6h-9.1v12h12.5v6H28.8C28.8,86.4,28.8,86.5,28.8,86.5z"/>
		<path class="st0" d="M62.6,45.8H53c0,0,0,40.7,0,40.8h4.3V68.2h5.3c6.5,0,10.8-4.4,10.8-11.2C73.4,50.1,69.2,45.8,62.6,45.8z
			 M61.9,64.3h-4.6v-15h4.6c4.4,0,7,2.4,7,7.5C68.9,61.9,66.2,64.3,61.9,64.3z"/>
		<polygon class="st0" points="82.3,45.8 82.3,82.9 95.4,82.9 95.4,86.6 77.8,86.6 77.8,45.8 		"/>
		<path class="st0" d="M113.2,45.8c0,0-5.9,0-6,0l-8.9,40.7h4.3l2.4-12.1h10.4l2.4,12.1h4.3L113.2,45.8z M105.5,70.6l4.4-21.9h0.3
			l4.5,21.9H105.5z"/>
		<polygon class="st0" points="132.7,45.8 143.2,75.8 143.3,75.8 143.3,45.8 147.8,45.8 147.8,86.5 143.1,86.5 130.5,51 130.4,51 
			130.4,86.5 126.1,86.5 126.1,45.8 		"/>
		<polygon class="st0" points="172.7,45.8 172.7,49.5 164.3,49.5 164.3,86.6 159.9,86.6 159.9,49.5 151.5,49.5 151.5,45.8 		"/>
		<polygon class="st0" points="195.3,45.8 195.3,49.5 181.1,49.5 181.1,63.4 191.6,63.4 191.6,67.1 181.1,67.1 181.1,82.7 196,82.7 
			196,86.4 176.7,86.4 176.7,45.7 195.4,45.7 		"/>
		<path class="st0" d="M208.3,45.8h-7.6v40.8h7.6c8.5,0,13.8-4.7,13.8-20.4C222.1,50.5,216.8,45.8,208.3,45.8z M207.6,82.7h-2.4
			V49.3h2.4c6.4,0,10.1,2.8,10.1,16.7C217.7,79.9,214,82.7,207.6,82.7z"/>
	</g>
</g>
</svg>
