<?xml version="1.0" encoding="utf-8"?>
<!-- Generator: Adobe Illustrator 26.0.3, SVG Export Plug-In . SVG Version: 6.00 Build 0)  -->
<svg version="1.1" id="Layer_1" xmlns="http://www.w3.org/2000/svg" xmlns:xlink="http://www.w3.org/1999/xlink" x="0px" y="0px"
	 viewBox="0 0 362 58" style="enable-background:new 0 0 362 58;" xml:space="preserve">
<style type="text/css">
	.st0{display:none;}
	.st1{display:inline;}
	.st2{fill:#414141;}
</style>
<g id="symobo_x3B_" class="st0">
	<g class="st1">
		<path class="st2" d="M3.7-35.3C-26.4-35.3-51-10.7-51,19.4S-26.4,74,3.7,74s54.7-24.6,54.7-54.7S33.8-35.3,3.7-35.3z M29.1,60
			l-0.5-0.3c0-0.5-0.4-0.9-0.8-0.9c-0.4,0-2.2-0.7-2.6-0.7c-0.3,0-0.4,0.1-0.7,0.3c-0.1-0.1-0.9-0.7-0.9-0.9c0-0.7-0.4-1.3-1.1-1.3
			c-0.5,0-1.8-0.5-2.5-0.5c-0.5,0-5.6-2.6-6.2-2.6c-0.3,0-0.5,0.1-0.7,0.4c-0.1-0.4-0.5-0.7-0.9-0.7c-0.1,0-0.4-0.3-0.4-0.5
			c0-0.7-0.4-1.3-1.1-1.3c-0.4,0-1.3-0.8-1.8-0.8c0,0-1.8-1.4-2.4-1.4c-0.3,0-0.8-0.3-1.3-0.7c-0.4-7.4-1.2-13-1.4-15.9
			C3.7,30.8,3.5,30,3.5,30c-0.3-1.4-0.4-3.2-0.5-5.1C2.3,13.2,3-7.2,3.4-16c0-1.3,0.1-2.5,0.1-3.2v-1.1c-0.9,1.3-1.1,3.2-1.1,3.7
			C1-8.6,0.3-0.6-0.1,6.5c-0.1,2.6-0.3,5-0.3,7.4C-0.5,23.8,0,29.1,0,29.1c0.4,6,0.8,12,1.4,19.3c-0.2,0-0.4,0.1-0.5,0.3
			c-0.9,0.4-1.8,0.9-2,1.3c-0.1,0.3-0.4,0.7-0.7,0.7c-0.4,0-1.4,1.6-1.6,1.6c-0.5,0-2.1,1.3-2.2,2c0,0.3-0.9,0.9-1.3,0.9
			c-0.5,0-1.6,1.3-2.2,1.3c-0.4,0-2,0.4-2.5,0.4c-0.4,0-0.8,0.3-0.9,0.7c-0.4-0.3-0.9-0.5-1.4-0.5c-1.1,0-2.2,0.9-2.5,0.9
			c-0.1,0-0.4,0-0.5,0.1C-17,58-17.2,58-17.4,58h-0.3c-0.5,0-2.1,1.8-2.5,1.8c-0.3,0-0.8,0.3-1.2,0.4h-0.4
			c-13.5-8.5-22.6-23.7-22.6-40.7c0-26.4,21.6-48,48-48s48,21.6,48,48C51.7,36.5,42.6,51.4,29.1,60z"/>
		<path class="st2" d="M-3,20.2c-1.7-2.8-4.6-5.4-9.5-7c-0.5-0.1-0.9-0.3-1.4-0.4c0,0-7.1-1.7-10-1.4h0.1c0.4,0.1,1.2,0.8,2.9,1.6
			c2.9,1.4,7.2,3.9,11.2,7.1c3.9,3.2,7.8,5,8.9,9.1c0-1.4-0.4-4.9-0.8-5.9C-1.9,22.3-2.3,21.2-3,20.2z"/>
		<path class="st2" d="M10.3-4.5c2.6-1.7,5.5-3,7.4-3.8c1.2-0.4,2-0.8,2.2-0.8H20c-1.8-0.4-6.7,0.3-6.7,0.3c-0.4,0-0.7,0.1-0.9,0.1
			C9.2-8,7.3-6.6,6.1-4.9C4.8-3.2,4.3,1,4.1,1.9C5-0.6,7.5-2.8,10.3-4.5z"/>
		<path class="st2" d="M6.5,29.2c0.5-0.7,0.9-1.3,1.4-2s1.1-1.3,1.7-2l0.9-0.9l1.1-0.9c0.5-0.4,1.1-0.9,1.6-1.3
			c0.1-0.1,0.4-0.3,0.5-0.4c0.3-0.1,0.5-0.4,0.8-0.5c0.7-0.5,1.4-1,2.1-1.3c0.1-0.1,0.3-0.1,0.4-0.3c0.3-0.1,0.5-0.3,0.7-0.4
			c0.1,0,0.1-0.1,0.3-0.1c0.5-0.3,1.2-0.5,1.7-0.8c-2.8,0.2-5.5,1-8,2.2c-0.7,0.4-1.3,0.8-1.8,1.3c-2.4,1.7-3.7,3.5-4.5,5.3
			C5.3,27.5,5,28,5,28.4c-0.1,0.4-0.1,0.8-0.3,1.1c0,0.9,0.1,1.7,0.3,2.4c0.1-0.3,0.1-0.4,0.3-0.7C5.7,30.5,6.1,29.9,6.5,29.2z"/>
		<path class="st2" d="M22.6,17.5c-0.1,0-0.4,0-0.5,0.1c-0.1,0-0.4,0.1-0.7,0.1c-0.5,0.1-0.9,0.4-1.4,0.5c-0.7,0.3-1.3,0.7-2,0.9
			c-0.4,0.3-0.7,0.4-1.1,0.7c-0.4,0.3-0.7,0.4-1.1,0.7c-0.7,0.4-1.3,1.1-2.1,1.6c-0.7,0.7-1.3,1.2-2,1.8l-0.9,0.9
			c-0.3,0.4-0.5,0.7-0.9,1.1c-0.7,0.7-1.1,1.3-1.6,2c-0.5,0.6-0.9,1.3-1.3,2s-0.7,1.3-1.1,1.8c-0.3,0.7-0.5,1.2-0.7,1.7
			c0,0.1-0.1,0.1-0.1,0.3C5.1,33.8,5,34,5,34.1c0.7-0.1,2.4-0.7,4.6-1.8c2.1-1.1,4.1-2.5,5.8-4.2c2.3-2.3,4.1-4.9,5.4-7.9
			c0,0,1.2-2.2,3.4-2.6h-0.1C24.2,17.4,23.6,17.4,22.6,17.5z"/>
		<path class="st2" d="M-3.4-9.4c-0.4-0.3-0.9-0.6-1.3-0.8c0,0-2.4-1.3-5.4-1.4c0.4,0.1,0.8,0.3,1.2,0.5l0.1,0.1
			c0.1,0.1,0.3,0.1,0.5,0.3c0.1,0,0.1,0.1,0.3,0.1c0.5,0.3,0.9,0.5,1.4,0.9c0.1,0.2,0.3,0.3,0.5,0.4C-6-9.2-5.8-9.2-5.7-9
			C-5.3-8.7-5-8.5-4.6-8.2l0.7,0.7l0.7,0.7C-2.8-6.4-2.4-5.9-2-5.5c0.4,0.4,0.7,0.9,0.9,1.3C-1-3.9-0.6-3.3-0.3-2.9l0.3-2
			c-0.1-0.3-0.2-0.6-0.3-0.9C-1.1-7.3-2.1-8.5-3.4-9.4z"/>
		<path class="st2" d="M-0.6-1.5c-0.1-0.4-0.3-0.7-0.5-1.1C-1.4-3-1.5-3.4-1.8-3.9c-0.3-0.4-0.5-0.9-0.9-1.3
			c-0.4-0.4-0.7-0.9-1.1-1.3c-0.1-0.3-0.4-0.4-0.5-0.7L-5-7.9c-0.4-0.4-0.9-0.8-1.3-1.2c-0.5-0.4-0.9-0.8-1.4-1
			c-0.3-0.1-0.5-0.3-0.7-0.5c-0.3-0.1-0.4-0.3-0.7-0.4c-0.4-0.3-0.9-0.5-1.3-0.7c-0.4-0.1-0.7-0.3-1.1-0.4c-0.1,0-0.3-0.1-0.4-0.1
			s-0.3,0-0.4-0.1c-0.7-0.1-1.1-0.1-1.2,0h-0.1c1.4,0.3,2.4,1.8,2.4,1.8c0.9,2,2.2,3.7,3.7,5.3C-6.2-3.9-4.9-3-3.7-2.3
			c1.4,0.8,2.6,1.2,3,1.2c0,0,0-0.1-0.1-0.3C-0.5-1.4-0.6-1.5-0.6-1.5z"/>
	</g>
</g>
<g id="word">
	<g>
		<path class="st2" d="M17.2,9.3c-7,0-11.6,5.7-11.6,20.9c0,15.1,4.8,20.9,11.6,20.9c6.8,0,11.4-5.8,11.6-20.9
			C28.8,15.1,24,9.3,17.2,9.3z M17.2,47.4c-3.9,0-7.1-3.4-7.1-17.2S13.3,13,17.2,13s7.1,3.2,7.1,17.2C24.3,44,21.1,47.4,17.2,47.4z"
			/>
		<polygon class="st2" points="40.8,9.8 51.3,39.8 51.4,39.8 51.4,9.8 55.7,9.8 55.7,50.5 51,50.5 38.4,15 38.3,15 38.3,50.5 
			34,50.5 34,9.8 		"/>
		<polygon class="st2" points="80.9,9.8 80.9,13.5 66.7,13.5 66.7,27.4 77.2,27.4 77.2,31.1 66.7,31.1 66.7,46.7 81.6,46.7 
			81.6,50.4 62.3,50.4 62.3,9.7 80.9,9.7 		"/>
		<polygon class="st2" points="91.3,15.8 84.5,15.8 84.5,9.8 104.9,9.8 104.9,15.8 98.1,15.8 98.1,50.5 91.1,50.5 91.1,15.8 		"/>
		<g>
			<path class="st2" d="M116.2,50.5L116.2,50.5C116.3,50.5,116.3,50.5,116.2,50.5z"/>
			<path class="st2" d="M125.9,32.1c2.4-1.1,4.9-3.7,4.9-10.3c0-8.7-3.9-12-11.8-12h-9.9v40.7h7h0.1V33.8c1.1,0,2.6,0,3.5-0.1
				l5,16.8h7.1L125.9,32.1z M118.6,28.1h-2.5V15.5h2.5c3.9,0,5.3,1.4,5.3,6.3S122.4,28.1,118.6,28.1z"/>
		</g>
		<path class="st2" d="M136.6,50.5V9.8h18.7v6h-11.7v10.5h9.1v6h-9.1v12h12.5v6h-19.4C136.6,50.4,136.6,50.5,136.6,50.5z"/>
		<path class="st2" d="M160.8,50.5V9.8h18.8v6h-11.7v10.5h9.1v6h-9.1v12h12.5v6h-19.6C160.8,50.4,160.8,50.5,160.8,50.5z"/>
		<path class="st2" d="M194.6,9.8H185c0,0,0,40.7,0,40.8h4.3V32.2h5.3c6.5,0,10.8-4.4,10.8-11.2C205.4,14.1,201.2,9.8,194.6,9.8z
			 M193.9,28.3h-4.6v-15h4.6c4.4,0,7,2.4,7,7.5C200.9,25.9,198.2,28.3,193.9,28.3z"/>
		<polygon class="st2" points="214.3,9.8 214.3,46.9 227.4,46.9 227.4,50.6 209.8,50.6 209.8,9.8 		"/>
		<path class="st2" d="M245.2,9.8c0,0-5.9,0-6,0l-8.9,40.7h4.3l2.4-12.1h10.4l2.4,12.1h4.3L245.2,9.8z M237.5,34.6l4.4-21.9h0.3
			l4.5,21.9H237.5z"/>
		<polygon class="st2" points="264.7,9.8 275.2,39.8 275.3,39.8 275.3,9.8 279.8,9.8 279.8,50.5 275.1,50.5 262.5,15 262.4,15 
			262.4,50.5 258.1,50.5 258.1,9.8 		"/>
		<polygon class="st2" points="304.7,9.8 304.7,13.5 296.3,13.5 296.3,50.6 291.9,50.6 291.9,13.5 283.5,13.5 283.5,9.8 		"/>
		<polygon class="st2" points="327.3,9.8 327.3,13.5 313.1,13.5 313.1,27.4 323.6,27.4 323.6,31.1 313.1,31.1 313.1,46.7 328,46.7 
			328,50.4 308.7,50.4 308.7,9.7 327.4,9.7 		"/>
		<path class="st2" d="M340.3,9.8h-7.6v40.8h7.6c8.5,0,13.8-4.7,13.8-20.4C354.1,14.5,348.8,9.8,340.3,9.8z M339.6,46.7h-2.4V13.3
			h2.4c6.4,0,10.1,2.8,10.1,16.7C349.7,43.9,346,46.7,339.6,46.7z"/>
	</g>
</g>
</svg>
