<svg xmlns="http://www.w3.org/2000/svg" width="160" height="180" viewBox="0 0 160 180">
  <path d="M5.026,114.825c.219,2.148.042,4.352.417,6.464.434,2.45,1.52,4.79,1.884,7.243a24.833,24.833,0,0,0,1.887,6.126,98.81,98.81,0,0,0,8.908,15.95,27.75,27.75,0,0,0,7.348,7.8c3.545,2.41,6.918,5.12,10.859,6.979A122.907,122.907,0,0,0,55.314,172.8c2.771.783,5.41,1.876,8.355,1.795,1.077-.029,2.158.116,3.238.169,2.881.139,5.294,2.154,8.368,1.821,2.892-.313,5.32-2.163,8.34-2.04a17.319,17.319,0,0,0,5.272-.863,77.58,77.58,0,0,0,18.692-8.144,52.192,52.192,0,0,0,11.98-9.091c4.158-4.5,7.509-9.581,11.192-14.422,1.512-1.988,2.775-4.165,4.151-6.256.093-3.126,2.272-5.161,3.825-7.562a20.741,20.741,0,0,0,2.714-5.833,51.692,51.692,0,0,1,3.755-8.907,62.176,62.176,0,0,0,2.68-5.872c1.3-3.707,2.1-7.614,3.662-11.2,1.315-3.028.406-6.548,2.469-9.309a2.1,2.1,0,0,0,.4-.99c.212-2.151.309-4.315.6-6.455a30.684,30.684,0,0,1,.921-3.082c1.234-5.019,1.3-9.935-1.273-14.639A15.168,15.168,0,0,1,152.892,58a22.429,22.429,0,0,0-4.512-9.665c-2.482-3.057-3.779-6.969-7.017-9.489a10.008,10.008,0,0,1-2.929-3.148,22.564,22.564,0,0,0-9.679-9.8,5.9,5.9,0,0,1-2.091-2.415c-.7-1.352-1.9-2.027-2.966-2.964-5.424-4.743-11.486-8.556-17.5-12.455-2.04-2.419-5.3-2.039-7.78-3.394a13.588,13.588,0,0,0-6.277-1.257c-1.8-.07-3.6-.014-5.4-.014v0c-2.161,0-4.324.039-6.484-.011a11.439,11.439,0,0,0-6.2,1.5c-1.546.9-3.287,1.467-4.816,2.39-3.368,2.032-6.747,4.068-9.939,6.358a26.212,26.212,0,0,0-4.581,4.571c-1.142,1.364-1.906,3.038-2.983,4.464a5.3,5.3,0,0,1-3.493,2.342,9.376,9.376,0,0,0-4.869,2.123c-2.769,2.283-6.257,3.523-8.848,6.069-2.508.8-4.191,2.7-6.021,4.439-4.462,4.246-8.614,8.7-10.832,14.607a2.294,2.294,0,0,1-.57.912c-2.6,2.282-3.034,5.616-4.249,8.578-1.223,2.978-2.986,5.72-3.538,8.989-.355,2.1-1.767,3.9-1.835,6.161a19.265,19.265,0,0,1-1.258,7.383c-.975,2.244-.848,4.95-1.7,7.269A17.152,17.152,0,0,0,3.31,97.824c.037,2.883-.04,5.768-.062,8.652a11.654,11.654,0,0,0,.9,5.263A9.559,9.559,0,0,1,5.026,114.825Zm7.138-21.981a4.878,4.878,0,0,1,.493-2.07A12.161,12.161,0,0,0,13.944,85.6a22.885,22.885,0,0,1,1.9-10.486c.9-1.868.421-4.409,1.358-6.24C19.82,63.758,20.85,58,23.884,53.077c1.314-2.134,2.307-4.454,4.122-6.272a14.951,14.951,0,0,0,2.752-3.312,19.926,19.926,0,0,1,8.3-8.177c1.557-.859,2.865-2.16,4.371-3.128a1.4,1.4,0,0,1,1.9.432,1.111,1.111,0,0,1-.027.9c-.573,1.337-1.172,2.71-.177,4.043a8.694,8.694,0,0,0,2.3,2.19,2.247,2.247,0,0,0,2.014.067,33.5,33.5,0,0,0,8.119-8.482c4.1-5.938,9.467-10.827,14.891-15.557a13.626,13.626,0,0,1,5.666-3c3.139-.71,5.928-2.567,9.29-2.531,3.423.036,6.132,1.884,9.038,3.2a52.429,52.429,0,0,1,12,7.093c.533.441,1.43.466,1.917.934,4.4,4.238,9.5,7.647,14.033,11.7a176.4,176.4,0,0,1,13,12.959c2.387,2.628,4.152,5.824,6.17,8.784,1.006,1.477,1.9,3.033,2.938,4.487a7.35,7.35,0,0,1,1.461,3.981c.14,2.877.231,5.756.342,8.634l-.282,0c0,2.16.034,4.321-.014,6.48a11.176,11.176,0,0,1-.33,3.215c-1.676,5.088-3.146,10.279-5.291,15.169-2.447,5.575-4.284,11.4-7.11,16.819-4.476,8.591-8.741,17.293-13.146,25.921a16.422,16.422,0,0,1-2.386,3.53c-2.172,2.4-4.408,4.758-6.741,7-10.946,10.538-6.226,7.031-20.208,13.891-1.277.627-2.659,1.531-3.974,1.5-3.709-.087-6.8,2.313-10.486,2.229-5-.115-10.078.64-14.812-1.739a3.671,3.671,0,0,0-1.064-.155A62.371,62.371,0,0,1,46.05,161.35c-1.964-.858-3.8-1.96-6.021-2.244-2.271-.292-3.418-2.579-5.336-3.5a19.044,19.044,0,0,1-8.253-6.758c-2.644-4.243-6.226-8.011-7.7-12.878-1.244-4.11-2.762-8.119-4.021-12.216a25.758,25.758,0,0,1-.69-4.233,13.324,13.324,0,0,0-.328-3.211C10.562,108.651,12.408,100.68,12.164,92.844Z"/>
</svg>
