<svg xmlns="http://www.w3.org/2000/svg" width="120" height="90" viewBox="0 0 120 90">
  <path d="M116.1,26c.31-3.091-1.832-5.99-1.154-9.231a26.214,26.214,0,0,0,.147-3.122,4.985,4.985,0,0,0-1.828-4.1q-3.351-3.27-6.724-6.519a4.049,4.049,0,0,0-4.349-.816c-2.606.924-5.095,1.1-7.448-.519a3.7,3.7,0,0,0-2.927-.528c-5.639.8-11.43.1-16.992,1.716-5.839-1-11.3,1.474-16.982,2-3.072.283-6.1,1.094-9.256.807-4.185-.38-8.047,1.97-12.387,1.24C31.507,6.137,27.127,8.9,22.41,8.9c-1.186,0-1.664,1.107-1.672,2.315A2.747,2.747,0,0,0,23.38,14.3c1.035.076,2.2.57,3.078.249,5.813-2.129,11.064-1.291,16.438,1.789,5.548,3.178,12.1,2.876,18.245,3.93,3.563.612,7.162,1.673,10.831.49.5-.16,1-.3,1.512-.413a3.243,3.243,0,0,1,1.506-.216c.927.307,2.134.611,2.569,1.32a2.911,2.911,0,0,1-.11,2.765,70.579,70.579,0,0,1-7.106,6.113C56.106,40.958,41.952,51.713,27.492,62.038c-7.272,5.193-12.94,12.07-19.877,17.583-1.531,1.217-2.239,3.464-3.35,5.222-.914,1.446-.174,2.754,1.686,3.315,3.092.931,6.109,1.231,9.092-.422,2.72-1.506,5.3-3.372,8.678-3.2,2.273.119,3.726-1.205,5.162-2.889A12.323,12.323,0,0,1,33.7,77.83c5.061-1.748,9.114-5.03,13.469-7.889,3.47-2.279,6.653-4.991,10.794-6.241a12.093,12.093,0,0,0,6.01-4.833,24.8,24.8,0,0,1,8.452-6.841c1.314-.729,3.826.089,3.788,1.38-.239,7.969,1.822,15.392,5.182,22.525.581,1.235,4.2,2.686,5.545,2.043a50.327,50.327,0,0,0,5.484-2.982c2.557-1.638,4.726-1.407,6.984.644a2.638,2.638,0,0,0,3.961-.353A12.991,12.991,0,0,0,106.1,71.56c2.041-5.851,1.71-12.434,5.714-17.729.857-1.132.791-3,1.048-4.541.517-3.094.964-6.2,1.44-9.3l-.282-.044C114.732,35.3,115.627,30.67,116.1,26Z"/>
</svg>
