<svg xmlns="http://www.w3.org/2000/svg" width="385" height="50" viewBox="0 0 385 50">
  <path d="M273.386,25.1c4.354-2.227,8.964-1.474,13.5-1.676,4.168-.186,8.387.335,12.414-1.485,1.309-.592,2.993-.425,4.509-.47,3.824-.113,7.652-.108,11.476-.236,1.513-.051,3.223.066,4.489-.584,3.254-1.67,6.7-1.351,10.106-1.546,4.92-.281,9.991.608,14.6-1.958,4.687.387,8.928-1.727,13.426-2.432,2.973-.466,5.824-1.809,8.8-2.146,3.847-.436,7.243-2.13,10.87-3.152a1.32,1.32,0,0,0,.721-1.932c-.281-.629-.7-1.535-1.217-1.666-3.741-.937-7.583-.663-11.395-.676q-27.546-.1-55.093-.154-17.791-.029-35.583.045c-1.888.009-3.972-.107-5.619.621-3.328,1.47-6.735,1.113-10.147,1.291-2.659.139-5.311.415-7.966.63-2.7,1.907-5.836,1.491-8.865,1.727a18.227,18.227,0,0,0-5.587.879,19.259,19.259,0,0,1-7.837,1.325,14.842,14.842,0,0,0-7.75,1.611c-5.384.038-10.147,3.3-15.621,2.989a7.128,7.128,0,0,0-3.306.73,16.919,16.919,0,0,1-6.677,1.381,11.827,11.827,0,0,0-4.467.721,20.1,20.1,0,0,1-7.791,1.555,13.784,13.784,0,0,0-4.416.956,15.535,15.535,0,0,1-5.57,1.1c-2.291.071-4.578.272-6.867.416-3.837,2.308-8.154,1.648-12.309,1.992-1.143.1-2.423-.123-3.409.318-5.473,2.452-11.273,1.576-16.955,1.858-2.29.114-4.591.039-6.887.04a18.553,18.553,0,0,0-6.671,1.289c-3.541,1.339-7.405,1.52-11.073,2.586-2.488.723-5.318.263-7.994.338-3.06.085-6.213-.261-9.157.368-4.468.955-8.782,2.657-13.343.532-.271-.127-.711.107-1.072.174a35.858,35.858,0,0,1-4.48.81c-6.442.364-13.021-.474-19.17,2.312q-4.013.163-8.024.325c-1.911.074-4.067-.41-5.686.312-4.065,1.816-8.243,1.4-12.417,1.416s-8.445.424-12.355-1.667c-2.289-.038-4.579-.093-6.868-.1a3.13,3.13,0,0,0-1.052.335,1.6,1.6,0,0,0-1.061,1.829c.049.761.241,1.566,1.057,1.81,5.464,1.637,10.9,3.435,16.743,3.109A16.487,16.487,0,0,1,32.2,44.127a12.139,12.139,0,0,0,4.47.676c3.441.107,6.887.067,10.33.086v0c3.061.018,6.134-.122,9.181.094,3.538.251,6.739-.914,10.053-1.76a19.794,19.794,0,0,1,4.573-.154c5.738-.066,11.478-.08,17.215-.209a11.59,11.59,0,0,0,4.462-.7c2.549-1.166,5.167-1.232,7.846-1.255,6.5-.056,13.009-.106,19.512-.221,1.513-.027,3.224.1,4.489-.541,2.907-1.476,5.953-1.229,8.983-1.357,2.292-.1,4.591-.028,6.886-.056,1.913-.024,3.841.051,5.735-.159,2.226-.247,4.423-.754,6.634-1.149,2.708,1.155,5.076-.974,7.76-.77a72.338,72.338,0,0,0,9.171-.248,8.534,8.534,0,0,0,3.342-.567c2.873-1.457,5.919-1.294,8.971-1.406s6.084-.382,9.126-.583c3.115-2.007,6.627-1.529,10.049-1.6,3.809-.082,7.612.13,11.223-1.685,1.274-.641,2.991-.481,4.511-.53,3.059-.1,6.124-.026,9.181-.151a12,12,0,0,0,4.467-.69,18.868,18.868,0,0,1,7.806-1.448c2.664-.061,5.323-.349,7.984-.538,3.52-2.031,7.422-1.552,11.219-1.658,3.824-.106,7.653-.03,11.479-.086C270.382,25.445,272.138,25.739,273.386,25.1Z"/>
</svg>
