<svg xmlns="http://www.w3.org/2000/svg" width="350" height="120" viewBox="0 0 350 120">
  <path d="M325.07,29.229c-6.451-.467-12.909-.852-19.35-1.43-4.313-.388-8.6-1.057-12.9-1.587a8.757,8.757,0,0,0-2.585-.2c-6.307,1.189-12.459-.657-18.69-.873a12.223,12.223,0,0,0-3.22-.112c-5.431,1.351-10.71-.681-16.107-.612-8.156.1-16.324-.573-24.484-.983-6.233-.314-12.457-.836-18.692-1.063-5.792-.21-11.595-.088-17.39-.227-8.592-.207-17.18-.542-25.771-.773a237.751,237.751,0,0,0-30.926.713c-10.9,1.126-21.817,2.266-32.756,2.8-7.927.39-15.849,1.3-23.88.09-6.339-.955-12.872-.6-19.313-.942-.689-.036-1.336-.844-2-1.294.584-.491,1.121-1.332,1.759-1.419,6.2-.838,12.39-1.856,18.621-2.227,10.1-.6,20.145-1.581,30.166-3.043,14.924-2.177,29.87-4.067,44.971-4.938,9.907-.571,19.757.057,29.63-.179,3.431-.082,6.873.339,10.31.523q11.925.637,23.852,1.265c6.447.33,12.893.69,19.344.923,4.946.178,9.9.054,14.847.287,9.676.455,19.379-.041,29,2.04,5.858,1.267,12.024,1.037,18,1.874,7.114,1,14.233,2.136,21.227,3.748a83.548,83.548,0,0,1,14.147,4.834c3.309,1.424,6.27,4.407,6.223,7.887-.052,3.87-.6,7.945-4.888,10.788-7.661,5.078-16.146,6.261-24.819,6.732-11.806.643-23.638.837-35.462,1.085q-13.536.283-27.079.2-10.968-.063-21.932-.556c-10.748-.479-21.541-.022-32.245-1.543-1.678-.239-3.436.146-5.138,0-12.79-1.072-25.6-1.806-38.342-3.582-8.3-1.158-16.74-1.433-25.129-1.876-5.571-.293-11.165-.1-16.744-.274-9.051-.283-18.028-.189-26.858,2.349-2.639.758-5.572.423-8.32.884a220.891,220.891,0,0,0-37.557,9.7c-4.494,1.6-9.185,2.637-13.764,4a28.123,28.123,0,0,0-4.212,1.677c-1.677.813-.7,2.121.1,2.454a23.841,23.841,0,0,0,6.853,2.082,216.544,216.544,0,0,0,33.528-.017c9.257-.6,18.471.35,27.71.01,6.217-.228,12.463-.171,18.677.142,8.588.432,17.184-.388,25.792.8,5.044.7,10.284-.114,15.435-.1,7.94.021,15.881.319,23.819.224,10.953-.132,21.908,1.716,32.857-.035,7.419,1.808,15.249-.042,22.585,2.538.827.291,1.735.361,2.548.679,2.021.789,2.526,2.449.861,3.8-2.694,2.186-5.448,4.541-8.578,5.909-14.311,6.255-29.161,11.073-44.035,15.792-3.924,1.245-7.93,2.232-11.875,3.419-.474.142-.8.793-1.189,1.209.579.257,1.162.748,1.734.735,3.643-.087,7.289-1.4,10.918.05a22.912,22.912,0,0,1,2.237,1.184,9.528,9.528,0,0,1-1.7,2.435c-5.067,3.762-11.025,3.335-16.859,3.344a58.955,58.955,0,0,1-6.425-.372,11.71,11.71,0,0,1-4.473-.992,7.69,7.69,0,0,1-3.426-3.56c-.293-.835,1.042-2.688,2.1-3.475a64.312,64.312,0,0,1,16.233-8.409c14.832-5.532,29.834-10.539,45.081-14.8a13.747,13.747,0,0,0,1.48-.6c-.572-.262-1.159-.781-1.711-.746-5.8.372-11.6.841-17.4,1.262-2.142.156-4.3.147-6.43.4-8.967,1.051-18,1.1-27,1.841-8.318.687-16.756-.067-25.14-.229-4.521-.087-9.04-.245-13.559-.4q-9.667-.333-19.335-.71c-9.45-.358-18.922-.439-28.344-1.168-9.322-.722-18.661-.33-28.006-1.228-6.832-.656-13.291-2.431-19.92-3.688-3.573-.677-6.294-2.914-8.954-5.1-2.37-1.944-2.3-4.574.072-6.769a51.492,51.492,0,0,1,17.04-10.8c5.474-2.028,11.259-3.344,16.508-5.819,4.63-2.184,9.494-3.062,14.292-4.42,11.1-3.141,22.521-4.1,33.919-5.406a109.415,109.415,0,0,1,24.423-.474c9.466,1.059,18.98.666,28.443,2.119,8.656,1.329,17.582.84,26.376,1.357,4.1.241,8.155,1.09,12.25,1.439,4.918.42,9.864.514,14.784.913,3.881.314,7.737.914,11.612,1.313a45.594,45.594,0,0,0,8.36.588c5.618-.473,11.154,2.148,16.763.287,7.9,1.48,15.921,1.012,23.885,1.429s15.929.7,23.9.876c8.607.191,17.218.18,25.828.276,6.155.068,12.055-1.481,17.844-3.231,2.583-.781,5.26-2.23,5.748-5.7.409-2.907-.012-4.147-2.752-4.99-2.31-.71-4.7-1.164-7.053-1.732C325.043,29.639,325.056,29.434,325.07,29.229Z"/>
</svg>
