<svg xmlns="http://www.w3.org/2000/svg" width="556" height="50" viewBox="0 0 556 50">
  <path d="M387.351,22.451c5.981-2.253,29.192,4.092,35.443,3.864,5.741-.21,11.558.287,17.093-1.556,1.8-.6,4.119-.442,6.208-.5,5.268-.134,10.542-.151,15.809-.3,2.085-.06,4.441.048,6.18-.609,4.471-1.689,10.624,2.824,15.317,2.61,6.776-.31,13.769.55,20.1-2.042,6.461.361,12.287-1.778,18.479-2.509,4.093-.482,8.01-1.841,12.106-2.2,5.3-.459,9.962-2.172,14.951-3.214,1.124-.235,1.493-1.113.978-1.937-.391-.627-.972-1.531-1.689-1.658-5.162-.916-10.453-.62-15.7-.612-25.3.041-52.008,1.491-77.311,1.565-16.341.048-49.536-5.494-65.877-5.37-2.6.02-5.473-.084-7.737.653-4.573,1.489-9.27,1.152-13.969,1.349-3.662.154-7.314.445-10.97.676-3.7,1.922-8.029,1.524-12.2,1.777a33.908,33.908,0,0,0-7.69.911,35.6,35.6,0,0,1-10.787,1.37c-3.736-.006-7.358-2.548-10.665-1.154-7.418.069-13.954.552-21.5.269a12.99,12.99,0,0,0-4.55.749,30.992,30.992,0,0,1-9.189,1.419,21.906,21.906,0,0,0-6.148.746,36.908,36.908,0,0,1-10.722,1.6,25.238,25.238,0,0,0-6.077.981,28.478,28.478,0,0,1-7.665,1.133c-3.156.085-6.306.3-9.459.456-5.267,2.33-11.221,1.694-16.942,2.062-1.574.1-3.339-.11-4.694.338-7.522,2.483-15.52,1.64-23.346,1.954-3.154.127-6.324.065-9.488.08a34.074,34.074,0,0,0-9.181,1.327c-4.868,1.359-10.19,1.562-15.236,2.648-3.422.737-7.324.294-11.011.384-4.215.1-8.561-.226-12.612.42-6.149.98-12.08,2.707-18.38.608a4.131,4.131,0,0,0-1.475.181c-2.055.287-4.095.741-6.167.835-8.873.4-31.987-3.209-40.438-.388q-5.526.188-11.052.371c-2.632.085-5.606-.387-7.831.345-5.586,1.838-11.346,1.443-17.1,1.486-5.766.043-11.632.472-17.036-1.6-3.154-.025-6.309-.067-9.464-.06a5.528,5.528,0,0,0-1.446.341c-1.177.338-1.534.951-1.448,1.835a1.783,1.783,0,0,0,1.47,1.8c7.542,1.606,15.042,3.373,23.093,3.013A30.664,30.664,0,0,1,41.16,40.043a22.6,22.6,0,0,0,6.163.651c4.742.088,9.489.028,14.234.028v0c4.217,0,8.449-.158,12.649.041,4.876.231,23.321,1.856,27.881.992a37.417,37.417,0,0,1,6.3-.181c7.906-.1,15.814-.145,23.717-.307a21.5,21.5,0,0,0,6.142-.723c3.5-1.18,7.108-1.26,10.8-1.3,8.961-.093,17.923-.181,26.882-.332,2.084-.035,4.442.083,6.18-.567,3.994-1.493,8.193-1.263,12.367-1.408,3.157-.11,6.324-.054,9.486-.095,2.636-.035,5.292.029,7.9-.192,3.065-.259,6.089-.78,9.13-1.187,3.741,1.14,6.986-1,10.686-.814,4.182.213,8.424-.124,12.634-.3a15.8,15.8,0,0,0,4.6-.586c3.947-1.473,8.145-1.328,12.35-1.457s8.379-.417,12.568-.636c4.277-2.024,9.12-1.566,13.834-1.659,5.247-.1,10.487.086,15.448-1.749,1.75-.648,4.118-.5,6.212-.555,4.214-.116,8.437-.061,12.648-.2a22.227,22.227,0,0,0,6.149-.716A34.8,34.8,0,0,1,338.86,25.3c3.669-.076,7.331-.379,11-.583C354.689,22.667,360.07,23.123,365.3,23c5.267-.128,10.543-.074,15.814-.152C383.214,22.813,385.637,23.1,387.351,22.451Z"/>
</svg>
