<svg xmlns="http://www.w3.org/2000/svg" width="410" height="110" viewBox="0 0 410 110">
  <path d="M296.971,37.694a21.314,21.314,0,0,1,11.27-9.617,2.634,2.634,0,0,1,2.874.737c2.651,4.7,5.37,9.367,5,15.107a7.784,7.784,0,0,0,.916,3.05,13.881,13.881,0,0,1,.446,9.5,42.413,42.413,0,0,0-1.849,8.361c-2.771,4.657-2.256,9.683-1.559,14.7a2.281,2.281,0,0,0,1.353,1.432c.55.193,1.677.063,1.886-.3,1.591-2.793,3.053-5.661,4.489-8.539,1.174-2.353.984-4.945.851-7.425a22.915,22.915,0,0,1,3.073-13.409c1.5-2.487,1.365-5.506,3.046-8.007a59.345,59.345,0,0,0,4.348-8.646c1.182-2.6,2.537-5.138,2.958-8.041.092-.632.731-1.209,1.187-1.754a2.4,2.4,0,0,1,.9-.539c.671-.292,1.31.056,1.319,1,.1,10.085.244,20.172.139,30.256-.044,4.254.673,8.651-1.611,12.7-.48.85-.264,2.12-.288,3.2-.121,5.4-.244,10.806-.294,16.21A14.66,14.66,0,0,0,337.9,90.8a1.159,1.159,0,0,0,.624.777,1.507,1.507,0,0,0,1.024-.253,12.7,12.7,0,0,0,4.7-5.71c2.082-4.178,3.087-8.776,5.259-12.916a40.4,40.4,0,0,0,1.343-4.057c1.569-3.989,2.8-8.116,4.668-11.979,2.519-5.2,3.227-10.945,5.066-16.337a30.446,30.446,0,0,0,1.041-6.338,16.527,16.527,0,0,1,.483-3.179c.757-2.278,1.679-4.5,2.74-7.29a28.768,28.768,0,0,1,.613,3.7c.14,7.2.218,14.41.316,21.615.109,8.084.1,8.088,2.256,15.841a1.034,1.034,0,0,0,1.58.778,5,5,0,0,0,.906-.544c1.529-1.266,1.679-3.087,1.957-4.866a1.819,1.819,0,0,1,.478-.934c.422-.429.864-.131,1.313.724,1.165,2.218,2.276,4.47,3.567,6.612,1.468,2.436,5.435,2.813,7.605.818,2.648-2.436,5.294-4.863,6.805-8.263.231-.522,1.066-.776,1.635-1.147,1.988,2.711,1.711,6.063,2.552,9.1a1.142,1.142,0,0,0,.652.737,1.547,1.547,0,0,0,1-.338,4.284,4.284,0,0,0,2.133-3.528q.057-15.14-.015-30.28a6.924,6.924,0,0,0-.646-3.122c-1.248-2.345-.87-4.945-1.459-7.377-.213-.881-.828-1.184-1.489-.929a1.955,1.955,0,0,0-.91.516c-.594.877-1.489,1.78-1.569,2.733a91.193,91.193,0,0,0-.414,10.795,33.4,33.4,0,0,1-2.28,12.612,73.5,73.5,0,0,1-7.13,14.427c-.641,1.01-1.851.945-2.933.952a2.815,2.815,0,0,1-2.386-1.805c-.475-2.449-.5-4.917-1.534-7.344-1.391-3.257-1.379-6.956-2.5-10.392-.755-2.309-.307-5-.472-7.519-.14-2.143.091-4.479-.7-6.37a22.017,22.017,0,0,1-1.39-8.445,10.141,10.141,0,0,0-2.384-6.978,6.921,6.921,0,0,1-1.921-4.881,28.4,28.4,0,0,0-.3-4.309,5.348,5.348,0,0,0-2.318-3.484,1.312,1.312,0,0,0-1.922.071,14.147,14.147,0,0,0-4.228,9.626c-.182,3.239-.146,6.492-.388,9.725-.242,3.217-2.086,6.052-2.2,9.39-.07,2.069-1.574,4.085-1.666,6.16-.263,5.9-2.523,11.147-4.747,16.423-.836,1.983-1.92,3.827-2.141,6.055-.086.876-.858,1.134-1.286.745a1.485,1.485,0,0,1-.537-.894c-.047-5.768-.026-11.536-.08-17.3-.027-2.883.393-5.937-.414-8.6A53.692,53.692,0,0,1,343.9,23.465a6.005,6.005,0,0,0-2.191-3.611c-1.572-1.519-4.629-1.349-5.773.3-1.025,1.472-2,2.977-2.981,4.483a132.224,132.224,0,0,0-6.568,12.362,19.522,19.522,0,0,0-2.1,6.04c-.045.311-.529.851-.618.815a5.347,5.347,0,0,1-1.783-1c-1.377-1.378-1.314-3.249-1.594-5.022A16.737,16.737,0,0,0,314.2,26.775a6.293,6.293,0,0,0-2.856-1.352c-2.855-.377-5.71-.5-8.472.8-1.373.645-1.632.33-1.883-1.512-.194-1.422-.322-2.854-.549-4.27-.1-.639-1.987-1.647-2.691-1.522a11.823,11.823,0,0,0-2.091.4c-4.421,1.662-7.89,4.942-12.013,7.118-4.644,4.521-10.62,7.438-14.9,12.4-.561.649-1.425.858-1.723.391-.319-.5-.529-1.529-.24-1.892,5.212-6.552,8.085-14.386,11.955-21.668a6.231,6.231,0,0,0,.442-2.08,2.011,2.011,0,0,0-.14-1.06c-.293-.626-.551-1.449-1.074-1.737a2.227,2.227,0,0,0-2,.055c-2.251,1.787-4.379,3.729-6.552,5.614-2.426,2.105-5.315,3.872-7.155,6.4a71.855,71.855,0,0,1-6.513,7.165c-2.736,2.87-5.55,5.665-8.336,8.487s-5.543,5.674-8.379,8.444-5.739,5.441-8.615,8.157c-4.319,1.221-5.086,5.863-8.066,8.373a18.648,18.648,0,0,1-3.366,2.657,19.867,19.867,0,0,0-5.052,4c-2.554,2.545-5.064,5.134-7.648,7.648-2.323,2.26-4.724,4.441-7.084,6.663-.724.681-1.334.657-1.718-.173a1.155,1.155,0,0,1,.042-1,44.445,44.445,0,0,1,4.841-5.712c2.523-2.222,3.283-5.592,5.643-7.85,4.456-4.262,7.729-9.408,10.937-14.605a20.133,20.133,0,0,1,1.221-1.774c1.756-2.266,3.96-4.139,5.29-6.8,1.113-2.223,2.884-4.111,4.061-6.31,1.36-2.542,4.02-4.191,4.742-7.129,4.531-5.253,6.866-11.755,10.077-17.757.622-1.162-.667-3.079-2.057-3.059a4.736,4.736,0,0,0-2.1.2,16.716,16.716,0,0,0-3.479,2.481q-8.153,7.9-16.192,15.916-11.52,11.421-23,22.887a5.735,5.735,0,0,1-4.741,1.789c.879-3.193,3.983-4.87,5.308-7.868.819-1.855,2.829-3.181,4.3-4.749,2.947-3.142,6.289-6.01,8.72-9.511,2.267-3.264,5-6.078,7.352-9.219,3.194-4.273,6.513-8.516,8.518-13.54a2.134,2.134,0,0,0-.58-1.852,3.375,3.375,0,0,0-1.93-.464,1.6,1.6,0,0,0-.93.478c-6.859,5.82-12.794,12.566-19.028,19.014a4.822,4.822,0,0,0-.633.869c-3.763,6.237-9.305,10.832-14.525,15.719a1.849,1.849,0,0,1-.9.258,6.007,6.007,0,0,1,1.082-3.887c5.654-6.918,9.415-15.032,14.164-22.522a47.946,47.946,0,0,0,3.847-7.633,8.161,8.161,0,0,0,.067-5.277c-.184-.649-2.171-1.651-2.687-1.306-2.073,1.386-4.531,2.439-6.123,4.251-2.836,3.231-6.663,5.27-9.439,8.514-1.621,1.9-3.632,3.509-4.988,5.565a13.92,13.92,0,0,1-3.748,3.628,9.242,9.242,0,0,0-2.811,3.15c-1.815,3.639-5.077,5.952-7.693,8.849-.912,1.009-1.819,2.138-3.315,2.363a9.635,9.635,0,0,1,.426-3.052c1.693-3.56,3.593-7.021,5.348-10.552a10.287,10.287,0,0,0,.385-2.038c.241-.962.086-1.1-.693-.873-1.839.53-2.833,2.053-4.106,3.249-1.989,1.869-2,1.859-4.4-.76a2.368,2.368,0,0,0-2.926-.306c-1.1.914-2.265,1.77-3.268,2.783q-14.049,14.178-28.045,28.409a15.1,15.1,0,0,0-2.886,3.184c-2.391,4.574-6.375,7.736-9.757,11.426-2.429,2.65-4.989,5.179-7.45,7.8a5.074,5.074,0,0,0-1.149,4.013c-1.336-.217-2.987.338-3.793-1.248a5.043,5.043,0,0,1,.052-4.1A23.863,23.863,0,0,0,106,74.367a33.952,33.952,0,0,1,1.9-7.157c1.034-2.583.255-5.686,1.928-8.19,1.309-5.73,1.184-11.218-2.77-16.03a1.85,1.85,0,0,0-.82-.389,13.4,13.4,0,0,0-.261-2.053,2.345,2.345,0,0,0-4.125-.912,5.78,5.78,0,0,0-2.033,3.688c-.11,2.519-.34,5.038-.338,7.556.006,9.009.11,18.018.12,27.028a37.224,37.224,0,0,1-.454,4.215c-.086.75-.226.784-.651.327-1.309-1.406-.788-3.451-1.851-4.966a9.523,9.523,0,0,1-1.289-5.172c-.075-1.435.157-3.07-.449-4.258-1.373-2.7-1.568-5.5-1.671-8.389a7.328,7.328,0,0,0-.655-3.123,13.022,13.022,0,0,1-1.2-6.269c-.054-3.963-.309-7.922-.383-11.885a10.66,10.66,0,0,0-1.329-5.156A24.354,24.354,0,0,1,86.529,20.9c0-.313-.349-.612-.437-.944-.2-.756-2.074-1.29-2.78-.706-.819.677-1.876,1.346-2.229,2.253-1.162,2.988-2.607,6.029-2.9,9.149-.349,3.679-2.479,6.765-2.673,10.391-2.579,3.306-1.116,7.839-3.41,11.231-.4,2.876-1.792,5.426-2.659,8.148S67.8,65.881,66.949,68.6c-.288.92-.786,1.24-1.157.871a1.427,1.427,0,0,1-.44-.941c.094-1.784-.129-3.717.495-5.309a17.587,17.587,0,0,0,1.48-7.321,18.067,18.067,0,0,1,1.58-8.364c.7-1.563-1.369-4.441-3.365-4.858-1.412-.3-3.033-.3-3.968,1.014-3.519,4.945-8,9.241-10.139,15.133a13.418,13.418,0,0,1-1.893,2.611C47.711,64.1,45.6,66.62,44.15,69.475a153.493,153.493,0,0,1-11.469,18.16,33.083,33.083,0,0,1-3.094,4.373c-4.029,4.118-8.178,8.119-12.326,12.118-1.379,1.33-2.516.934-4.071-1.3-.778-1.119-1.581-1.245-2.463-.41-1.266,1.2-1.31,2.463-.063,3.631a5.428,5.428,0,0,0,1.711,1.253,7.76,7.76,0,0,0,5.3.014,20.5,20.5,0,0,0,7.472-4.2c2.824-2.778,5.469-5.757,8.446-8.358,6.895-6.021,11.133-14.026,16.164-21.414,2.2-3.233,3.772-6.884,6.021-10.169,2.208-3.226,3.554-7.033,5.387-10.528a11.528,11.528,0,0,1,2.079-2.412.92.92,0,0,1,.834-.209c.278.164.648.621.586.843-.863,3.089-2.091,6.091-2.1,9.372-1.722,2.9-1.905,6.134-2.117,9.373a4.2,4.2,0,0,1-.392,2.083C57.783,74.8,59,78.78,57.286,82.056c-1.391,2.659-.844,5.638-.448,8.481.072.52.9,1,1.465,1.373a1.764,1.764,0,0,0,2.017-.181c2.7-1.585,3.1-4.745,4.807-7.029A44.227,44.227,0,0,0,71.7,71.25c.959-3.071,2.074-6.094,3.137-9.132,1.18-3.372,2.972-6.66,3.146-10.209.167-3.384,2.478-5.984,2.588-9.3.03-.914.783-1.185,1.162-.744a1.614,1.614,0,0,1,.441.949c-.21,7.135,1.233,14.4-1.633,21.339a5.906,5.906,0,0,0-.177,2.144c-.033,5.766-.07,11.533-.058,17.3,0,1.964,1.778,7.888,3.117,10.1a2.019,2.019,0,0,0,1.894.289,13.5,13.5,0,0,0,3.544-7.645c.192-1.787.245-3.592.518-5.365A3.764,3.764,0,0,1,90.4,79.136a5.984,5.984,0,0,1,1.772-1.094,1.728,1.728,0,0,1,.575.848,11.6,11.6,0,0,0,4.039,7.362c2.113,1.9,4.566,2.044,7.081,1.647a5.523,5.523,0,0,0,4.514-4.1,5.17,5.17,0,0,0,4.026-1.093c2.61-2.467,5.22-4.936,7.751-7.483,4.3-4.332,8.547-8.723,12.817-13.09,2.8-5.135,7.3-8.8,11.236-12.95,4.921-5.192,10.246-10.029,14.053-16.2a9.966,9.966,0,0,1,2.36-2.146,1.074,1.074,0,0,1,.909-.219,1.215,1.215,0,0,1,.6.85,7.273,7.273,0,0,1-.087,3.169c-1.48,3.254-2.764,6.741-4.934,9.5-2.709,3.445-4.381,7.378-6.546,11.07-4.339,7.4-8.812,14.728-12.352,22.568a7.419,7.419,0,0,1-1.148,1.813c-3.123,3.578-4.532,8.12-6.819,12.165-.472.835-.241,2.1-.226,3.159,0,.29.349.649.631.837a1.058,1.058,0,0,0,.876.087c2.738-1.231,4.544-3.579,6.079-5.927,3.719-5.689,8.16-10.855,11.751-16.625a18.806,18.806,0,0,1,1.747-2.688,76.724,76.724,0,0,1,5.93-6.251c2.478-2.218,3.491-5.413,5.684-7.8,3.622-3.947,7.724-7.5,10.285-12.338,3.763-3.853,7.507-7.725,11.316-11.532a5.321,5.321,0,0,1,1.845-.8,6.035,6.035,0,0,1-1.824,4.8c-2.668,2.478-4.187,5.822-6.487,8.536-2.335,2.754-4.286,5.735-6.386,8.638-5.668,7.835-10.251,16.427-16.632,23.761a8.7,8.7,0,0,0-1.055,1.865q-3.849,7.709-7.681,15.425a1.776,1.776,0,0,0,.314,1.948c.727,1.014,1.976,1.434,2.71.9,4.4-3.2,7.833-7.423,11.681-11.2,1.9-1.863,3.926-2.99,6.724-2.653a7.378,7.378,0,0,0,5.205-.955c2.651-1.831,5.364-3.6,7.845-5.642,3.323-2.738,6.531-5.577,10.045-8.114,3.471-2.507,6.352-5.836,9.462-8.834s6.162-6.062,9.3-9.033a12.965,12.965,0,0,1,2.648-1.724,1.139,1.139,0,0,1,.943.14c.221.138.493.634.417.742-1.032,1.463-2.225,2.821-3.175,4.332-2.856,4.543-5.937,8.905-9.154,13.211a76.536,76.536,0,0,0-9.832,16.608,11.879,11.879,0,0,0-.71,5.262,2.963,2.963,0,0,0,3.015,2.458,5.452,5.452,0,0,0,2.1-.321,77.117,77.117,0,0,0,14.409-9.312c1.674-1.358,3-3.247,4.827-4.293,4.465-2.556,7.807-6.336,11.414-9.819,5.959-5.755,11.77-11.662,17.683-17.465,2.05-2.011,4.2-3.916,6.348-5.828a1.382,1.382,0,0,1,1.049-.149c.937.2,1.214.763.66,1.41-2.338,2.729-5.189,5.151-6.95,8.206-1.856,3.219-4.763,5.374-6.8,8.305-2.663,3.823-5.576,7.453-8.308,11.219a2.13,2.13,0,0,0,.344,1.926,2.166,2.166,0,0,0,1.831.7c6.3-2.1,10.589-7.206,15.83-10.887A52.414,52.414,0,0,0,256.6,57.88c2.695-3.016,6.519-4.45,9.3-7.285s5.589-5.619,8.453-8.357c2.076-1.985,4.043-4.215,6.458-5.674a35.815,35.815,0,0,0,5.858-4.694c2.635-2.452,5.22-4.957,7.817-7.45.741-.711,1.314-.657,1.675.249a1.488,1.488,0,0,1,.084,1.006c-2.262,5.307-5,10.266-9.205,14.385-4.352,4.262-8.833,8.466-11.788,13.933-5.218,5.074-8.142,11.792-12.5,17.492-1.388,1.816-1.158,4.079-.685,6.24.151.692,2.173,1.627,2.7,1.247a58.711,58.711,0,0,0,12.172-12.141,44.482,44.482,0,0,1,3.2-4.3,62.126,62.126,0,0,0,11.059-15.8C292.839,43.491,295.207,40.823,296.971,37.694ZM393.993,57.67l.72-1.412c1.06,1.27-.035,1.215-.72,1.412l-.082.159-.1-.1A1.471,1.471,0,0,1,393.993,57.67ZM104.232,44.824a2.5,2.5,0,0,1,1.862-2.09c0-.062,0-.123,0-.184l.148.126c-.051.017-.1.039-.149.058-.106,5.88.682,11.78-.4,17.635-.058.312-.393.573-.6.858a5.6,5.6,0,0,1-.632-.735,2,2,0,0,1-.368-.934C104.107,54.646,104.091,49.732,104.232,44.824ZM63.943,76.431a2.248,2.248,0,0,1-.559-.833,1.689,1.689,0,0,1,.042-1.043,3.207,3.207,0,0,1,.692-.79c.2.291.4.582.6.873A1.493,1.493,0,0,1,63.943,76.431ZM166.606,40.6a3.673,3.673,0,0,1-.811,1.353c-.588.448-.991.044-.541-.543a3.675,3.675,0,0,1,1.352-.81c.03-.061.057-.125.089-.183l.095.093C166.732,40.539,166.668,40.567,166.606,40.6Zm19.634-8.749-.068-.066c.033,0,.055-.018.087-.024a2.075,2.075,0,0,1,2.041-2.042c0-.043.024-.073.029-.117.035-.008.057-.026.091-.035-.027-1.723.038-3.4,2.025-4.1,0-.067.006-.135.01-.2h0l.317-.159.711-1.187.507.576-1.218.611-.178.3c-.057.018-.1.044-.149.063a15.876,15.876,0,0,1-.156,1.931,2.471,2.471,0,0,1-1.869,2.172c0,.042,0,.084,0,.126-.047,0-.078.021-.122.026a2.227,2.227,0,0,1-2.041,2.042C186.256,31.791,186.242,31.814,186.24,31.848Zm2.2,13c-.073.043-.154.081-.233.121a3.5,3.5,0,0,1-.724,1.32c-.677.575-1.05.227-.534-.515a3.263,3.263,0,0,1,1.258-.8c.035-.082.068-.166.107-.243Zm4.213,10.838a5,5,0,0,1-1.056,3.78c-1.2,1.24-2.481,2.4-3.764,3.551a.833.833,0,0,1-.8.007,1.288,1.288,0,0,1-.256-1.825c1.687-2.116,3.152-4.5,5.879-5.513v-.119l.089.08C192.708,55.655,192.682,55.672,192.651,55.683Z"/>
</svg>
