<svg xmlns="http://www.w3.org/2000/svg" width="140" height="106" viewBox="0 0 140 106">
  <g>
    <path d="M138.349,96.85c.206,2.428-.068,5.426-2.529,6.321-2.557.931-4.482-1.7-5.9-3.6-3.343-4.458-6.461-9.091-9.516-13.753a14.042,14.042,0,0,0-7.01-5.814c-4.264-1.627-8.266-3.947-12.826-4.78a25.206,25.206,0,0,0-4.362-.576c-12.492-.052-24.984.018-37.476-.089a22.333,22.333,0,0,0-8.192,1.384A167.8,167.8,0,0,0,23.075,89.152c-2.667,1.6-5.728,2.529-7.966,4.89-.244.257-1.441-.3-2.129-.624-.142-.066-.12-.839.057-1.158a10.746,10.746,0,0,1,1.637-2.405c.682-.688,2.259-.466,2.06-2.062-1.048.364-2.109.7-3.144,1.1-2.889,1.124-5.748,2.331-8.664,3.381A3.611,3.611,0,0,1,2.6,92.213c-.671-.258-1.469-.8-.66-1.859a38.289,38.289,0,0,1,7.572-6.905c6.169-4.7,13.519-6.919,20.736-8.577a124.192,124.192,0,0,0,20.319-7.009c8.9-3.733,18.08-6.016,27.781-5.245a58.406,58.406,0,0,1,9.568,1.925c4.1,1.038,8.414,1.035,12.378,2.857,2.794,1.284,5.818,2.047,8.4,3.831a7.693,7.693,0,0,0,2.69,1.2A43.862,43.862,0,0,1,132,83.421C135.589,86.679,138.334,92.091,138.349,96.85Zm-3.051-.015c.305-3.1-.169-6.284-2.937-8.718l-2.607-2.29c.3,1.176.594,2.354.909,3.526.209.781.5,1.542.67,2.33.476,2.218.775,4.484,1.414,6.651a11.308,11.308,0,0,0,1.861,2.8c.23-.991.477-1.979.68-2.977A8.459,8.459,0,0,0,135.3,96.835Z"/>
    <path d="M72.122,9.916a5.9,5.9,0,0,0-1.009.788q-4.9,6.165-9.769,12.359c-3.036,3.869-2.892,7.826.494,11.48,1.81,1.953,3.771,3.766,5.625,5.679a1.241,1.241,0,0,1-.7,2.132,11.842,11.842,0,0,1-3.778-.5c-3.32-.987-5.522-3.524-7.86-5.88-1.766-1.779-2.387-1.757-3.878.272-1.354,1.844-2.432,3.89-3.725,5.784-2.307,3.378-4.612,6.79-8.184,9a6.8,6.8,0,0,1-2.308.45c-.14-.881-.59-1.856-.358-2.625a21.816,21.816,0,0,1,2.235-5.415c3.077-4.854,4.985-10.369,8.693-14.881,1.327-1.615.59-3.567-.093-5.583-2.06-6.085-3.388-12.342-1.244-18.742.215-.643.849-1.534,1.367-1.591a2.745,2.745,0,0,1,2.1.943c2.742,3.548,4.217,7.722,5.64,11.913.459,1.351.546,2.159,2.387.624s3.687-4.521,7.173-2.981c.366.162,1.37-1.3,2.166-1.886a35.5,35.5,0,0,1,3.714-2.409C70.959,8.762,71.526,9.418,72.122,9.916Z"/>
    <path d="M111.833,29.791a10.919,10.919,0,0,1-.641,1.149q-4.555,6.131-9.138,12.243a8.317,8.317,0,0,1-1.344,1.464,3.584,3.584,0,0,1-1.172.4c-.085-.311-.3-.652-.235-.93a21.037,21.037,0,0,1,.92-3.26,37.4,37.4,0,0,1,2.307-4.9c.79-1.335,0-1.267-.879-1.335a1.43,1.43,0,0,1-1.288-2.143c.85-2.084,1.471-4.232,3.305-5.917,3-2.756,3.059-3.083.426-6.258a27.342,27.342,0,0,1-5.376-9.859,6.325,6.325,0,0,1-.425-1.894,7.046,7.046,0,0,1,.556-1.812c.586.207,1.329.253,1.733.647,2.5,2.44,5,4.893,7.343,7.479a38.726,38.726,0,0,1,2.989,4.3c1.321-1.26,2.654-2.51,3.961-3.785,1.862-1.817,3.754-3.607,5.538-5.5.989-1.048,1.623-1.086,2.771-.082,1.4,1.224,1.665-.871,2.557-1.263.42-.185.81-.441,1.213-.665.105.627.518,1.45.264,1.847-1.678,2.623-3.405,5.228-5.3,7.7-1.806,2.352-3.9,4.478-5.744,6.806-1.18,1.494-.982,2.126.672,3.119,3.092,1.856,6.231,3.636,9.3,5.534.421.26.861,1.159.71,1.512a2.373,2.373,0,0,1-1.5,1.127c-2.135.493-3.784-.8-5.533-1.7-.247-.128-.613-.026-.923-.03.007.262-.076.576.039.777.487.85,1.06,1.65,1.552,2.5.774,1.334,1.319,2.919,3.169.874.692-.765,1.553-.1,1.591.932a6.827,6.827,0,0,1-.307,2.41c-.91,2.695-2.371,3.185-4.218,1.139a88.226,88.226,0,0,1-5.652-7.431c-.965-1.328-1.806-2.747-2.691-4.132C112.2,30.582,112.08,30.279,111.833,29.791Z"/>
  </g>
</svg>
