<svg xmlns="http://www.w3.org/2000/svg" width="355" height="50" viewBox="0 0 355 50">
  <path d="M347.372,21.813q-12.026.312-24.05.622c-12.352.3-24.628,1.9-37.024,1.742-10.986-.14-21.975.132-32.972-.015-9.407-.127-18.792-.291-28.195-.68C218.256,23.2,211.37,23.2,204.5,22.6a34.034,34.034,0,0,0-5.456.383c-11.286.863-22.629-.754-33.914.887-3.608.525-7.269-1.725-10.987-.223a9.455,9.455,0,0,1-1.976.349c.741.353,1.515,1.07,2.217,1.005,7.56-.7,15.125,1.545,22.673-.07,12.813,1.736,25.9-1.079,38.613,2.293,8.477-.618,16.6,1.69,24.846,2.985,1.874.294,3.862.468,4.574,2.567.194.576-.512,2.1-.826,2.111-9.837.184-19.527,2.06-29.359,2.414q-12.306.444-24.595,1.809c-8.374.929-16.9.405-25.341.833-9.189.467-18.3-.807-27.468-.947-7.632-.116-15.246-2.253-22.824-3.725-.747-.145-1.017-2.564-1.8-2.758-1.461-.363-3.136.129-4.722.272s-3.262.7-4.749.375c-7.1-1.528-14.243-.112-21.364-.538-7.514-.449-15.08.049-22.621-.028-4.369-.045-8.748-.733-13.1-.555-8,.327-15.659-1.8-23.487-2.629-4.729-.5-9.561,0-14.345-.049-.459,0-1.029-.7-1.311-1.209a1.273,1.273,0,0,1,.445-1.17c1.892-.8,3.793-1.945,5.766-2.119,5.688-.5,11.22-2.573,17.077-1.594a12.965,12.965,0,0,0,4.754-.6c19.471-4.417,39.4-5.889,59.076-8.936a288.865,288.865,0,0,1,40.925-3.025c9.837-.107,19.644-.414,29.47-.715,7.791-.239,15.612.767,23.427.972,8.24.216,16.493-.018,24.73.243,5.525.175,11.026.983,16.55,1.3,6.644.38,13.306.446,19.95.813,9.206.51,18.4,1.3,27.605,1.719,5.021.226,10.067-.076,15.1-.145,4.8-.067,9.608-.2,14.412-.2,5.726,0,11.484-.25,17.171.255,5.81.516,11.554,1.8,17.321,2.781,2.307.392,4.6.874,6.9,1.315Z"/>
</svg>
