<svg xmlns="http://www.w3.org/2000/svg" width="289.687" height="83.152" viewBox="0 0 289.687 83.152">
  <path d="M280.9,17.782c.226,1.981.37,3.251.516,4.529-.625.51-1.058,1.119-1.619,1.278-3.545,1.009-7.088,2.063-10.689,2.833-10.352,2.215-41.874,4.292-52.239,6.444-7.856,1.632-38.152,3.376-46.027,4.909-3.615.7-25.795,1.109-29.463,1.5-5.421.573-10.9.746-16.276,1.562-9.593,1.455-19.264.74-28.855,1.432-12.9.93-25.064,5.171-36.839,10.4-3.974,1.764-7.835,3.8-11.657,5.88a39.118,39.118,0,0,0-4.629,3.589c4.759,1.8,9,1.36,13.156.526,5.112-1.027,10.171-2.34,15.217-3.666,13.449-3.535,27.145-4.279,40.961-3.778a9.637,9.637,0,0,1,2.618.237c1.635.536,3.206,1.27,4.837,1.936v2.646c-3,.617-6.093,1.585-9.241,1.824-4.782.362-9.607.922-14.323,1.081-11.24.379-21.915,3.305-32.793,5.389-3.632.695-7.329,1.1-11.013,1.459-5.064.5-8.837-1.4-13.135-6.537C41.645,52.059,51.883,48.591,60.128,42.5H17.561c.55.995,1.035,1.875,1.521,2.755-3.022.358-3.022.358-6.041-3.129a6.745,6.745,0,0,1,5.217-4.238c5.52-1.163,10.949-2.865,16.512-3.68C40.8,33.329,47.034,33.732,53,32.628c9.4-1.739,18.823-.66,28.211-1.221a67.221,67.221,0,0,0,12.232-1.87c10.539-2.634,20.942-5.834,31.522-8.276,6.547-1.511,31.808-2.112,38.49-3.007,9.6-1.286,41.65-2.758,51.291-3.62,11.542-1.033,44.3-.658,55.854-.217C274.1,14.55,277.522,16.623,280.9,17.782Zm-21.247,2.147a21.848,21.848,0,0,0,11.411,0Zm-30.5,1.456-.211.259.34.056Z"/>
</svg>
