<svg xmlns="http://www.w3.org/2000/svg" width="260" height="40" viewBox="0 0 260 40">
  <path d="M18.606,22.764a41.549,41.549,0,0,1-4.8-1.307,12.263,12.263,0,0,1-3.733-2.227A3.549,3.549,0,0,1,9.216,16.6c.124-1.347,1.384-.864,2.318-1.057,6.334-1.315,12.651.079,18.972-.025,3.376-.055,6.838,1.026,10.052-.923.378-.229,1.148-.392,1.384-.185,2.7,2.369,5.892.243,8.873,1.006,3.02.772,6.427.078,9.662-.053,3.081-.126,6.158-.379,9.238-.532,6.786-.335,13.49-1.473,20.251-2.051,6.64-.567,13.262-1.421,19.912-1.777,6.626-.355,13.276-.264,19.916-.34,7.39-.085,14.7.816,22.043,1.55,10.172,1.018,20.407,1.386,30.6,2.187,5.194.408,10.36,1.174,15.543,1.743,4.852.534,9.7,1.08,14.566,1.513,5,.446,10.013.869,15.028,1.1a99.935,99.935,0,0,1,13.328,1.13c2.9.527,5.815.965,8.689,1.6a1.538,1.538,0,0,1,.635,2.677,7.912,7.912,0,0,1-3.958,1.57c-8.474-.131-16.764,2.023-25.212,1.921-3.721-.045-7.442.87-11.168-.019a4.3,4.3,0,0,0-1.926.158c-6.418,1.577-13,1.126-19.389.585-5.268-.446-10.469,1.34-15.652-.128-3.466,1.595-7,.586-10.516.295a9.749,9.749,0,0,0-2.358.345c-.784.134-1.716.638-2.322.376-4.253-1.837-8.741-.338-13.133-1.057-5.269-.863-10.786-.31-16.192-.207-5.236.1-10.468.527-15.7.572a35.738,35.738,0,0,1-7.741-.807c-6.92-1.483-13.916-.621-20.871-.927-6.308-.278-12.609-.435-18.921-.937-6.1-.484-12.291-.686-18.449-.813-3.235-.066-6.464-.419-9.7-.632-2.266-.15-4.608-.711-6.783-.33C26.147,24.849,22.415,23.76,18.606,22.764Z"/>
</svg>
