<svg xmlns="http://www.w3.org/2000/svg" width="325" height="175" viewBox="0 0 325 175">
  <path d="M322.309,82.6c-1,3.034-1.861,6.075-3.005,9.007-.988,2.533-2.409,4.9-3.438,7.415-2.232,5.462-6.305,9.732-9.3,14.688-3.286,5.429-8.307,8.779-13.358,12.313-5.207,3.644-9.87,8.056-14.863,12.016a17.272,17.272,0,0,1-7.122,3.888c-2.5.569-5.754,1.561-7.171,4.774-.326.737-2.678,1.47-3.248,1.05-2.079-1.53-2.6-.04-3.8,1.129-2.791,2.706-5.012,3.177-10.191,3.036-.535-.014-1.534.339-1.553.581-.333,4.316-4.075,2.845-6.344,3.747-6.79,2.7-13.487,5.775-20.488,7.758-6.817,1.931-13.683,4.314-21.049,3.564a8.973,8.973,0,0,0-4.873.964c-5.482,2.939-11.165,2.091-16.871,1.292-.552-.077-1.429-.9-1.51-.81-2.417,2.738-5.692,1.273-8.5,1.621-7.459.925-14.862,2.313-22.478,2.23-2.163-.024-4.12-1.895-6.5-.437-2.038,1.251-3.956-.175-5.9-1.13-1.751-.859-3.379,3.141-5.529.5-4.257,1.764-8.536.48-12.845.35-2.177-.065-4.063.14-5.961-1.176a5.335,5.335,0,0,0-3.089-.613c-4.171.191-8.416,1.131-12.472.588-2.836-.379-6.137,1.27-7.834.107-2.816-1.928-6.1,1.491-8.221-1.568-6.59,1.688-10.951-4.556-17.005-4.78-3.452-4.422-9.195-4.15-13.71-6.469a127.9,127.9,0,0,1-23.837-15.407,54.788,54.788,0,0,1-15.913-22c-2.463-6.256-2.006-12.593.461-19.155C7.765,93.751,12.417,87.2,17.993,81.089a80.79,80.79,0,0,1,9.1-8.6c2.834-2.276,5.018-5.265,8.178-7.361,5.143-3.413,9.866-7.454,14.857-11.105,3.818-2.794,7.882-5.257,11.644-8.12a99.312,99.312,0,0,1,11.351-6.938c5.614-3.195,11.824-5.482,16.677-9.973a2.141,2.141,0,0,1,1.162-.377c2.381-.257,5.1.8,6.927-1.621,1.726-2.288,4.547-1.968,6.769-3.051,4.32-2.106,8.528-4.479,12.97-6.281,4-1.622,8.262-2.593,12.388-3.916,3.18-1.02,6.3-2.889,9.5-3,3.076-.105,5.568-2.258,8.776-1.623,1.195.236,2.692-1.042,4.049-1.635.766-.336,1.536-.993,2.288-.969a13.375,13.375,0,0,0,6.743-1.039,18.623,18.623,0,0,1,5.684-1.1c6.46-.581,12.839-1.756,19.351-2.123,4.97-.281,9.915-.379,14.537.887,4.535,1.243,9.143,1.785,13.645,2.89,2.081.511,3.945,2.326,5.654,3.836a13.414,13.414,0,0,0,10.691,3.651c3.108-.26,6.368.727,9.5,1.43a146.472,146.472,0,0,1,15.295,3.887,195.846,195.846,0,0,1,18.612,7.485A145.183,145.183,0,0,1,290.449,34.9a94.017,94.017,0,0,1,20.143,17.138c5.884,6.54,9.793,13.707,11.238,22.256A73.481,73.481,0,0,1,322.309,82.6ZM13.972,120.975c-.447,3.79,1.052,5.9,3.842,7.871a56.706,56.706,0,0,0,19.527,8.583,151.277,151.277,0,0,0,26.337,3.853c2.124,2,4.352-.3,6.649.183,4.641.966,9.479.556,14.158.89,4.906.349,10.114-1.357,14.819,1.3,3.882-2,7.992-.5,11.97-.621,6.126-.192,12.164-1.382,18.386-.975,2.818.185,5.851-.044,8.8-.048,2,0,4.094-1.376,5.971-1.069,7.766,1.269,15.339-.882,23.025-.977a93.926,93.926,0,0,0,19.25-2.611c2.862-.644,5.818.694,8.119-.42,4.479-2.168,9.4-1.594,14-3.32,6.959-2.61,14.654-2.915,21.542-6.22,4.318-2.073,9.032-3.3,13.459-5.169,3.486-1.469,6.8-3.355,10.2-5.015,5.036-2.454,10.181-4.7,15.111-7.354a118.189,118.189,0,0,0,14.135-8.38c5.188-3.816,10.7-7.119,15.854-10.963,5.672-4.233,10.779-9.015,14.342-15.179a8.062,8.062,0,0,0-1.531-10.285c-5.261-5.033-11.854-7.964-18.136-11.379-.359-.2-.894-.517-1.147-.387-3.042,1.555-5.107-.9-7.445-1.882-3.859-1.625-7.525-3.708-11.378-5.349-1.585-.676-3.526-2.017-5.028.614a2.923,2.923,0,0,1-2.805.488c-3.164-2.736-7.23-.981-10.672-2.4-2.426-1-5.223-1.062-7.778-1.807-4.46-1.3-9.047-.423-13.52-.588-3.968-.146-8.049.065-12.1.051-6.465-.023-12.935.643-19.4,1.062a9.221,9.221,0,0,0-3.626.606c-4.675,2.491-10.462,1.187-14.883,4.448-.1.077-.383,0-.537-.089-2.6-1.449-4.6,1.152-7.149,1.087-2.314-.06-4.606,1.869-7.022,2.348-4.074.807-7.65,3.222-12.036,3.143-3.083-.055-6.513.167-9.211,1.464-7.184,3.455-14.489,5.65-22.534,5.623-4.731-.016-9.387-.126-13.408-2.761-1.326-.869-1.763-.342-2.635.173-1.723,1.018-3.892,3.164-5.145,2.73-3.454-1.2-3.149,2.507-5.158,3.093-6.208,1.812-11.09,6.314-17.035,8.761-2.712,1.117-5.023,3.539-7.783,4.132a22.291,22.291,0,0,0-10.517,5.1c-1.885,1.659-4.241,3.884-6.391,3.891-3.5.011-3.932,3.144-6.17,4.313-5.731,2.994-10.82,7.125-16.842,9.68-.984.418-1.429,1.966-2.316,2.783-1.715,1.58-3.567,3.012-5.363,4.5-2.2-2.1-2.768.246-3.761,1.391-2.073,2.389-4.165,4.762-6.183,7.195C15.8,118.321,14.919,119.675,13.972,120.975Z"/>
</svg>
