<svg xmlns="http://www.w3.org/2000/svg" width="230" height="110" viewBox="0 0 230 110">
  <path d="M16.3,71.042c-.664,3.906-1.495,7.793-1.935,11.724-.335,2.991-.128,6.041-.273,9.06-.026.538-.6,1.049-.914,1.573-.444-.473-1.218-.907-1.278-1.424a93.545,93.545,0,0,1-1.068-12.168c.057-3.487,1.452-6.963,1.422-10.437-.029-3.357,2.525-6.522.627-9.937,1.766-6.243,3.47-12.5,5.32-18.721,1.109-3.723,2.337-7.42,3.709-11.054,1.493-3.958,4.277-6.895,7.54-9.6,3.941-3.265,6.7-1.815,9.557,2.447a14.316,14.316,0,0,1,2,4.775c1.589,7.166,3.31,14.323,4.438,21.568,2.25,14.465,6.885,28.177,12.414,41.639.207.5.857.826,1.3,1.233.24-.594.711-1.2.685-1.781-.426-9.9,1.107-19.72.116-29.726a93.925,93.925,0,0,1,2.059-30.487c1.331-5.723,1.606-11.679,4.24-17.109.664-1.37,1.235-2.5,2.742-1.768a3.038,3.038,0,0,1,1.224,2.5c-.711,6.927-1,13.881-1.864,20.813-.863,6.908-1.792,13.92-1.355,21.02.222,3.607-.311,7.351-.543,11-.445,7,1.538,13.724,1.34,20.629a3.917,3.917,0,0,0,.437,1.227c.144.4.275.809.412,1.214a6.882,6.882,0,0,0,1.136-1.239c1.854-3.4,4.191-6.645,5.381-10.267,3.366-10.249,8.073-20,10.871-30.47,1.381-5.17,3.722-10.1,5.787-15.066,1.645-3.96,3.779-7.73,5.246-11.749,1.852-5.077,5.258-8.929,8.958-12.6A8.217,8.217,0,0,1,109.3,6.035a3.24,3.24,0,0,1,4.493,2.507,14.279,14.279,0,0,1,.573,5.132c-1.077,7.181-1.87,14.477-3.866,21.416-.887,3.087-1.952,6.162-2.539,9.355a7.551,7.551,0,0,0,.126,1.882,11.379,11.379,0,0,0,1.036-1.956c3.1-10.13,5.6-20.447,9.4-30.352a28.755,28.755,0,0,1,3.894-6.7A4.358,4.358,0,0,1,125.686,5.9c.587.026,1.625,1.713,1.567,2.591-.409,6.228.39,12.549-2.267,18.606-1.421,3.24-1.712,6.976-2.508,10.489-1.88,8.3-3.565,16.644-5.7,24.873-1.3,4.986-3.319,9.782-4.953,14.684a5.76,5.76,0,0,0,.04,1.9,8.316,8.316,0,0,0,1-1.112c3.433-5.489,6.647-11.127,10.314-16.454,4.226-6.138,6.119-13.292,9.351-19.843a12.285,12.285,0,0,0-.845-13.247,12.227,12.227,0,0,1-1.063-3.066c-.452-1.421.567-1.238,1.388-1.234a1.108,1.108,0,0,1,.633.152c1.341,1.028,2.663,2.08,3.991,3.125,1.035-1.829,2.15-3.618,3.076-5.5.534-1.086.38-3.166,2.122-2.47.954.382,1.36,2.354,1.809,3.678a3.163,3.163,0,0,1-.269,1.935c-2.148,5.538-.115,9.492,4.277,13.049,5.554,4.5,10.792,9.392,16.126,14.162a52.042,52.042,0,0,1,11.335,13.445c.277.5.49,1.043.733,1.566a14.307,14.307,0,0,0,.784-1.741c1.419-4.692-.366-9.065-1.84-13.272-2.216-6.325-5.093-12.437-5.381-19.263A22.676,22.676,0,0,1,170,26.505c.554-2.179,3.081-2.533,4.483-.727,1.617,2.084,3.471,4.129,4.49,6.505,4.427,10.318,12.017,17.4,21.9,22.28,4.631,2.284,8.755,5.66,14.051,6.533a2.38,2.38,0,0,1,1.075.7c1.076,1.02,2.121,2.075,3.178,3.117-1.371.073-2.825.48-4.1.166-14.034-3.454-26.548-9.506-34.989-21.833-2.183-3.188-3.517-6.954-5.306-10.42-.24-.465-.862-.733-1.308-1.092-.21.6-.728,1.285-.583,1.778,1.086,3.7,2.374,7.339,3.461,11.037,1.586,5.4,3.373,10.767,4.483,16.267.991,4.91-.908,7.4-5.405,9.757-6.781,3.552-13.145,3.553-20.5.736-6.77-2.592-11.974-6.2-15.274-12.356-1.595-2.977-2.153-6.51-3.181-9.79-.122-.389-.251-.776-.376-1.163a5.475,5.475,0,0,0-.824.979c-2.034,4.033-3.795,8.228-6.113,12.089-3.666,6.1-7.527,12.111-11.676,17.893-1.333,1.858-3.785,2.961-5.847,4.207a2.209,2.209,0,0,1-1.974-.783,15.783,15.783,0,0,1-.683-5.1c.475-6.177,1.175-12.336,1.745-18.506a5.563,5.563,0,0,0-.371-1.653,5,5,0,0,0-.691,1.06A141.952,141.952,0,0,1,95.044,89.777c-2.556,4-4.935,8.118-7.475,12.131a6.459,6.459,0,0,1-2.258,2.227,2.127,2.127,0,0,1-1.94-.823,4.006,4.006,0,0,1,.22-2.571C86.283,93.636,87.885,86.2,90.169,79c2.67-8.413,3.734-17.324,7.752-25.351.627-1.252.418-3.108.923-4.743,1.731-5.6,2.915-11.364,4.505-17.009.991-3.518,2.318-6.942,3.541-10.392.212-.6.862-1.083.958-1.677.518-3.219.925-6.456,1.371-9.686-1.59,2.631-3.487,5.128-4.717,7.918-5.29,12-10.509,24.032-15.491,36.161-2.207,5.373-3.5,11.122-5.732,16.485-2.467,5.94-5.462,11.667-8.382,17.408A8.913,8.913,0,0,1,72.11,90.8c-3.554,2.634-4.171,2.491-6.672-1.208-.261-.386-.587-.728-.883-1.09a5.758,5.758,0,0,0-.5,1.165A52.93,52.93,0,0,1,62.82,96.14a5.264,5.264,0,0,1-2.474,2.721c-.432.222-1.833-.845-2.42-1.611-7.689-10.043-11.817-21.641-15-33.736-2.758-10.48-3.105-21.318-5.347-31.85a61.185,61.185,0,0,0-3.015-9.191c-.709-1.836-1.923-1.262-2.966-.138-3.338,3.593-4.6,8.264-6.411,12.623a64.071,64.071,0,0,0-2.925,9.253c-2.183,8.9-4.218,17.829-6.311,26.747Zm130.136-26.9c-.19.276-.606.661-.533.812a24.356,24.356,0,0,0,2.39,4.536,56.868,56.868,0,0,0,20.917,16.886,3.968,3.968,0,0,0,1.227.142c-.095-.52-.165-1.046-.3-1.556a1.18,1.18,0,0,0-.372-.534q-11.343-10.068-22.7-20.114C146.915,44.181,146.645,44.192,146.432,44.138Zm16.95,25.447a17.169,17.169,0,0,0,2.273.37,18.186,18.186,0,0,0,1.864-.235,6.189,6.189,0,0,0-1.695-.826c-3.781-.545-6.773-2.714-9.794-4.759A47.331,47.331,0,0,1,142.151,49.7a4.007,4.007,0,0,0-.949-.8c-.19.363-.615.791-.535,1.079,1.152,4.17,2.084,8.43,5.719,11.4C151.68,65.708,158.025,67.7,163.382,69.585Z"/>
</svg>
