<svg xmlns="http://www.w3.org/2000/svg" width="300" height="115" viewBox="0 0 300 115">
  <path d="M222.813,7.018c6.934,5.369,13.652,11.051,20.857,16.027,8.813,6.086,16.619,13.262,24.7,20.2,4.523,3.888,11.254,5.524,17.257,7.241,3.106.888,4.329,3.309,6.341,4.984.908.756,1.011,4.175.133,5.085-3.731,3.865-5.928,9.155-11.235,11.6-17.588,8.105-33.231,19.39-48.971,30.476a66.81,66.81,0,0,1-22.351,10.121c-1.079.273-2.357-.241-3.543-.391a24.8,24.8,0,0,1,1.749-3.617c7.375-10.6,18.926-16.214,28.788-23.814,7.75-5.973,16.078-11.194,24.071-16.859.81-.574,1.082-1.909,1.6-2.891a8.484,8.484,0,0,0-2.56-.748c-2.522.094-5.032.459-7.553.617-27.043,1.692-54.07,3.955-81.139,4.779-12.518.382-24.974,1.751-37.534,1.655-12.255-.094-24.527,1.762-36.781,1.654-19.6-.172-39.03,2.168-58.552,3.014-2.216.1-4.013,1.559-5.641,1.954a26.4,26.4,0,0,1-12.677-.283c-3.89-1.056-7.37-3.744-10.918-5.9a2.957,2.957,0,0,1,.138-5.282,26.288,26.288,0,0,1,4.484-1.634,218.964,218.964,0,0,1,74.8-10.434c13.812.5,27.679-.432,41.52-.782,15.731-.4,31.463-1.285,47.191-1.216,26.182.116,52.362.781,78.54,1.327,4.381.091,8.748.761,13.125,1.13a11.026,11.026,0,0,0,1.839-.145c-.388-.477-.682-1.123-1.181-1.4-4.18-2.347-8.163-5.656-12.661-6.682-6.419-1.465-11.557-5.106-17.3-7.69-2.855-1.285-5.835-2.292-8.758-3.426a14,14,0,0,1-3.479-1.407c-6.477-4.935-12.967-9.86-19.248-15.036-3.044-2.509-2.41-4.5,1.564-5.905,2-.706,2.642-1.6.9-3.223a10.163,10.163,0,0,0-1.586-1.072c-2.329-1.453-4.553-3.7-2.594-6.034,1.019-1.212,4.751-.973,6.861-.244,3.275,1.131,6.211,3.241,9.29,4.936ZM98.6,62.379a2.66,2.66,0,0,0-.871-.357c-12.557-.167-25.129-.74-37.666-.316-8.744.3-17.444,1.938-26.154,3.057a8.9,8.9,0,0,0-2.458,1.162,22.077,22.077,0,0,0,3.111,1.227c.553.134,1.222-.31,1.85-.365,15.608-1.371,31.24-2.141,46.916-1.976,4.688.05,9.381-.163,14.065-.4.621-.031,1.2-.9,1.8-1.377Z"/>
</svg>
