<svg xmlns="http://www.w3.org/2000/svg" width="330" height="50" viewBox="0 0 330 50">
  <path d="M322.81,9.146c-1.7-.229-3.423-.36-5.122-.625a20.337,20.337,0,0,1-5-1.034,15.426,15.426,0,0,0-6.252-1.328c-4.736-.009-9.473-.068-14.21-.106-4.29-.034-8.558-.348-12.608,1.915-1.4.784-3.358.571-5.067.655-3.439.17-6.851.2-10.038,1.984a8.688,8.688,0,0,1-3.766.672c-4.3.192-8.462.479-12.6,2.3-2.65,1.164-5.923.779-8.916,1.089-3.894,2.587-8.286,2-12.563,2.178-3.854.159-7.7.084-11.368,1.9-1.454.719-3.37.488-5.08.551-4.3.158-8.612.183-12.913.375-1.7.076-3.592.026-5.04.781-3.257,1.7-6.642,1.649-10.085,1.679-8.612.075-17.224.149-25.836.3-3.415.058-6.918-.391-10.116,1.423-1.645-.326-3.461-1.278-4.9-.847-2.924.876-5.585,2-8.568.142a5.9,5.9,0,0,0-2.739-.566,45,45,0,0,0-4.888.036,13.065,13.065,0,0,0-3.7.991,15.019,15.019,0,0,1-6.28,1.26c-5.167.03-10.335.072-15.5.185-4.7.1-9.4-.344-13.936,1.87-1.817.887-4.227.564-6.368.582-12.057.1-24.118-.029-36.17.264-6.808.165-13.759-.975-20.377,2.029-1.483.673-3.4.319-5.121.392-3.009.13-6.023.17-9.027.37a4,4,0,0,0-2.327.894A4.981,4.981,0,0,0,5.312,33.7a1.322,1.322,0,0,0,.373,1.122,16.388,16.388,0,0,0,9.463,3.643c5.6.12,11.2.193,16.788.44a18.856,18.856,0,0,1,6.308,1.024,13.886,13.886,0,0,0,11.246-.143c1.509-.626,3.639-1.018,4.994-.377,3.7,1.748,7.542,1.64,11.387,1.91a14.824,14.824,0,0,1,6.275,1.33,10.21,10.21,0,0,0,4.964,1.2c.861,0,1.723.016,2.584.022,6.028.037,12.056.153,18.083.09,6.417-.067,12.863.229,19.081-2.172,1.538-.594,3.413-.266,5.134-.31,3.443-.089,6.889-.1,10.332-.225,1.713-.062,3.64.177,5.089-.551,4.911-2.466,10.122-1.691,15.228-2.065,2.574-.189,5.155-.3,7.733-.443,4.348-2.622,9.179-1.919,13.869-2.242a14.273,14.273,0,0,0,5.044-.8c2.868-1.35,5.806-1.495,8.825-1.52,15.5-.129,31-.228,46.5-.437,5.111-.069,10.357.691,15.131-2.211a4.564,4.564,0,0,1,2.54-.313c5.727.4,10.759-3.059,16.384-3.185,3.832-2.049,8.234-2.466,12.032-4.679A6.661,6.661,0,0,0,284.06,19.1c1.188-3.343,3.827-4.613,7.123-4.682,4.305-.09,8.608-.313,12.913-.347a14.541,14.541,0,0,0,6.239-1.369,7.953,7.953,0,0,1,7.453.357,6.187,6.187,0,0,0,4.964.721,3.956,3.956,0,0,0,1.812-1.583C325.135,11.323,323.916,9.294,322.81,9.146Z"/>
</svg>
