<svg xmlns="http://www.w3.org/2000/svg" width="130" height="105" viewBox="0 0 130 105">
  <path d="M41.763,90.581c2.141-2.644,5.511-3.371,7.816-5.655.512-.507,1.042-1,1.572-1.483q3.574-3.287,7.152-6.568c4.059-.939,4.8-5.081,7.283-7.539a6.578,6.578,0,0,1,1.7-1.313A6.463,6.463,0,0,0,70.3,65.141a15.547,15.547,0,0,1,5.143-5.436,2.215,2.215,0,0,1,2.007-.126c3.687,2.834,7.759,5.1,11.169,8.382,3.334,3.2,6.283,6.984,10.725,8.888,3.635,4.04,8.789,6.236,12.484,10.161,3.989,4.238,8.875,7.27,13.547,10.6a2.555,2.555,0,0,0,1.967-.085c.728-.272.759-1.024.127-1.726-2.406-2.671-4.838-5.318-7.261-7.975-1.36-4.255-5.992-4.915-8.6-7.819-1.44-1.6-3.084-3.027-4.66-4.505-1.049-.983-1.994-2.243-3.244-2.815-3.4-1.555-5.628-4.448-8.307-6.812-3.226-2.849-6.03-6.164-9.983-8.169-1.229-.623-2.122-1.922-3.143-2.936a2.838,2.838,0,0,1-.335-3.868q3.285-3.579,6.587-7.141c1.807-4.5,5.61-7.4,8.7-10.863.956-1.072,2.245-2.027,2.748-3.288,1.125-2.824,3.5-4.521,5.306-6.729,2.725-3.333,6.41-5.808,8.5-9.738.406-.765,1.7-1.2,2.676-1.484a8.427,8.427,0,0,0,3.823-1.869c1.891-1.88,4.268-2.506,6.763-3.017.461-.094.748-1.04,1.11-1.584a1.3,1.3,0,0,0-.845-1.766,11.759,11.759,0,0,0-8.4.086c-3.946,1.643-8.122,3.018-11.38,6.006-2.13,1.954-5.171,2.549-7.052,4.892-1.834,2.284-4.813,3.213-6.8,5.2C86.6,26.708,78.5,32.878,73.138,41.618c-1.386,2.261-5.431,3.135-7.828,1.869a44.941,44.941,0,0,1-4.468-3c-1.8-1.251-4.349-.68-5.937-2.348-2.057-2.16-4.814-3.127-7.349-4.443-5.1-2.644-10.258-5.166-15.425-7.67S22.2,20.312,17.172,17.578A47.379,47.379,0,0,1,6.686,10.09,3.363,3.363,0,0,0,3.646,9.4a5.437,5.437,0,0,0-1.867.908,1.681,1.681,0,0,0,.365.959c2.777,2.8,5.584,5.577,8.383,8.359,6.626,3.56,12.376,8.533,19.279,11.688A179.183,179.183,0,0,1,46.05,39.729c5.253,3.083,10.479,6.19,15.93,8.909a1.528,1.528,0,0,1,.775.716,7.109,7.109,0,0,1,.316,2.011,1.563,1.563,0,0,1-.49.943c-3,3.1-5.886,6.347-9.082,9.24-3.257,2.948-5.063,6.965-8.025,10.1-.247.262-.491.527-.744.784-3.769,3.844-7.832,7.429-10.65,12.11-2.677.921-3.12,3.825-4.912,5.55-2.074,2-4.043,4.105-5.971,6.244a36.778,36.778,0,0,0-2.521,3.419c-.46.648.511,2.413,1.434,2.466a7.142,7.142,0,0,0,3.169-.159c2.885-1.3,4.761-4.53,8.479-4.359.58.026,1.265-.652,1.784-1.131A59.862,59.862,0,0,0,41.763,90.581Z"/>
</svg>
