<svg xmlns="http://www.w3.org/2000/svg" width="245" height="120" viewBox="0 0 245 120">
  <g>
    <path d="M101.831,35.551c0-4.613-.341-9.259.095-13.831a109.422,109.422,0,0,1,2.595-13.91A9.421,9.421,0,0,1,106.749,4c1.379-1.572,2.238-1.308,3.238.764a8.313,8.313,0,0,1,1.161,2.979c.123,3.29.624,6.757-.208,9.835-.788,2.915.691,5.675-.66,8.674-1.078,2.393-.463,5.6-.4,8.444.127,5.7-1.127,11.151-2.694,16.557a8.352,8.352,0,0,1-1.316,2.936c-.576.71-1.7,1.551-2.4,1.415a2.894,2.894,0,0,1-1.548-2.263c-.132-5.928-.071-11.861-.071-17.792Z"/>
    <path d="M182.225,32.739c-1.162,2.692-1.923,5.225-3.258,7.409-4.175,6.828-8.107,13.923-15.416,18.09a10.675,10.675,0,0,1-3.465,1.518c-2.748.411-3.46-.839-2.916-3.72,1.134-6,5.152-10.454,8.373-15.2,3.271-4.824,7.607-8.934,11.576-13.266.4-.435,1.48-.244,2.244-.344.021.595.28,1.335.022,1.759-1.088,1.786.683,1.464,1.326,2.02A15.216,15.216,0,0,1,182.225,32.739Z"/>
    <path d="M54.065,47.039c-.494.341-.822.763-1.131.75-2.537-.107-2.2,1.069-1.262,2.623,3.028,5,5.97,10.051,9.077,15,1.959,3.12,4.24,6.038,6.18,9.168.469.756.163,1.994.213,3.01-1.187-.013-2.492.283-3.531-.115a12.934,12.934,0,0,1-3.8-2.461c-5.069-4.5-10.241-8.9-15-13.707-2.078-2.1-3.422-5.005-4.758-7.712-.509-1.033-.193-2.557.009-3.815a2.151,2.151,0,0,1,1.336-1.322,1.9,1.9,0,0,1,1.53.65c1.414,1.623,2.7,3.358,4.1,4.989.192.223.823.186,1.193.074.131-.039.229-.72.1-1a22.626,22.626,0,0,1-1.733-3.51c-.429-1.662-.683-3.379.812-4.9,1.9-1.933,3.185.262,4.709.576C52.832,45.49,53.394,46.426,54.065,47.039Z"/>
    <path d="M203.952,100.744c-1.223,0-1.447.029-1.661,0-1.383-.214-3.226.729-3.875-1.386s1.075-2.922,2.442-3.111c2.874-.4,1.283-3.622,3.232-4.49,4.137-1.842,8.131-4.075,12.389-5.557,6.86-2.388,13.885-4.306,20.848-6.4a3.632,3.632,0,0,1,1.911-.2,15.435,15.435,0,0,1,2.562,1.26,7.128,7.128,0,0,1-1.37,2.016,10.85,10.85,0,0,1-2.421.8c-1.008.393-2.4.608-2.9,1.373-3.813,5.845-10.6,6.037-16.109,8.578-1.955.9-4.061,1.287-5.515,3.117C210.792,100.131,206.837,100.391,203.952,100.744Z"/>
    <path d="M36.219,117.009c-4.153-1.037-8.343-1.949-12.448-3.149A104.77,104.77,0,0,1,12.2,109.9c-3.674-1.559-7.759-2.928-8.707-7.676-.151-.759-.488-1.909-.138-2.239a2.826,2.826,0,0,1,2.372-.472c4.1,1.273,8.173,2.649,12.215,4.1,5.661,2.03,11.287,4.157,16.929,6.24a31.183,31.183,0,0,1,4.228,1.587,41.945,41.945,0,0,1,4.167,2.93,6.738,6.738,0,0,1-5.629,2.2c-.435-.042-.877-.006-1.316-.006C36.286,116.712,36.252,116.861,36.219,117.009Z"/>
  </g>
</svg>
