<svg xmlns="http://www.w3.org/2000/svg" width="225" height="105" viewBox="0 0 225 105">
  <path d="M176.086,100.241c-2.36.651-4.685,1.436-7.074,1.852-.616.107-1.8-.819-2.044-1.51a2.416,2.416,0,0,1,.99-2.171c7.562-2.1,9.624-9.376,13.318-14.754,6.206-9.035,11.426-18.731,20.35-25.582a6.044,6.044,0,0,0,1.591-2.28,2.643,2.643,0,0,0,.028-1.831c-.075-.211-1.084-.357-1.464-.154-10.89,5.835-23.047,4.967-34.721,6.74-13.038,1.98-25.98,4.587-38.987,6.785-12.067,2.04-24.163,3.9-36.246,5.841C81.59,74.822,71.262,74.552,60.949,74.72c-11.6.189-22.921,3.429-34.586,3.282-5.965-.075-11.935.532-17.907.65a9.556,9.556,0,0,1-4.583-1.088c-.531-.289-.605-2.151-.265-3.066.257-.693,1.442-1.263,2.314-1.47,6.1-1.45,12.185-3.047,18.357-4.117,15.767-2.732,31.541-5.455,47.376-7.741,27.988-4.038,56-7.9,84.356-8.411a120.613,120.613,0,0,0,13.142-1.481c9.063-1.17,18.062-3.035,27.293-2.274a8.631,8.631,0,0,0,3.735-.482c2.006-.785,3.886-1.893,5.819-2.865-1.512-1.25-2.852-2.846-4.563-3.695-14.944-7.412-30.02-14.56-44.913-22.073-6.16-3.108-12-6.856-17.9-10.453A7.439,7.439,0,0,1,136.3,6.469a3.126,3.126,0,0,1-.247-2.562,2.722,2.722,0,0,1,2.4-.963c5.389,1.691,11.065,2.914,16,5.52C167.268,15.235,179.7,22.733,192.4,29.739c4.117,2.271,8.618,3.836,12.875,5.867,4.781,2.281,9.539,4.625,14.2,7.138a4.637,4.637,0,0,1,1.141,6.726,28.888,28.888,0,0,1-5.269,4.07c-8.8,5.841-15.458,13.633-21.161,22.434-3.9,6.027-8.253,11.77-12.5,17.566C180.035,95.789,178.11,97.835,176.086,100.241Z"/>
</svg>
