<svg xmlns="http://www.w3.org/2000/svg" width="350" height="50" viewBox="0 0 350 50">
  <path d="M18.114,30.684a58.722,58.722,0,0,1-6.78-1.773,17.263,17.263,0,0,1-5.289-3.085A5,5,0,0,1,4.8,22.133c.155-1.9,1.937-1.237,3.251-1.523,8.9-1.942,17.824-.068,26.726-.3,4.755-.126,9.648,1.348,14.148-1.443.529-.328,1.611-.569,1.947-.28,3.836,3.3,8.3.258,12.514,1.29,4.265,1.046,9.056.02,13.61-.212,4.34-.22,8.67-.621,13.007-.879,9.555-.57,18.983-2.267,28.5-3.177,9.346-.894,18.662-2.191,28.025-2.787,9.329-.594,18.7-.56,28.051-.762,10.41-.225,20.722.941,31.075,1.871C220,15.216,234.42,15.589,248.8,16.573c7.324.5,14.612,1.506,21.921,2.235,6.844.683,13.687,1.383,20.542,1.925,7.054.557,14.117,1.082,21.187,1.339,6.288.228,12.57.334,18.791,1.4,4.09.7,8.206,1.277,12.263,2.133,1.733.366,2.347,2.831.933,3.762-1.656,1.09-3.69,2.278-5.554,2.268-11.939-.064-23.588,3.088-35.49,3.065-5.243-.011-10.471,1.331-15.733.131a6.084,6.084,0,0,0-2.712.25c-9.018,2.313-18.292,1.772-27.305,1.1-7.427-.553-14.729,2.036-22.051.042-4.86,2.3-9.846.924-14.81.565a13.8,13.8,0,0,0-3.317.519c-1.1.2-2.409.924-3.267.564-6.017-2.528-12.317-.352-18.515-1.3-7.435-1.141-15.2-.284-22.813-.062-7.376.215-14.74.891-22.115,1.029a50.369,50.369,0,0,1-10.917-1.027c-9.77-1.991-19.613-.677-29.415-1.01-8.891-.3-17.769-.433-26.669-1.05-8.6-.6-17.323-.793-26-.884-4.559-.048-9.113-.5-13.67-.753-3.194-.178-6.5-.936-9.561-.368C28.768,33.514,23.494,32.033,18.114,30.684Z"/>
</svg>
