<svg xmlns="http://www.w3.org/2000/svg" width="315" height="210" viewBox="0 0 315 210">
  <path d="M176.687,1.372a78.324,78.324,0,0,1,29.645,3.715,31.044,31.044,0,0,1,11.622,6.951,36.3,36.3,0,0,1,4.616,4.715c3.849,5.229,9.17,6.971,15.338,6.987a6.714,6.714,0,0,1,1.958.2c.323.1.776.666.719.918-.124.542-.523,1.443-.839,1.455-4.335.171-8.89,1.228-12.786-1.433a50.779,50.779,0,0,1-8.51-7.1A26.019,26.019,0,0,0,205.14,10c-4.193-.988-8.521-1.407-12.795-2.043-2.556-.381-5.121-.7-7.684-1.029-.645-.083-1.409-.349-1.928-.113-4.851,2.207-9.981.6-14.933,1.2-5.354.647-10.68,1.515-16.028,2.215-2.158.282-4.423.061-6.5.607-12.526,3.3-24.894,7.118-36.486,13.009-9.059,4.6-18.286,8.981-26.9,14.325C70.71,45.1,59.757,52.483,49.278,60.423a116.69,116.69,0,0,0-29.273,32.25A69.865,69.865,0,0,0,9.571,125.661c-.443,7.158-.445,14.219,3.19,20.6a81.92,81.92,0,0,0,19.766,23.206,158.7,158.7,0,0,0,19.68,13.907,103.594,103.594,0,0,0,31.858,12.267,189.847,189.847,0,0,0,19.91,2.751c9.721.961,19.384,2.647,29.184,2.388a172.43,172.43,0,0,0,18.869-1.422,153.751,153.751,0,0,0,20.277-3.906c15.325-4.262,30.869-7.894,45.422-14.61,5.293-2.442,10.956-4.151,16.058-6.919,11.238-6.1,23.074-11.356,32.864-19.741,7.552-6.469,15.421-12.59,21.527-20.758,3.885-5.2,8.871-9.673,12.15-15.349,2.58-4.464,4.464-9.335,6.586-14.057,2.63-5.852-.629-9.976-4.389-13.735a61.622,61.622,0,0,0-7.555-6.245C286.46,77.9,277.084,73.228,267.562,69c-7.454-3.307-15.355-5.618-23.093-8.267a76.419,76.419,0,0,0-19.6-3.961,168.456,168.456,0,0,1-19.239-2.662c-1.95-.364-3.644-2.1-5.455-3.206,1.264-2.541,3.626-2.076,5.775-2.047A167.637,167.637,0,0,1,246.3,54.8c7.6,1.991,14.4,5.832,21.718,8.4,9.735,3.41,18.248,8.956,26.738,14.626a54.893,54.893,0,0,1,13.96,13.443c2.565,3.534,5.071,7.81,2.386,12.672-1.344,12.17-8.053,21.728-15.441,30.807-4.828,5.932-10.255,11.383-15.493,16.976-7.219,7.707-16.075,13.314-24.978,18.749-7.736,4.723-15.734,9.047-23.8,13.191a124.854,124.854,0,0,1-14.939,6.272c-9.731,3.492-19.489,6.939-29.369,9.971a159.188,159.188,0,0,1-21.285,5.069c-7.279,1.176-14.526,2.221-21.893,2.855-4.528.39-9.061.888-13.62.952-6.752.095-13.341-1.1-19.945-2.387-4.018-.782-8.179-.875-12.252-1.316-16.8-1.818-32.659-6.388-47.288-14.784A154.073,154.073,0,0,1,26.683,172.6a88.857,88.857,0,0,1-13.815-15.417c-7.514-10.441-11.5-22.184-9.7-35A88.424,88.424,0,0,1,14.131,89.3c5.416-9.278,12.043-17.126,19.412-24.7A169.048,169.048,0,0,1,57.261,44.406c5.808-4.1,11.256-8.747,17.861-11.827,6.662-3.107,12.708-7.51,19.279-10.841A212.209,212.209,0,0,1,128.668,7.91a136.746,136.746,0,0,1,16.966-3.9C155.933,2.272,166.275.694,176.687,1.372Z"/>
</svg>
