<svg xmlns="http://www.w3.org/2000/svg" width="340" height="115" viewBox="0 0 340 115">
  <path d="M118.814,110.137c4.121-2.156,8.476-1.1,12.734-1.32a7.8,7.8,0,0,1,4.127,1.063,3.2,3.2,0,0,0,3.086.12c2.338-1.252,4.846-1.24,7.365-1.271,7.567-.092,15.133-.155,22.7-.286a9.794,9.794,0,0,0,4.215-.561c2.724-1.431,5.569-1.293,8.436-1.321,9.728-.094,19.455-.152,29.182-.268,1.789-.021,3.844.273,5.311-.482,3.442-1.771,7.028-1.261,10.583-1.47,2.875-.17,5.754-.272,8.631-.4,3.975-2.3,8.382-1.605,12.659-1.864a17.035,17.035,0,0,0,5.291-.725,16.4,16.4,0,0,1,7.337-1.455c3.027.209,5.362-2.036,8.307-2.039,1.8,0,3.837.262,5.338-.473,3.046-1.491,6.22-1.568,9.424-2.009,3.16-.435,6.012-2.371,9.35-2.206,3.232-1.724,6.933-1.636,10.342-2.68a124.037,124.037,0,0,0,21.939-8.64,34.325,34.325,0,0,0,12.27-10.3,4.269,4.269,0,0,0,.93-1.917c.471-3.569.852-7.106-.792-10.581-1.413-2.987-2.854-5.75-6.133-7.176a13.161,13.161,0,0,1-3.345-2.7,25.246,25.246,0,0,0-10.27-5.666c-3.081-.922-6.093-2.069-9.161-3.038-4.751-1.5-9.323-3.755-14.512-3.49a3.906,3.906,0,0,1-2.079-.461c-2.633-1.561-5.532-1.426-8.4-1.45-6.845-.056-13.69-.137-20.533-.083-5.14.041-12.5,2.373-17.244,5.3a6.3,6.3,0,0,0-1.539,1.494c-1.346,1.707-1.416,5.242,1.59,6.112,4.137,1.2,8.2,2.587,12.613,2.248,4.263-.327,8.644.452,12.689-1.75.861-.469,2.126-.278,3.2-.252,3.931.1,7.891-.285,11.662,1.506,1.21.574,2.832.314,4.268.368,2.881.108,5.765.115,8.642.271a10.761,10.761,0,0,1,4.2.675,14.67,14.67,0,0,0,7.353,1.312,18.665,18.665,0,0,1,9.282,2.4c2.547,1.325,5.034,2.771,7.621,4.009a15.994,15.994,0,0,1,4.97,4.069c2.359,2.639,1.875,5.364-1.03,7.03-3.477,2-7.441,2.5-11.083,3.951-4.748-.341-9.2,1.072-13.717,2.211-1.72.433-3.862-.207-5.314.571-3.4,1.823-6.977,1.518-10.537,1.808a8.007,8.007,0,0,0-3.131.624c-2.675,1.472-5.567,1.283-8.426,1.444-4.619.259-9.365-.663-13.748,1.764-.857.474-2.122.247-3.2.278-3.241.1-6.483.192-9.725.223a10.409,10.409,0,0,0-5.19,1.186c-1.636.924-3.464.794-5.258.9a14.076,14.076,0,0,0-4.213.593,4.6,4.6,0,0,1-4.065.076,2.621,2.621,0,0,0-2.06-.145,15.137,15.137,0,0,1-7.288,1.509c-4.99.044-10.042-.365-14.885,1.4-.265.1-.7-.153-1.012-.321a3.183,3.183,0,0,0-3.074-.3c-2.282,1.4-4.722,1.525-7.271,1.552-3.226.033-6.451.258-9.677.4-2.1,2.04-4.972-.734-7.095,1.146-2.869.1-5.737.265-8.607.3-10.447.124-20.895.184-31.342.315-3.219.04-6.443-.122-9.526,1.342a10.842,10.842,0,0,1-4.231.562c-4.682.129-9.373.044-14.048.278-4.973.249-10.095-.817-14.861,1.666-.872.454-2.127.2-3.206.221-1.441.034-2.885.077-4.324.023-11.085-.422-22.288,1.529-33.242-1.788-1.659-.5-3.583-.127-5.383-.17-2.882-.068-5.78-.373-8.64-.162-3.379.249-6.3-1.218-9.419-1.92a4.307,4.307,0,0,0-1.076-.077c-2.938.094-5.588-1.071-8.367-1.709-3.143-.722-6.217-1.6-9.325-2.407a14.5,14.5,0,0,1-7.117-4.548A5.091,5.091,0,0,1,8.6,76.561c4.048-4.631,8.4-8.833,14.2-11.333,3.623-1.562,7.091-3.491,10.592-5.325,5.408-2.834,11.434-4.192,16.814-7.1a4.672,4.672,0,0,1,2.111-.34,13.205,13.205,0,0,0,6.14-1.793,40.476,40.476,0,0,1,5.91-2.542c6.764-2.287,13.529-4.579,20.366-6.628,2.383-.714,4.476-2.409,7.155-2.162,3.022.28,5.367-1.829,8.2-2.386a41.055,41.055,0,0,0,8.136-2.593c2.753-1.181,5.764-.879,8.273-2.021,2.745-1.249,5.784-.895,8.29-2.066,3.09-1.442,6.226-1.572,9.426-1.933a8.384,8.384,0,0,0,3.069-.892c2.91-1.617,6.425-.644,9.336-2.442,2.474-1.528,5.658-.424,8.325-1.9,2.942-1.626,6.344-.863,9.544-1.169a5.15,5.15,0,0,0,2.078-.469c2.96-1.738,6.221-1.545,9.452-1.659,2.511-.089,5.019-.278,7.529-.422,3.623-2.168,7.681-1.51,11.6-1.815a12.407,12.407,0,0,0,4.2-.685,17.542,17.542,0,0,1,7.377-1.28c3.963-.067,7.926-.069,11.887-.189a13.024,13.024,0,0,0,4.231-.58,20.7,20.7,0,0,1,14.723-.145,15.654,15.654,0,0,0,4.2.716c2.877.158,5.762.149,8.644.228a14.439,14.439,0,0,1,6.324,1.132,5.865,5.865,0,0,0,2.031.656q3.765.35,7.544.529c2.555.122,4.57,2.05,7.239,1.943a13.576,13.576,0,0,1,7.357,1.311,25.043,25.043,0,0,0,2.647-1.569c.746-.567.284-1.9-.792-2.648a26.357,26.357,0,0,0-7.681-3.765c-3.087-.9-6.237-1.639-9.228-2.791a19.537,19.537,0,0,0-6.247-1.4c-2.866-.13-5.722-.466-8.583-.713C248.262,6.133,244.6,7.5,241.7,6a13.406,13.406,0,0,0-6.26-1.291c-9.006-.1-18.013-.24-27.02-.366,0,.121,0,.242,0,.362-9.367,0-18.734-.033-28.1.03a14.154,14.154,0,0,0-5.277.707,19.714,19.714,0,0,1-7.361,1.351c-4.29.1-8.586-.216-12.688,1.792-1.5.736-3.545.358-5.34.5-1.432.112-3.072-.166-4.25.444-2.7,1.4-5.591,1.173-8.405,1.656s-5.493,1.633-8.3,2.046c-2.2.324-4.064,1.389-6.12,1.946-2.4.651-4.964.315-7.335,1.557-1.863.976-4.159,1.1-6.076,2-3.288,1.545-7.223.627-10.3,2.911a4.074,4.074,0,0,1-2.111.322,12.325,12.325,0,0,0-5.148,1.354c-2.879,1.432-5.759,2.968-9.054,3.3-4.489,2.29-9.63,2.851-14.088,5.06-4.214,2.087-8.677,3.4-13.041,4.957-3.754,1.341-7.407,2.621-10.525,5.177a7.1,7.1,0,0,1-2.767,1.557c-5.37,1.178-9.9,4.179-14.619,6.711a47.752,47.752,0,0,0-10.674,7.16c-3.9,3.735-7.732,7.551-11.526,11.4a6.238,6.238,0,0,0-1.988,3.747c-.18,1.835-1.15,3.388-1.776,5.067a5.9,5.9,0,0,0,.126,4.209,19.458,19.458,0,0,0,6.873,9.473c4.385,3.053,8.586,6.465,14,7.688a20.091,20.091,0,0,1,4.075,1.315c4.586,2.145,9.785,1.991,14.422,4.01a25.682,25.682,0,0,0,11.492,2.367,8.756,8.756,0,0,1,4.186.711c2.376,1.2,4.849,1.253,7.362,1.3,5.4.1,10.808.12,16.211.247a11.32,11.32,0,0,1,4.225.583,17.541,17.541,0,0,0,7.367,1.251c7.566,0,15.132.068,22.7.048C116.009,110.651,117.634,110.754,118.814,110.137Z"/>
</svg>
