<svg xmlns="http://www.w3.org/2000/svg" width="320" height="50" viewBox="0 0 320 50">
  <path d="M307.7,15.476c-.4-.344-.245-.105-.041-.052,1.886.49,5.153.687,4.914,2.4-.341,2.45-3.3,1.526-5.357,1.384-11.9-.818-23.746-1.174-35.66.664-21.027,3.245-42.272,4.863-63.277,8.423-9.215,1.562-18.645,2.007-28,2.51-4.8.258-9.684-.941-14.476-.633a54.57,54.57,0,0,1-15.853-1.549c-11.066-2.545-21.956-1.081-32.884.788-6.616,1.131-13.293,1.892-19.869-.069a15.667,15.667,0,0,0-12.154,1.263c-6.011,3.257-12.46,2.778-18.813,3.363-2.5.23-5.193-.247-7.49.52-6.523,2.178-13.007,1.441-19.488.357a21.619,21.619,0,0,0-12.239,1.266c-5.8,2.517-12.149,2.482-17.988,4.6a1.83,1.83,0,0,1-1.589-.871,2.008,2.008,0,0,1,.715-1.757c3.551-2.181,7.165-4.26,10.787-6.322a1.494,1.494,0,0,1,1.31-.075c3.473,2.862,6.924.434,10.342-.043a46.213,46.213,0,0,1,15.77.212c4.342.886,8.5,1.368,12.983-.233a26.046,26.046,0,0,1,10.873-1.084c5.382.5,9.825-2,14.629-3.387A6.9,6.9,0,0,0,86,26.576c-.378-.243-.744-.672-1.135-.7a39.852,39.852,0,0,0-4.119-.011C69.088,26.4,57.433,27.1,45.768,27.4c-4.132.106-8.289-.736-12.429-1.2-.28-.032-.736-.513-.717-.755.03-.4.325-1.043.61-1.1,1.785-.373,3.658-1.055,5.392-.82,7.2.974,14.144-1.276,21.254-1.32,8.691-.053,17.383-.582,26.07-.5,7.176.072,14.1-1.5,21.11-2.478,13.387-1.874,26.732-4.046,40.108-6,15.386-2.246,30.911-3.04,46.409-3.881,7.307-.4,14.681.627,22.027.7,6.843.066,13.689-.284,20.534-.437a11.048,11.048,0,0,1,1.394.155c7.363.784,14.719,2.112,22.092,2.217,9.884.14,19.619,2.748,29.59,1.429,2.45-.324,5.061.641,7.607.936C300.233,14.742,303.656,15.06,307.7,15.476Zm-164.438,8.2c3.892.029,7.87-.45,11.66.189,8.968,1.512,17.926.457,26.777-.147,20.951-1.431,41.84-3.766,62.753-5.745a9.249,9.249,0,0,0,1.311-.314c-.5-.34-.968-.869-1.52-.985a25.455,25.455,0,0,0-4.849-.713c-5.256-.077-10.517-.083-15.773.021-6.658.131-13.279.075-19.948-.43-5.861-.445-11.837.883-17.747.752-12.627-.279-25.1,1.289-37.618,2.442-4.313.4-8.59,1.451-12.9,1.557-13.309.325-26.225,3.8-39.457,4.649a6.634,6.634,0,0,0-1.6.526,5.742,5.742,0,0,0,1.886.735c7.54,0,15.163.42,22.466-1.872A42.032,42.032,0,0,1,143.266,23.678Z"/>
</svg>
