<svg xmlns="http://www.w3.org/2000/svg" width="205" height="100" viewBox="0 0 205 100">
  <path d="M176.587,48.828c.276-.09.889.328,1.084.662a1.656,1.656,0,0,1,.153,1.374c-5,8.765-11.808,16.685-22.974,26.976a5.052,5.052,0,0,0-1.581,2.573c-.619,3.584-1.081,7.2-1.468,10.818-.261,2.432,2.7,4.833,5.277,4.382a9.363,9.363,0,0,0,2.972-.774c5.038-2.856,9.883-6.246,13.332-10.789,4.077-5.37,9.732-9.728,12.148-16.13,1.694-4.489,4.506-8.185,6.628-12.335a40.653,40.653,0,0,0,2.609-5.645c.812-2.452,2.587-2.926,4.782-3.043a17.529,17.529,0,0,0,3.011-.551c1.1-.259,1.861-2.893,1.376-3.955-1.366-2.994-4.862-4.259-6.2-6.869-2.922-5.712-7.571-8.3-13.429-9.534a8.254,8.254,0,0,1-3.015-.779c-4.363-3.105-10.068-2.974-14.384-5.813-4.081-2.685-9.114-2.2-13.11-4.938-4.318-2.955-10.226-2.243-14.333-5.868-3.047-.741-6.163-1.727-9.15-.082-3.6,1.98-7.11.975-10.645.073a16.981,16.981,0,0,1-2.8-1.372,26.741,26.741,0,0,0-16.623-2.452c-.446.083-1.132.548-1.162.885a5.24,5.24,0,0,0,.246,2.925c1.472,2.478,4.521,2.3,6.744,3.6,7.186,4.21,15.179,6.733,22.59,10.494,6.932.382,12.632,4.721,19.315,5.987,4.589.869,8.328,4.334,13.187,4.649.54.035,1.015,1.068,1.52,1.638a4.262,4.262,0,0,1-1.438.58c-6.214-.042-12.482-1.531-18.6.916a6.16,6.16,0,0,1-3.111-.027c-8.883-1.526-17.571,2.215-26.438.952-4.461,2.4-9.194,1.21-13.857,1.1-2.071-.05-4.31-.322-6.187.331a20.86,20.86,0,0,1-10.807.817c-3.848-.7-7.1,1.963-10.7,1.653-5.808-.5-11.357.754-17.027,1.42-3.622.425-7.173,1.236-10.76,1.57-4.15.386-8.361.047-12.319,1.738-7.83-.581-15.332,2.9-23.252,1.8-2-.279-3.875,1.3-5.481,2.68-2.325,2-2.415,6.728-.148,8.376,9.6,6.973,12.778,8.354,24.26,9.53,6.7.686,13.462,2.138,20.133-.317,5.207.436,10.414.893,15.623,1.3,6.18.485,12.332,2.236,18.518-.616,1.688-.778,4.117.143,6.2.116,2.062-.026,4.262.144,6.149-.506,3.058-1.053,6.126-.986,9.241-1.239,3.589-.292,7.11-1.339,10.7-1.751,3.124-.36,5.866-1.848,9.024-2.309,7.675-1.119,15.226-3.088,24.154-5C155.311,53.965,166.2,52.207,176.587,48.828Z"/>
</svg>
