<svg xmlns="http://www.w3.org/2000/svg" width="360" height="223" viewBox="0 0 360 223">
  <path d="M96.075,212.89a222.713,222.713,0,0,1-34.458-4.008,94.1,94.1,0,0,1-41.2-19.605A52.4,52.4,0,0,1,2.658,161.293c-1.4-5.359-.8-11.437-.173-17.085A138.207,138.207,0,0,1,6.3,125.939a119.1,119.1,0,0,1,3.992-12.246A110.532,110.532,0,0,1,21.676,90.521,96.862,96.862,0,0,1,36.4,73.305c4.283-3.991,8.051-8.571,12.539-12.3,7.493-6.222,15.03-12.419,24.028-16.578,5.511-2.547,10.489-6.284,16.06-8.657,12.084-5.145,24.243-10.057,36.945-13.714,9.437-2.716,19.128-3.814,28.6-6.15,5.209-1.285,10.777-1.165,16.192-1.552,10.173-.727,20.4-.8,30.479-2.613a4.392,4.392,0,0,1,.66-.021c19.135-.436,38.288-2.612,57.387-1.063,10.455.848,20.982,1.894,31.377,4.212,6.3,1.4,12.86,2.245,19.3,3.377a94.733,94.733,0,0,1,21.644,6.226c4.746,2.07,9.659,3.67,13.926,6.9,7.117,5.386,11.726,11.779,12.515,21.061a34.8,34.8,0,0,1-.535,10.006,94.722,94.722,0,0,1-2.885,9.866,54.741,54.741,0,0,1-6.673,14.661c-4.284,6.249-8.047,12.87-12.537,18.961-8.645,11.726-19.448,21.539-30.151,31.239-8.455,7.662-17.291,15.111-27.607,20.577-3.5,1.856-6.5,5-10.1,7.067-6.581,3.775-12.892,8.078-19.68,11.419-6.954,3.422-14.4,5.827-21.532,8.907-10.323,4.459-21.153,7.363-31.889,10.516-6.992,2.053-14.186,3.43-21.309,5.022-7.143,1.6-14.308,3.1-21.469,4.613-3.363.711-6.716,1.516-10.114,2-8.326,1.176-16.645,2.306-24.935,3.8C109.386,212.389,101.9,212.421,96.075,212.89Zm229.1-138.063c-.594-5.393-1.565-10.775-1.7-16.18-.305-11.845-7.341-18.366-17.084-23.2-8.014-3.973-16.648-5.965-25.264-7.587-8.05-1.514-16.176-3.295-24.5-2.894a37.428,37.428,0,0,1-3.907-.292c-4.01-.235-8.221-1.307-11.979-.435-3.99.925-7.836.271-11.711.729s-7.733.919-11.608,1.287c-5.621.534-11.331.544-16.857,1.567-9.922,1.837-19.734,4.27-29.595,6.437a233.43,233.43,0,0,0-30.241,9.086c-1.777.652-2.291.722-.827,2.19,1.13,1.132.75,1.569-.757,1.956-4.791,1.231-9.95,1.889-14.186,4.2-5.083,2.774-9.449,6.917-13.967,10.659-4.2,3.479-8.163,7.244-12.288,10.816-2.8,2.423-5.638,4.808-8.565,7.073-7,5.417-13.17,11.714-19.32,18.038-3.187,3.277-5.876,7.092-10.175,9.171-1.441.7-2.413.958-2.8-.994a14.884,14.884,0,0,0-.593-1.8c-.319.527-.647,1.05-.956,1.584-5.593,9.644-8.166,20.433-11.431,30.926a58.816,58.816,0,0,0-2.695,15.258c-.478,13.835,6.247,24.069,17.637,31.209,7.287,4.568,15.58,6.185,24.18,6.48,6.959.239,13.905.891,20.856,1.373.425.029.839.209,1.265.254,3.006.323,6.026.95,9.019.845,2.694-.094,5.035-1.622,8.177-.42,2.319.887,5.479-.5,8.275-.767,5.289-.5,10.654-.54,15.864-1.464,10.789-1.914,21.518-4.181,32.23-6.5,7.346-1.589,14.7-3.238,21.908-5.349,7.836-2.3,15.514-5.135,23.247-7.776,7.3-2.491,14.816-4.4,21.689-8.02,3.06-1.611,5.859-3.9,9.077-4.991,9.074-3.089,16.672-8.843,24.725-13.637,7.141-4.251,13.413-10.061,19.73-15.571,7.27-6.342,13.415-13.483,17.649-22.5C322.317,95.714,325.461,85.829,325.173,74.827ZM97.376,206.1c2.741-.3,8.131-.879,13.521-1.466,4.308-.47,8.617-.935,12.92-1.442.328-.038.62-.389.928-.595a6.358,6.358,0,0,0-1.08-.639,8.63,8.63,0,0,0-2.316-.659c-13.712-.775-27.373-1.865-40.9-4.5-8.092-1.577-15.877-3.582-23.009-7.99C44.952,181.09,38.334,169.85,38.13,155.43c-.1-7.238,1.769-14.532,3.031-21.752a85.92,85.92,0,0,1,2.96-11.2c2.571-8.078,6.532-15.528,10.813-22.8a107.483,107.483,0,0,1,14.2-19.406c5.286-5.614,11.672-9.8,17.771-14.343,7.644-5.7,16.071-10.292,23.869-15.706,10.819-7.513,22.778-12.5,34.506-18.079,2.1-1,4.529-1.282,6.794-1.94q4.327-1.255,8.631-2.6a4.817,4.817,0,0,0,1.067-.671c-.325-.2-.654-.593-.975-.588a43.459,43.459,0,0,0-7.2.311c-5.481,1.026-10.87,2.559-16.361,3.518-10.875,1.9-21.284,5.4-31.49,9.382A184.844,184.844,0,0,0,82.3,50.474c-9.044,5.091-17.605,11.044-26.319,16.71C54.168,68.36,52.664,70,50.916,71.277a90.827,90.827,0,0,0-19.9,20.471,124,124,0,0,0-9.8,16.721,137.318,137.318,0,0,0-12.1,35.392c-.761,3.8.387,7.875-1.412,11.584,1.539,5.6,2.227,11.482,5.328,16.564,6.479,10.617,16.117,17.928,27.039,22.946C57.282,202.86,75.808,205.575,97.376,206.1ZM307.478,27.5l-2.181.76a10.686,10.686,0,0,0,1.851,1.766c1.688.983,3.489,1.769,5.208,2.7A30.354,30.354,0,0,1,327,51.069c2.089,6.945,2.517,14.493,2.921,21.816.493,8.928-2.252,17.522-3.934,26.208-.223,1.148-.421,2.3-.63,3.451a33.52,33.52,0,0,0,2.827-2.706c.97-1.16,1.69-2.526,2.63-3.714,9.588-12.11,19-24.263,20.918-40.407a15.817,15.817,0,0,0-.161-6.243c-1.863-7.3-7.117-10.841-13.308-14.069C328.6,30.368,317.669,30.9,307.478,27.5Z"/>
</svg>
