<svg xmlns="http://www.w3.org/2000/svg" width="280" height="50" viewBox="0 0 280 50">
  <path d="M251.941,16.609c2.553-.51,4.967-1.727,7.655-2.119a21.46,21.46,0,0,0,8.349-3.512,4.608,4.608,0,0,0,1.314-1.823c.309-.6-.812-2.085-1.716-2.657a7.89,7.89,0,0,0-4.356-1.164c-12.247.021-24.493.031-36.74.134a11.914,11.914,0,0,0-4.419.905,14.818,14.818,0,0,1-5.583,1.052c-3.827.079-7.655.112-11.482.229-1.523.047-3.245-.147-4.522.485-3.969,1.969-8.165,1.783-12.358,1.869-3.055.063-6.065.028-8.956,1.477-1.283.643-2.981.486-4.5.624-1.905.173-4.046-.23-5.682.508-4.373,1.973-8.953,1.656-13.5,1.966-1.138.078-2.475-.055-3.364.49-3.163,1.943-6.64,1.566-10.055,1.767-3.041.179-6.071.141-8.96,1.566-1.284.634-2.984.509-4.5.567-3.059.117-6.126.068-9.184.2a12.451,12.451,0,0,0-4.483.658,20.38,20.38,0,0,1-7.8,1.582c-3.026.121-6.225-.581-9.006,1.049-3.1,1.817-6.873.527-9.94,2.438a6.969,6.969,0,0,1-3.263.893c-5.331.229-10.716.006-15.718,2.382A37.418,37.418,0,0,0,58.02,30.218c-2.153.653-4.543.523-6.827.745-3.043,2.143-6.565,1.746-9.986,1.89a12.342,12.342,0,0,0-5.563,1.111,11.833,11.833,0,0,1-5.57,1.074c-2.679.057-5.357.181-8.033.313a46.065,46.065,0,0,0-10.8,3.187c-.243.119-.308.616-.44.944a1.582,1.582,0,0,0,1.847,2.133c2.208-.573,4.355-1.128,6.461.255,3.442.083,6.883.188,10.325.244,4.171.068,8.415-.572,12.225,2.016.845.573,2.215.455,3.349.5,1.911.073,3.827.02,6.284.02,4.366-.419,9.406.244,14.09-2.039.956-.466,2.263-.251,3.409-.281,4.592-.116,9.186-.178,13.777-.321,1.516-.047,3.247.144,4.5-.508,3.26-1.7,6.681-1.451,10.107-1.486,7.655-.076,15.31-.1,22.965-.2,1.906-.024,4.085.307,5.661-.48,4.027-2.01,8.244-1.378,12.4-1.624,4.933-.292,9.933.135,14.634-2.014.985-.451,2.266-.237,3.406-.365,1.51-.169,3.241.035,4.479-.645,2.864-1.572,5.9-1.443,8.937-1.624s6.222.064,9.111-.722c2.578-.7,5.042-1.733,7.765-1.653a28.41,28.41,0,0,0,10.02-1.953c4.666-1.577,9.374-3.195,14.484-2.747,2.285.2,4.439-.547,6.657-1.3,3.927-1.328,8.186-1.529,12.1-3.048,3.9.191,7.415-1.826,11.116-2.164C244.82,19.125,248.207,17.356,251.941,16.609Z"/>
</svg>
