<svg xmlns="http://www.w3.org/2000/svg" width="300" height="90" viewBox="0 0 300 90">
  <path d="M257.59,22.29c8.691,2.533,17.408,4.986,26.059,7.649a36.392,36.392,0,0,1,7.024,3.252c1.813,1.023,1.8,3.372-.163,4.11a37.51,37.51,0,0,1-9.939,2.6c-9.862.8-19.759,1.159-29.642,1.7a14.7,14.7,0,0,0-1.725.3c.477.7.8,1.7,1.462,2.058,1.888,1.015,4.034,1.574,5.86,2.675,2.153,1.3,2.137,2.764-.2,3.612a53.4,53.4,0,0,1-11.865,3.279c-14.969,1.727-29.919,3.548-44.8,5.952a16.148,16.148,0,0,1-2.583-.127c-.63,0-1.26.1-1.89.16a7.529,7.529,0,0,0,1.406,1c2.788,1.157,5.639,2.17,8.388,3.409,1.634.736,1.783,2.424.215,3.529a9.172,9.172,0,0,1-4.506,1.97c-4.721.15-9.456-.138-14.185-.255-5.6-.139-11.2-.338-16.8-.4-15.9-.19-31.807-.422-47.711-.439-7.305-.008-14.617.317-21.913.729-9.391.53-18.751,1.176-28.061-.957-1.844-.423-3.878.063-5.788-.173a2.032,2.032,0,0,1-.963-3.5,10.594,10.594,0,0,1,4.092-1.783c9.337-1.813,18.687-3.567,28.056-5.206,7.126-1.247,14.261-2.511,21.439-3.375,8.545-1.029,17.141-1.624,25.712-2.435,3.371-.32,6.758-.572,10.1-1.1a188.784,188.784,0,0,1,29.534-2.235c3.437-.005,6.874-.307,10.309-.5a4.614,4.614,0,0,0,1.116-.362,4.23,4.23,0,0,0-1-.759c-5.027-1.8-10.311-1.658-15.477-1.485-11.593.388-23.166,1.379-34.759,1.824q-15.446.593-30.858,1.652a19.248,19.248,0,0,1-5.8-.432c-4.337-1.065-8.382,1.184-12.7.747-6.2-.628-12.432.449-18.687-.176-3.371-.337-6.846.477-10.281.645A156.169,156.169,0,0,1,46.682,49c-7.566-.57-15.087-.991-22.6-2.236-2.78-.46-5.138-1.938-7.93-2.16-1.027-.082-1.97-1.221-2.952-1.878.925-.856,1.716-2.184,2.8-2.488a142.389,142.389,0,0,1,16.427-4.063c9.143-1.433,18.377-2.292,27.571-3.4.722-.087,1.432-.271,2.147-.41-.787-.32-1.634-1.012-2.353-.9-3.55.562-6.936-.836-10.33-.8-3.84.035-6.911-1.944-10.408-2.686a4.883,4.883,0,0,1-2.93-2.965c-.25-.793.875-2.43,1.807-3.095a16.187,16.187,0,0,1,5.233-2.527c4.612-1.178,9.274-2.214,13.968-3,5.05-.851,10.18-1.219,15.235-2.046,7.055-1.154,14.188-.683,21.262-.953,11.594-.442,23.23.315,34.85.465,12.032.156,24.066.176,36.1.286,8.386.076,16.777.052,25.155.369,4.538.172,9.047,1.023,13.581,1.45,2.346.221,4.72.129,7.075.274,8.878.547,17.672,1.752,26.492,2.9C243.819,20.025,250.628,21.371,257.59,22.29Zm-122.75,5.5c9.313,2.149,18.652,3.9,28.281,2.395.617-.1,1.3.312,1.942.279,4.487-.231,9,1.164,13.494-.369,1.119-.381,2.547.095,3.826.243,1.514.176,3.062.765,4.522.582,8.167-1.024,16.281-.405,24.427.281,4.141.348,8.332.121,12.5.126a5.159,5.159,0,0,0,1.219-.3c-.3-.26-.574-.672-.922-.755a37.555,37.555,0,0,0-6.43-1.365c-7.065-.418-14.213-.093-21.2-1.035-6.895-.93-13.755-.295-20.62-.758-7.913-.534-15.862-.511-23.786-.919-7.5-.386-14.936-1.693-22.5-1.077-2.107.172-4.277-.42-6.419-.661,2.173.727,4.326,1.519,6.524,2.159C131.386,27.106,133.125,27.4,134.84,27.786Z"/>
</svg>
