<svg xmlns="http://www.w3.org/2000/svg" width="93.28" height="102.894" viewBox="0 0 93.28 102.894">
  <g>
    <path d="M93.238,50.088c.331,8.395-1.753,15.667-4.439,22.669a34.448,34.448,0,0,1-7.64,12.007c-1.731,1.742-3.1,3.845-4.659,5.758A31.856,31.856,0,0,1,56.542,102.3c-2.99.513-5.7,1.043-8.623-.041a8.773,8.773,0,0,0-3.475-.1c-6,.4-11.885-.888-17.516-2.348-7.935-2.059-13.666-7.3-16.994-15.154C6.787,77.238,5.39,69.363,3.34,61.67,2.3,57.758,2.572,53.5,2.164,49.409c-.226-2.273-.679-4.522-.942-6.792-.245-2.1.037-4.171-.777-6.335-.719-1.908-.4-4.3-.171-6.431a3.984,3.984,0,0,1,1.8-2.568c.829-.488,2.439,1.2,2.716,2.736,1.179,6.517,2.115,13.086,3.54,19.548C9.487,54.8,11.069,59.943,12.72,65.042c2.055,6.347,4.371,12.609,6.583,18.9,2.572,7.322,8.766,12.619,17.219,12.2A35.627,35.627,0,0,0,50.549,92.5c4.228-2.049,8.736-3.52,12.974-5.552,9.117-4.371,16.236-10.918,19.5-20.663,2.216-6.62,3.481-13.558,5.184-20.35a28.243,28.243,0,0,1,1.09-3.76,1.9,1.9,0,0,1,1.37-1.023,1.981,1.981,0,0,1,1.493.93,9.378,9.378,0,0,1,1.036,3.226A47.176,47.176,0,0,1,93.238,50.088Z"/>
    <path d="M31.205,21.078c0-3.813-.01-7.625.007-11.438a17.7,17.7,0,0,1,.169-2.951,1.336,1.336,0,0,1,2.189-.772,16.407,16.407,0,0,1,1.437,1.369c.634.623.923.639,1.209-.365a44.537,44.537,0,0,1,1.942-5.489C38.842-.145,39.943-.4,41.22.57c2.3,1.747,2.914,4.4,2.945,6.967A35.1,35.1,0,0,1,43.1,16.251C41.634,22.213,39.9,28.113,38.154,34c-.4,1.333-.878,2.693-2.483,3.407-2.155.958-4.438-.044-4.488-2.406-.082-3.976.024-7.956.05-11.935,0-.663,0-1.326,0-1.989Z"/>
    <path d="M76.3,9.629c-.238,7.592-2.049,14.881-4.322,22.072a7.579,7.579,0,0,1-1.454,2.573c-1.986,2.314-4.19,1.734-5.424-1.136-1.662-3.865-.966-7.867-.755-11.781.155-2.886,1.418-5.7,1.733-8.595.289-2.657,1.822-4.507,3.088-6.612.795-1.322,1.581-1.1,2.306-.275,1.321,1.5,1.621.358,2.234-.61.3-.481,1.009-.707,1.532-1.048a6.541,6.541,0,0,1,1.015,1.92A24.039,24.039,0,0,1,76.3,9.629Z"/>
  </g>
</svg>
