<svg xmlns="http://www.w3.org/2000/svg" width="120" height="110" viewBox="0 0 120 110">
  <g>
    <path d="M2.386,107.327c-1.5-3.44-.855-6.685.918-9.811Q5.247,94.09,7.261,90.7c3.012-5.077,5.853-10.269,9.137-15.164A54.377,54.377,0,0,1,23.207,67.9c3.838-3.868,7.7-7.668,12.483-10.5,6.818-4.035,13.857-7.5,21.659-8.923,4.428-.8,8.775.821,12.9,2.328,9.974,3.64,18.374,10.051,27.08,15.9,2.589,1.739,4.918,3.913,7.632,5.4,4.754,2.609,8.265,6.553,12,10.28a7.584,7.584,0,0,1,1.246,1.55,1.552,1.552,0,0,1-1.405,2.394,4.724,4.724,0,0,1-2.341-.532,28.572,28.572,0,0,1-4.69-3.6c-6.752-6.871-14.521-12.4-22.667-17.443-.335-.207-.885-.068-1.334-.09A5.953,5.953,0,0,0,86.41,65.8C91.3,71.4,96.285,76.914,101.086,82.584a74.092,74.092,0,0,1,5.06,7.271c.164.248-.2.845-.324,1.28-.439-.123-1.03-.108-1.292-.394-1.782-1.943-3.457-3.985-5.237-5.93-4.136-4.521-8.266-9.051-12.487-13.493A70.578,70.578,0,0,0,72.177,59.629a6.547,6.547,0,0,0-2.591-1.235c-5.8-.4-11.512-.036-16.957,2.315A65.47,65.47,0,0,0,34.051,72.62c-2.612,2.409-4.485,5.64-6.58,8.578a5.031,5.031,0,0,0-.826,4.694c.2.579.788,1.321-.295,1.356-.63.02-1.781-.573-1.835-1a53.334,53.334,0,0,1-.169-5.476,4.648,4.648,0,0,0-.217-.931,3.421,3.421,0,0,0-1.15.478C18.054,85.2,12.965,89.828,10.208,96.562c-1.585,3.87-4.5,7.2-6.822,10.765Z"/>
    <path d="M103.314,7.318c-1.875,3.347-.366,7.113-1.938,10.616-1.814,4.039-5.365,6.045-8.136,8.95-.694.727-1.482.408-1.876-.6-.985-2.5-2.005-4.682-1.337-7.817.8-3.775.57-7.789,2.3-11.43,1.037-2.18,1.748-4.562,4.148-5.793,1.752-.9,3.885-.8,4.731.709A39.288,39.288,0,0,1,103.314,7.318Z"/>
    <path d="M70.447,12.5a25.207,25.207,0,0,1-2.756,10.3c-.807,1.467-2.066,2.486-3.409,2.32-1.5-.185-3.32-.827-3.834-2.681-.476-1.718-1.148-3.545-.975-5.246A82.1,82.1,0,0,1,61.421,6.652,6.715,6.715,0,0,1,63.352,3.9a2.1,2.1,0,0,1,3.122-.04C69.079,6.126,70.926,8.763,70.447,12.5Z"/>
  </g>
</svg>
