<svg xmlns="http://www.w3.org/2000/svg" width="170" height="170" viewBox="0 0 170 170">
  <path d="M163.686,95.073a32.373,32.373,0,0,0,2.971-12.83c-.021-1.948.469-8.145-1.39-12.839-.936-2.364-4-2.765-4.925-5.247-1.652-4.448-2.767-9.582-3.392-11.225-.981-2.581.07-5.082-.4-6.217-1.434-3.475-3.213-1.335-8.731-7.746-1.846-2.144-3.063-6.628-5.208-8.449-3.216-2.73-7.32-3.247-11.169-4.816S117.4,24.157,113.6,22.255c-1.423-.713-3.534-1.227-4.285.176s.691,3.188,2.2,3.676c12.9,4.161,22.433,3.786,29.388,10.921,9.713,9.962,11.262,28.792,19.666,38.788a4.349,4.349,0,0,1,.772,2.516c.587,7.562-2.062,9.992-5.675,16.1-3.772,6.376-5.049,14.126-8.977,20.567-.009.015-.011.031-.02.047a2.455,2.455,0,0,0-.46,1.034,2.031,2.031,0,0,0,.008.331,3.3,3.3,0,0,0-.311,1.193,1.934,1.934,0,0,0-.454.359,1.979,1.979,0,0,0-1.289,1.24,7.018,7.018,0,0,1-1,1.8,1.975,1.975,0,0,0-1.03,1.059,9.027,9.027,0,0,1-.589,1.16,1.989,1.989,0,0,0-.246.711,2.021,2.021,0,0,0-.122.4c-.016.081-.027.161-.035.238a2,2,0,0,0-.476.583c-.024.044-.054.106-.082.158a2.261,2.261,0,0,0-.605.765,3.862,3.862,0,0,0-1.042,2.545,3.883,3.883,0,0,0-1.254,1.463,1.935,1.935,0,0,0-.147,1.172,6.365,6.365,0,0,0-.526,1.065,1.412,1.412,0,0,1-.116.252l-.267.333a1.963,1.963,0,0,0-.426,1.184c-.158.191-.391.431-.569.612a12.232,12.232,0,0,0-1.177,1.337,2.567,2.567,0,0,0-1.045.628,1.994,1.994,0,0,0-.377.5,2.855,2.855,0,0,1-.813,1,7.918,7.918,0,0,0-1.621,1.874,2,2,0,0,0-.281.734l-.048.037a14.716,14.716,0,0,0-2.294,2.408,13.076,13.076,0,0,1-2.535,2.567,1.972,1.972,0,0,0-.69.925l-.1.081a4.54,4.54,0,0,0-.674.226,3.421,3.421,0,0,0-.521.116,1.964,1.964,0,0,0-1.239,1.154,5.879,5.879,0,0,0-.982,1l-.544.218a1.937,1.937,0,0,0-.239.114,8.477,8.477,0,0,0-2.27,1.807,1.974,1.974,0,0,0-.961.249l-.322.175a6.053,6.053,0,0,0-1.13.744,7.8,7.8,0,0,0-.934.645c-.094.072-.216.165-.336.252-.095.028-.19.057-.28.09a3.646,3.646,0,0,0-.921.444,1.961,1.961,0,0,0-.564.588,1.983,1.983,0,0,0-.8.55c-.107.083-.206.167-.294.25a23.407,23.407,0,0,0-3.554,1.276l-.214.077a2.621,2.621,0,0,0-2.446.116,1.956,1.956,0,0,0-.767.659l-.54.088a1.933,1.933,0,0,0-.745.305c-1.14.36-2.282.706-3.278.939a2,2,0,0,0-.372-.008,4.59,4.59,0,0,0-2.26.657,4.831,4.831,0,0,0-3.029-.065c-.321.067-.738.152-1.1.193a2,2,0,0,0-.421-.12,8.106,8.106,0,0,0-2.817.188l-.2.03c-.538.077-1.089.155-1.646.188a1.925,1.925,0,0,0-1.344,0,10.765,10.765,0,0,1-2.231.273c-.383.025-.788.04-1.2.046a1.985,1.985,0,0,0-1.234-.507,2.978,2.978,0,0,0-.8.065,5.281,5.281,0,0,0-2.878-.705,2.05,2.05,0,0,0-.8-.28,17.363,17.363,0,0,0-2.506-.136,9.072,9.072,0,0,1-1.442-.075,5.306,5.306,0,0,0-3.138-1.011c-.061,0-.113.031-.173.038a1.625,1.625,0,0,0-.438-.2,1.968,1.968,0,0,0-.879-.457c-.256-.06-.613-.158-1-.264a9.684,9.684,0,0,0-3.426-.608,2.12,2.12,0,0,0-.358.084A9.774,9.774,0,0,1,63.2,155.9a7.655,7.655,0,0,0-3.069-1.847,16.432,16.432,0,0,1-2.389-1.172,1.986,1.986,0,0,0-1.052-.793c-.025-.005-.054-.017-.08-.025a21.089,21.089,0,0,1-4.206-2.052c-.736-.4-1.475-.876-2.259-1.376s-1.6-1.022-2.474-1.517a1.814,1.814,0,0,0-.88-.231,4.035,4.035,0,0,0-.588-.642,1.912,1.912,0,0,0-1.245-.473,1.973,1.973,0,0,0-.673-.881c-.159-.116-.283-.208-.379-.281a3.609,3.609,0,0,0-.848-1.2,2,2,0,0,0-1.314-.586c-.12-.092-.26-.208-.414-.347a1.955,1.955,0,0,0-.994-.488,7.108,7.108,0,0,0-.7-.748,1.972,1.972,0,0,0-.635-.709c-.375-.255-.923-.7-1.54-1.191-1.183-.948-2.18-1.732-3.043-2.292a1.988,1.988,0,0,0-.366-.512c-.646-.654-1.364-1.28-2.067-1.89l-2.09-1.95a16.808,16.808,0,0,1-2.258-2.4,1.98,1.98,0,0,0-.547-1.142,6.066,6.066,0,0,0-.659-.569,2.3,2.3,0,0,0-.388-.782,1.987,1.987,0,0,0-.231-.262c-.192-.181-.356-.344-.5-.488a1.958,1.958,0,0,0-.232-.581,22.757,22.757,0,0,0-2.055-2.861c-.2-.25-.4-.491-.61-.767-.228-.283-.462-.558-.7-.835-.383-.449-2.011-1.28-2.349-1.755a11.356,11.356,0,0,0-1.054-3.751,1.986,1.986,0,0,0-.128-.532c-.608-1.554-1.229-2.848-1.829-4.1l-1.566-3.614-.465-1.37c-1.326-3.9.561-9.031-2.207-12.451-3-3.7-1.551-7.422-.974-12.021l.039-.387c.089-.889.173-1.733.289-2.435a3.35,3.35,0,0,1,.383-1.22,1.972,1.972,0,0,0,.364-1.129c0-.42.058-.885.106-1.344l.011-.1a1.968,1.968,0,0,0,.386-.725c.5-1.739.792-2.837,1.222-4.476l.109-.412a1.985,1.985,0,0,0,.475-.809,5.653,5.653,0,0,0,.054-2.94c-.014-.071-.027-.135-.038-.192-.609-3.407,4.9-10.6,5.277-14.586a63.7,63.7,0,0,1,.558-6.763c1.5-7.353,8.793-8.992,12.2-14.607a2.014,2.014,0,0,0,.475-.413,5.43,5.43,0,0,0,.674-1.034c.168-.2.31-.366.455-.551a7.105,7.105,0,0,0,1.467-1.685c.173-.241.337-.476.474-.64a1.985,1.985,0,0,0,.426-1.666l-.01-.043c0-.018,0-.035,0-.052.03-.021.058-.043.086-.064.277-.2.675-.491.88-.618a1.986,1.986,0,0,0,1.037-.733c.566-.777.547.883,1.3.053.674-.741,1.325-1.459,1.859-2.151a1.967,1.967,0,0,0,.858-.546,16.794,16.794,0,0,1,1.367-1.21,19.516,19.516,0,0,0,1.465-1.3,3.2,3.2,0,0,0,.507-.2,1.947,1.947,0,0,0,.476-.139,27.331,27.331,0,0,0,4.73-2.739c.337-.229.672-.457,1.012-.681a11.948,11.948,0,0,1,5.147-2.114c.1-.012.206-.026.308-.039a1.98,1.98,0,0,0,.855-.326l5.684.047c.738-.169,1.482-.322,2.225-.47.105-.014.252-.021.4-.029.171-.011.344-.023.447-.033l1.169-.083a47.2,47.2,0,0,1,9,.1,6.865,6.865,0,0,0,2.64-.128,2.022,2.022,0,0,0,1.313.171l1.683-.363a8.358,8.358,0,0,1,2.527.373,13.46,13.46,0,0,0,5.012.49,1.987,1.987,0,0,0,.632-.177c.375.029.884.068,1.221.107a1.96,1.96,0,0,0,1.049.265,1.959,1.959,0,0,0,.8.168l2.337,0a4.669,4.669,0,0,0,2.952,1.235c.052.007.1.014.158.017,4.585.35,4.965-1.009,5.148-1.663a1.9,1.9,0,0,0,.039-.481,1.9,1.9,0,0,0,.1-.422,2.341,2.341,0,0,0,.08-1.69C104.624,7.575,103.335,7,102,6.565a3.412,3.412,0,0,0-.707-.1l-.192.01a4.641,4.641,0,0,0-2.236-.337c-9.547-4.8-28.815-2.184-38.963-.346-9.814,1.778-19.973,5.526-25.8,13.619-.383.532-.84,1.135-1.494,1.163s-1.113-1.061-.49-1.262a27.4,27.4,0,0,1-6.268,9.722c-2.018,1.905-6.012,3.045-7.445,5.308-.662,1.045-1.308,2.066-1.912,3.041a2,2,0,0,0-.26.657l-.1.5a2.117,2.117,0,0,0-.224.285,3.735,3.735,0,0,0-.575,1.243,2.022,2.022,0,0,0-.159.343c-1.07,3.041-1.268,7.247-2.141,8.895a1.959,1.959,0,0,0-.6.684c-.631,1.191.94,1.206.875,1.845-.018.182-.033.318-.056.437a1.953,1.953,0,0,0-.367.539c-.909,1.965-1.669,4.038-2.4,6.041A51.926,51.926,0,0,1,8.281,64.29a1.975,1.975,0,0,0-.2,1.21c-.058.277-.233.815-.354,1.187a8.059,8.059,0,0,0-.581,2.951c-.159.345-.283.592-.394.811a19.964,19.964,0,0,0-1.416,3.773,4.462,4.462,0,0,0-.082,1.605,1.988,1.988,0,0,0-.285.645l-.074.305a1.855,1.855,0,0,0,.072,1.045l.009.129.02.307-.1.119a1.993,1.993,0,0,0-.439,1.141s-.058,1.094-.057,1.119a2.924,2.924,0,0,0,.018.928c.013.061.043.112.061.17-.03.111-.057.22-.091.331-.1.378-.183.629-.234.772a1.973,1.973,0,0,0-.379,1.173c0,.454-.01.906-.019,1.357,0,.2-.009.391-.013.587a2.078,2.078,0,0,0-.2,1.091c0,.041.007.083.011.127a3.727,3.727,0,0,0-.178,2.208,1.941,1.941,0,0,0,.143.5c-.083.59,2.4,1.973,2.383,2.386,0,.477.007.993.027,1.507a1.992,1.992,0,0,0-.212.859,58.673,58.673,0,0,0,1.066,10.036,1.983,1.983,0,0,0,.209.62,1.988,1.988,0,0,0,.1.51l.019.057a1.992,1.992,0,0,0,.157,1.432c.033.173.045.388.065.614a7.416,7.416,0,0,0,.5,2.391,1.923,1.923,0,0,0,.063.262l.174.56c.431,1.377.77,2.463,1.209,3.531l.2.447c.39.887,2.032,2.154,2.476,3.236a1.975,1.975,0,0,0,.788.93,7.542,7.542,0,0,0,.7.955L14.5,122.8a22.919,22.919,0,0,0,1.694,3.226l.087.147c.038.063.081.126.125.186a5.458,5.458,0,0,0,.938,1.031,1.974,1.974,0,0,0,.395,1.14c.341.457.629.85.891,1.209a35.863,35.863,0,0,0,3.977,4.7l.041.042a1.994,1.994,0,0,0,.348.474c.743.75,1.453,1.524,2.116,2.3.376.44.737.906,1.1,1.373.34.438.68.877,1.07,1.344l.513.584a16.955,16.955,0,0,0,4.263,3.921l1.652,1.113a2.867,2.867,0,0,0,.514.843,1.969,1.969,0,0,0,.559.456,22.68,22.68,0,0,1,3.579,2.449,24.082,24.082,0,0,0,3.364,2.24,16.693,16.693,0,0,0,4.789,3.386c.583.318,1.182.623,1.769.923a19.71,19.71,0,0,1,3.186,1.845,1.974,1.974,0,0,0,1.15.448,3.542,3.542,0,0,0,.422.285,1.98,1.98,0,0,0,1.376.225l.081.036c4.542,1.948,9.2,3.945,14.051,5.484,1.616.513,3.255.976,4.918,1.366a5.023,5.023,0,0,0,2.909-.045,1.963,1.963,0,0,0,1.258.533c1.153.056,2.317.136,3.487.216a62.976,62.976,0,0,0,11.2.091,9.669,9.669,0,0,0,4.611-.44,3.326,3.326,0,0,0,.5.1,6.653,6.653,0,0,0,2.543-.489,1.99,1.99,0,0,0,.974-.06c.072-.023.166-.055.275-.095.194-.053.456-.1.721-.161.221-.047.445-.1.745-.168a5,5,0,0,0,1.339-.555c.746-.171,1.452-.387,2.154-.6l.472-.165c.325-.114.623-.216.905-.3a1.973,1.973,0,0,0,.557-.024l1.286-.255a1.966,1.966,0,0,0,1.246-.852,6.73,6.73,0,0,0,1.181-.516,7.951,7.951,0,0,0,2.012-.581c.154-.072.311-.158.468-.237a2.005,2.005,0,0,0,.661-.136c.525-.21,1.193-.507,1.844-.817l.163-.072a1.252,1.252,0,0,1,.121-.066,8.851,8.851,0,0,0,2.443-1.674,9.3,9.3,0,0,0,1.454-.717c.592-.391,1.119-.814,1.607-1.206a5.825,5.825,0,0,1,1.48-.981,1.984,1.984,0,0,0,1.107-.469l2.405-2.065,2.124-2.019q.163-.148.325-.3a1.983,1.983,0,0,0,1.363-.622,44.275,44.275,0,0,0,3.261-3.95c.426-.564.841-1.112,1.292-1.676a1.984,1.984,0,0,0,1.137-.772c.534-.75,1.073-1.474,1.6-2.186,1.12-1.508,2.187-2.957,3.115-4.479a3.062,3.062,0,0,0,.753-1.071c.055-.087.112-.175.171-.262a2.77,2.77,0,0,0,.609-2.519c.066-.063.13-.126.19-.191a1.983,1.983,0,0,0,1.629-1.184c.034-.078.069-.162.1-.248a1.94,1.94,0,0,0,.365-.51,10.036,10.036,0,0,0,.711-1.719,1.981,1.981,0,0,0,.742-1.077,9.681,9.681,0,0,1,.651-1.848,1.962,1.962,0,0,0,.581-.641c.025-.043.047-.084.068-.125a32.035,32.035,0,0,0,1.455-3.2,29.138,29.138,0,0,1,1.279-2.833,3.176,3.176,0,0,0,1.059-1.1l.026-.042a1.99,1.99,0,0,0,.833-.966l.635-1.575a1.984,1.984,0,0,0,.125-1.016c.032-.09.066-.178.1-.266.013-.032.025-.065.036-.1a1.981,1.981,0,0,0,.528-.712C157.031,107.683,160.982,101.474,163.686,95.073Zm-6.735-42.13,0-.01h0ZM112.723,22.3a2.563,2.563,0,0,0-.557.017l.143-.44A1.341,1.341,0,0,1,112.723,22.3Zm31.819,20.878c.079.1.165.22.254.352l-.171.117A1.91,1.91,0,0,1,144.542,43.178Zm.333.794.124-.13.1.162c.015.024.032.047.046.071A1.907,1.907,0,0,1,144.875,43.972ZM111.911,155.2a1.8,1.8,0,0,0-.139.189l-.012,0A1.259,1.259,0,0,1,111.911,155.2Zm-5.991,2.221c-.179.05-.365.106-.523.139a1.193,1.193,0,0,1,.417-.361Z" fill="#202020"/>
</svg>
