<svg xmlns="http://www.w3.org/2000/svg" width="489.952" height="50" viewBox="0 0 489.952 50">
  <path d="M481.684,13.571c-2.558-.165-5.135-.259-7.684-.45a60.511,60.511,0,0,1-7.5-.745,45.366,45.366,0,0,0-9.378-.958c-7.105-.006-14.21-.049-21.315-.076-6.434-.025-12.836-.251-18.912,1.38-2.1.565-5.035.412-7.6.472-5.157.123-10.276.144-15.055,1.431a25.965,25.965,0,0,1-5.65.484c-6.444.139-12.693.345-18.895,1.655-3.975.84-8.883.563-13.373.786-5.84,1.864-12.429,1.441-18.844,1.569-5.78.116-11.545.061-17.051,1.369-2.181.518-5.055.352-7.62.4-6.455.114-12.917.132-19.369.271a37.048,37.048,0,0,0-7.559.563c-4.887,1.224-9.963,1.189-15.128,1.21q-19.375.081-38.752.213c-5.122.041-10.377-.282-15.175,1.026-2.467-.235-5.19-.922-7.346-.611-4.385.631-8.376,1.441-12.851.1a17.509,17.509,0,0,0-4.109-.408c-3.464,0-5.425-.093-7.332.026-1.883.118-9.43.336-11.162.715a44.415,44.415,0,0,1-9.42.908c-7.75.022-9.884.051-17.632.133-7.043.075-16.907-.248-23.712,1.348-2.726.639-.722.407-3.934.42-18.085.073-33.367-1.425-51.445-1.214-10.211.119-26.254.7-36.181,2.867-2.224.485-5.1.229-7.682.283-4.513.093-9.033.122-13.54.266a10.429,10.429,0,0,0-3.49.645,3.428,3.428,0,0,0-1.536,1.623c-.136.229.167.67.559.809A42.892,42.892,0,0,0,20.2,34.706c8.4.086,16.794.139,25.182.317a56.784,56.784,0,0,1,9.462.739,41.9,41.9,0,0,0,16.867-.1,20.9,20.9,0,0,1,7.492-.272c5.55,1.261,14.121,1.183,19.888,1.377a43.662,43.662,0,0,1,9.413.959,29.458,29.458,0,0,0,7.445.866c1.292,0,2.584.012,3.876.016,9.041.027,15.275.11,24.315.065,9.625-.048,19.294.165,28.62-1.565,2.308-.428,5.119-.193,7.7-.224,5.165-.064,10.334-.073,15.5-.162,2.569-.045,5.459.127,7.633-.4,7.366-1.778,15.182-1.22,22.841-1.489,3.862-.136,7.732-.215,11.6-.32,6.522-1.889,13.768-1.383,20.8-1.615a43.176,43.176,0,0,0,7.567-.573,60.711,60.711,0,0,1,13.237-1.1q34.874-.139,69.746-.315c7.666-.05,15.535.5,22.7-1.594a13.738,13.738,0,0,1,3.808-.226c8.591.286,16.139-2.2,24.576-2.3,5.748-1.477,12.351-1.778,18.048-3.373,2.351-.658,4.054-1.343,5.042-2.679,1.782-2.411,5.741-3.326,10.685-3.375,6.457-.065,12.911-.226,19.368-.25a42.6,42.6,0,0,0,9.359-.988,23.653,23.653,0,0,1,11.179.258,18.241,18.241,0,0,0,7.445.519,6.643,6.643,0,0,0,2.719-1.14C485.171,15.141,483.343,13.678,481.684,13.571Z"/>
</svg>
