<svg width="1505" height="551" viewBox="0 0 1505 551" fill="none" xmlns="http://www.w3.org/2000/svg">
<path d="M371.547 450.6H180.238L144.663 539.143H0L202.375 11.8593H351.783L550.208 539.138H403.96L371.547 450.6ZM335.181 346.252L275.89 175.491L218.179 346.252H335.181Z" fill="#212237"/>
<path d="M1046.68 472.735C992.924 524.121 917.03 551 838.775 551C760.519 551 684.621 524.121 630.862 472.735C604.586 447.045 583.708 416.365 569.453 382.494C555.199 348.624 547.856 312.246 547.856 275.499C547.856 238.751 555.199 202.374 569.453 168.503C583.708 134.633 604.586 103.952 630.862 78.2625C684.622 26.879 760.516 0 838.775 0C917.034 0 992.923 26.8789 1046.68 78.2652C1072.96 103.955 1093.83 134.636 1108.09 168.507C1122.34 202.377 1129.68 238.754 1129.68 275.501C1129.68 312.249 1122.34 348.626 1108.09 382.496C1093.83 416.366 1072.96 447.047 1046.68 472.737V472.735ZM732.05 174.706C718.544 188.325 707.884 204.496 700.69 222.276C693.497 240.056 689.914 259.09 690.151 278.269C690.057 296.606 693.727 314.767 700.934 331.629C708.141 348.49 718.732 363.694 732.05 376.298C746.211 389.957 762.926 400.688 781.24 407.878C799.553 415.067 819.105 418.574 838.776 418.198C857.955 418.922 877.084 415.783 895.026 408.968C912.969 402.154 929.359 391.802 943.222 378.529C957.085 365.255 968.139 349.331 975.726 331.701C983.314 314.072 987.281 295.097 987.391 275.904C987.334 257.051 983.531 238.397 976.203 221.026C968.874 203.655 958.166 187.914 944.701 174.718C915.839 148.052 878.068 133.111 838.775 132.818C799.094 132.301 760.786 147.336 732.05 174.706V174.706Z" fill="#212237"/>
<path d="M1392.16 128.063V539.138H1255.4V128.063H1143.14V11.8593H1504.41V128.062L1392.16 128.063Z" fill="#212237"/>
</svg>
