<svg width="353" height="97" viewBox="0 0 353 97" fill="none" xmlns="http://www.w3.org/2000/svg">
<path d="M35.5309 2.22021L0.23584 94.1812H25.4668L31.6709 78.7392H65.0349L70.6879 94.1812H96.1928L61.5869 2.22021H35.5309ZM38.2888 60.5402L48.3528 30.7602L58.6918 60.5402H38.2888Z" fill="#251F3A"/>
<path d="M182.784 13.8011C173.409 4.83909 160.174 0.1521 146.523 0.1521C132.874 0.1521 119.638 4.83909 110.263 13.8011C100.474 23.0391 95.7856 35.9971 95.7856 48.2691C95.7856 60.4011 100.474 73.2241 110.263 82.5991C119.638 91.5611 132.874 96.2491 146.523 96.2491C160.173 96.2491 173.409 91.5611 182.784 82.5991C192.573 73.2241 197.26 60.4021 197.26 48.2691C197.26 35.9981 192.573 23.0391 182.784 13.8011Z" fill="#251F3A"/>
<path d="M262.62 2.22021H199.613V22.4872H219.189V94.1802H243.043V22.4872H262.62V2.22021Z" fill="#251F3A"/>
<path d="M317.633 2.22021H291.576L256.281 94.1812H281.511L287.716 78.7392H321.08L326.733 94.1812H352.238L317.633 2.22021ZM294.334 60.5402L304.397 30.7602L314.739 60.5402H294.334Z" fill="#251F3A"/>
<path d="M171.975 49.8272C170.956 53.0842 170.06 56.3582 168.883 59.5282C168.361 60.9392 167.407 62.2592 166.393 63.3922C165.902 63.9412 164.679 64.3442 164.044 64.1132C163.426 63.8882 162.721 62.7372 162.772 62.0462C162.963 59.4292 163.403 56.8242 163.834 54.2302C164.469 50.4212 165.18 46.6252 165.852 42.8212C165.984 42.0742 166.089 41.3222 166.276 40.1332C164.912 39.7002 163.443 39.0582 161.917 38.8492C161.379 38.7752 160.241 39.6952 160.149 40.2802C159.401 45.1432 157.533 49.5732 155.31 53.9002C154.814 54.8682 154.623 56.0252 154.004 56.8872C153.542 57.5302 152.563 58.2502 151.907 58.1722C151.309 58.1002 150.389 57.0022 150.387 56.3522C150.378 54.2712 150.519 52.1422 150.987 50.1212C151.849 46.4192 152.994 42.7832 153.997 39.1132C154.167 38.4942 154.263 37.8482 154.323 37.2072C154.594 34.3892 154.004 34.0332 151.294 33.6792C146.209 33.0152 142.663 35.9922 139.281 38.7992C137.828 40.0062 137.254 42.6752 136.946 44.7782C135.741 52.9602 134.141 61.0362 131.079 68.7372C130.21 70.9202 128.783 72.9002 127.479 74.8852C127.005 75.6052 126.223 76.2722 125.434 76.5902C124.702 76.8842 123.526 77.0032 122.997 76.6022C122.469 76.2042 122.2 74.9982 122.358 74.2642C122.624 73.0302 123.266 71.8632 123.845 70.7152C124.746 68.9302 125.638 67.1322 126.689 65.4342C129.3 61.2052 130.13 56.6072 129.891 51.7142C129.772 49.2762 129.869 46.8282 129.502 44.2532C129.245 44.6292 128.926 44.9772 128.742 45.3862C127.092 49.0212 125.395 52.6372 123.859 56.3212C122.823 58.8082 122.138 61.4422 121.088 63.9222C119.844 66.8642 117.625 69.0582 114.816 70.4922C113.882 70.9682 112.525 70.9252 111.439 70.7152C109.723 70.3822 109.426 68.5422 110.765 66.8362C112.718 64.3482 114.823 61.9752 116.683 59.4232C117.647 58.1012 118.395 56.5592 118.94 55.0092C120.498 50.5862 121.841 46.0852 123.392 41.6562C124.364 38.8832 125.292 36.0422 126.698 33.4812C133.386 21.2872 145.077 16.5022 158.467 20.2922C164.432 21.9802 169.565 24.8612 172.692 30.4822C173.201 31.3962 173.279 32.5442 173.772 33.4692C174.196 34.2652 174.789 35.1502 175.543 35.5612C180.571 38.3012 182.441 43.1682 183.684 48.1822C184.407 51.0962 184.173 54.2982 184.033 57.3542C183.961 58.9592 183.023 60.3722 181.215 60.9372C179.075 61.6052 177.734 61.1952 176.696 59.2042C175.073 56.0852 173.531 52.9272 171.975 49.8272Z" fill="#F2F0F0"/>
</svg>
