<svg width="2055" height="551" viewBox="0 0 2055 551" fill="none" xmlns="http://www.w3.org/2000/svg">
<path d="M371.547 450.6H180.238L144.663 539.143H0L202.375 11.8594H351.783L550.208 539.138H403.96L371.547 450.6ZM335.181 346.252L275.89 175.491L218.179 346.252H335.181Z" fill="#212237"/>
<path d="M1875.55 450.741H1684.24L1648.66 539.284H1504L1706.38 12H1855.78L2054.21 539.279H1907.96L1875.55 450.741ZM1839.18 346.393L1779.89 175.632L1722.18 346.393H1839.18Z" fill="#212237"/>
<path d="M1046.68 472.735C992.924 524.121 917.029 551 838.774 551C760.518 551 684.62 524.121 630.861 472.735C604.585 447.045 583.707 416.365 569.452 382.494C555.198 348.624 547.855 312.246 547.855 275.499C547.855 238.751 555.198 202.374 569.452 168.503C583.707 134.633 604.585 103.952 630.861 78.2625C684.621 26.879 760.515 0 838.774 0C917.033 0 992.923 26.8789 1046.68 78.2652C1072.96 103.955 1093.83 134.636 1108.09 168.507C1122.34 202.377 1129.68 238.754 1129.68 275.501C1129.68 312.249 1122.34 348.626 1108.09 382.496C1093.83 416.366 1072.96 447.047 1046.68 472.737V472.735ZM732.049 174.706C718.543 188.325 707.883 204.496 700.689 222.276C693.496 240.056 689.913 259.09 690.15 278.269C690.056 296.606 693.726 314.767 700.933 331.629C708.14 348.49 718.731 363.694 732.049 376.298C746.21 389.957 762.925 400.688 781.239 407.878C799.552 415.067 819.104 418.574 838.775 418.198C857.954 418.922 877.083 415.783 895.025 408.968C912.968 402.154 929.358 391.802 943.221 378.529C957.084 365.255 968.138 349.331 975.725 331.701C983.313 314.072 987.28 295.097 987.39 275.904C987.333 257.051 983.53 238.397 976.202 221.026C968.873 203.655 958.165 187.914 944.7 174.718C915.838 148.052 878.067 133.111 838.774 132.818C799.093 132.301 760.785 147.336 732.049 174.706Z" fill="#212237"/>
<path d="M1392.16 128.063V539.138H1255.4V128.063H1143.14V11.8594H1504.41V128.062L1392.16 128.063Z" fill="#212237"/>
</svg>
