<svg width="596" height="842" viewBox="0 0 596 842" fill="none" xmlns="http://www.w3.org/2000/svg">
<path d="M184.531 318.22L149.236 410.181H174.467L180.671 394.739H214.035L219.688 410.181H245.193L210.587 318.22H184.531ZM187.289 376.54L197.353 346.76L207.692 376.54H187.289V376.54Z" fill="#251F3A"/>
<path d="M331.784 329.801C322.409 320.839 309.174 316.152 295.523 316.152C281.874 316.152 268.638 320.839 259.263 329.801C249.474 339.039 244.786 351.997 244.786 364.269C244.786 376.401 249.474 389.224 259.263 398.599C268.638 407.561 281.874 412.249 295.523 412.249C309.173 412.249 322.409 407.561 331.784 398.599C341.573 389.224 346.26 376.402 346.26 364.269C346.26 351.998 341.573 339.039 331.784 329.801Z" fill="#251F3A"/>
<path d="M411.62 318.22H348.613V338.487H368.189V410.18H392.043V338.487H411.62V318.22Z" fill="#251F3A"/>
<path d="M466.633 318.22H440.576L405.281 410.181H430.511L436.716 394.739H470.08L475.733 410.181H501.238L466.633 318.22ZM443.334 376.54L453.397 346.76L463.739 376.54H443.334V376.54Z" fill="#251F3A"/>
<path d="M320.975 365.827C319.956 369.084 319.06 372.358 317.883 375.528C317.361 376.939 316.407 378.259 315.393 379.392C314.902 379.941 313.679 380.344 313.044 380.113C312.426 379.888 311.721 378.737 311.772 378.046C311.963 375.429 312.403 372.824 312.834 370.23C313.469 366.421 314.18 362.625 314.852 358.821C314.984 358.074 315.089 357.322 315.276 356.133C313.912 355.7 312.443 355.058 310.917 354.849C310.379 354.775 309.241 355.695 309.149 356.28C308.401 361.143 306.533 365.573 304.31 369.9C303.814 370.868 303.623 372.025 303.004 372.887C302.542 373.53 301.563 374.25 300.907 374.172C300.309 374.1 299.389 373.002 299.387 372.352C299.378 370.271 299.519 368.142 299.987 366.121C300.849 362.419 301.994 358.783 302.997 355.113C303.167 354.494 303.263 353.848 303.323 353.207C303.594 350.389 303.004 350.033 300.294 349.679C295.209 349.015 291.663 351.992 288.281 354.799C286.828 356.006 286.254 358.675 285.946 360.778C284.741 368.96 283.141 377.036 280.079 384.737C279.21 386.92 277.783 388.9 276.479 390.885C276.005 391.605 275.223 392.272 274.434 392.59C273.702 392.884 272.526 393.003 271.997 392.602C271.469 392.204 271.2 390.998 271.358 390.264C271.624 389.03 272.266 387.863 272.845 386.715C273.746 384.93 274.638 383.132 275.689 381.434C278.3 377.205 279.13 372.607 278.891 367.714C278.772 365.276 278.869 362.828 278.502 360.253C278.245 360.629 277.926 360.977 277.742 361.386C276.092 365.021 274.395 368.637 272.859 372.321C271.823 374.808 271.138 377.442 270.088 379.922C268.844 382.864 266.625 385.058 263.816 386.492C262.882 386.968 261.525 386.925 260.439 386.715C258.723 386.382 258.426 384.542 259.765 382.836C261.718 380.348 263.823 377.975 265.683 375.423C266.647 374.101 267.395 372.559 267.94 371.009C269.498 366.586 270.841 362.085 272.392 357.656C273.364 354.883 274.292 352.042 275.698 349.481C282.386 337.287 294.077 332.502 307.467 336.292C313.432 337.98 318.565 340.861 321.692 346.482C322.201 347.396 322.279 348.544 322.772 349.469C323.196 350.265 323.789 351.15 324.543 351.561C329.571 354.301 331.441 359.168 332.684 364.182C333.407 367.096 333.173 370.298 333.033 373.354C332.961 374.959 332.023 376.372 330.215 376.937C328.075 377.605 326.734 377.195 325.696 375.204C324.073 372.085 322.531 368.927 320.975 365.827Z" fill="#F2F0F0"/>
</svg>
