<svg id="Layer_1" data-name="Layer 1" xmlns="http://www.w3.org/2000/svg" viewBox="0 0 229.7666 62.7275">
  <g id="type">
    <path id="type_CompoundPathItem_" data-name="type &lt;CompoundPathItem&gt;" d="M42.2983,51.2979H20.519l-4.05,10.08H0L23.0391,1.35H40.0483L62.6377,61.3774H45.9883Zm-4.14-11.8794-6.75-19.44-6.57,19.44Z" style="fill: #212237"/>
    <path id="type_CompoundPathItem_2" data-name="type &lt;CompoundPathItem&gt;" d="M119.1582,53.8179c-6.12,5.85-14.76,8.91-23.6689,8.91s-17.5494-3.06-23.6695-8.91a31.4022,31.4022,0,0,1,0-44.9082C77.94,3.06,86.58,0,95.4893,0s17.5488,3.06,23.6689,8.91a31.4033,31.4033,0,0,1,0,44.9082ZM83.3394,19.8892a16.4547,16.4547,0,0,0-4.77,11.79,15.2582,15.2582,0,0,0,4.77,11.16,17.0317,17.0317,0,0,0,12.15,4.77,16.3043,16.3043,0,0,0,16.9189-16.1992,16.197,16.197,0,0,0-4.86-11.5195,17.9674,17.9674,0,0,0-12.059-4.77A17.29,17.29,0,0,0,83.3394,19.8892Z" style="fill: #212237"/>
    <path id="type_CompoundPathItem_3" data-name="type &lt;CompoundPathItem&gt;" d="M158.4893,14.5791V61.3774H142.92V14.5791H130.14V1.35h41.1285v13.229Z" style="fill: #212237"/>
    <path id="type_CompoundPathItem_4" data-name="type &lt;CompoundPathItem&gt;" d="M209.4272,51.2979H187.6479l-4.05,10.08H167.1289L190.168,1.35h17.0092l22.5894,60.0273H213.1172Zm-4.14-11.8794-6.75-19.44-6.57,19.44Z" style="fill: #212237"/>
  </g>
</svg>
