<svg width="140" height="39" viewBox="0 0 140 39" fill="none" xmlns="http://www.w3.org/2000/svg">
<path d="M25.773 31.2562H12.5025L10.0348 37.3981H0L14.0381 0.822266H24.402L38.166 37.3978H28.0213L25.773 31.2562ZM23.2504 24.0179L19.1375 12.1729L15.1343 24.0179H23.2504Z" fill="#75BA87"/>
<path d="M72.6057 32.792C68.8767 36.3565 63.6122 38.221 58.1839 38.221C52.7556 38.221 47.4908 36.3565 43.7618 32.792C41.9391 31.01 40.4908 28.8818 39.502 26.5323C38.5132 24.1828 38.0039 21.6595 38.0039 19.1104C38.0039 16.5613 38.5132 14.038 39.502 11.6885C40.4908 9.33902 41.9391 7.21079 43.7618 5.42881C47.4909 1.8645 52.7554 0 58.1839 0C63.6125 0 68.8767 1.8645 72.6057 5.42899C74.4283 7.21102 75.8765 9.33926 76.8652 11.6887C77.854 14.0382 78.3633 16.5616 78.3633 19.1106C78.3633 21.6596 77.854 24.183 76.8652 26.5324C75.8765 28.8819 74.4283 31.0102 72.6057 32.7922V32.792ZM50.7808 12.1188C49.8439 13.0635 49.1045 14.1852 48.6055 15.4185C48.1065 16.6519 47.858 17.9722 47.8744 19.3026C47.8679 20.5746 48.1225 21.8343 48.6224 23.004C49.1223 24.1736 49.857 25.2282 50.7808 26.1025C51.7631 27.05 52.9226 27.7944 54.1929 28.2931C55.4633 28.7918 56.8195 29.0351 58.184 29.009C59.5144 29.0592 60.8413 28.8415 62.0859 28.3688C63.3305 27.896 64.4674 27.178 65.4291 26.2573C66.3907 25.3365 67.1575 24.2319 67.6838 23.009C68.2101 21.7861 68.4853 20.4699 68.4929 19.1386C68.489 17.8308 68.2252 16.5368 67.7168 15.3318C67.2085 14.1269 66.4657 13.035 65.5316 12.1196C63.5296 10.2698 60.9096 9.23346 58.1839 9.21314C55.4314 9.17728 52.7741 10.2202 50.7808 12.1188V12.1188Z" fill="#75BA87"/>
<path d="M96.5705 8.88295V37.3978H87.0839V8.88295H79.2969V0.822266H104.357V8.88288L96.5705 8.88295Z" fill="#75BA87"/>
<path d="M127.607 31.2562H114.337L111.869 37.3981H101.834L115.872 0.822266H126.236L140 37.3978H129.855L127.607 31.2562ZM125.084 24.0179L120.972 12.1729L116.968 24.0179H125.084Z" fill="#75BA87"/>
</svg>
